%TF.GenerationSoftware,KiCad,Pcbnew,(5.1.10)-1*%
%TF.CreationDate,2021-08-22T00:04:37-04:00*%
%TF.ProjectId,Test Board,54657374-2042-46f6-9172-642e6b696361,rev?*%
%TF.SameCoordinates,Original*%
%TF.FileFunction,Legend,Top*%
%TF.FilePolarity,Positive*%
%FSLAX46Y46*%
G04 Gerber Fmt 4.6, Leading zero omitted, Abs format (unit mm)*
G04 Created by KiCad (PCBNEW (5.1.10)-1) date 2021-08-22 00:04:37*
%MOMM*%
%LPD*%
G01*
G04 APERTURE LIST*
%ADD10C,0.150000*%
%ADD11C,0.120000*%
G04 APERTURE END LIST*
D10*
X81186666Y-122824761D02*
X81186666Y-120824761D01*
X81662857Y-120824761D01*
X81948571Y-120920000D01*
X82139047Y-121110476D01*
X82234285Y-121300952D01*
X82329523Y-121681904D01*
X82329523Y-121967619D01*
X82234285Y-122348571D01*
X82139047Y-122539047D01*
X81948571Y-122729523D01*
X81662857Y-122824761D01*
X81186666Y-122824761D01*
X83948571Y-122729523D02*
X83758095Y-122824761D01*
X83377142Y-122824761D01*
X83186666Y-122729523D01*
X83091428Y-122539047D01*
X83091428Y-121777142D01*
X83186666Y-121586666D01*
X83377142Y-121491428D01*
X83758095Y-121491428D01*
X83948571Y-121586666D01*
X84043809Y-121777142D01*
X84043809Y-121967619D01*
X83091428Y-122158095D01*
X84805714Y-122729523D02*
X84996190Y-122824761D01*
X85377142Y-122824761D01*
X85567619Y-122729523D01*
X85662857Y-122539047D01*
X85662857Y-122443809D01*
X85567619Y-122253333D01*
X85377142Y-122158095D01*
X85091428Y-122158095D01*
X84900952Y-122062857D01*
X84805714Y-121872380D01*
X84805714Y-121777142D01*
X84900952Y-121586666D01*
X85091428Y-121491428D01*
X85377142Y-121491428D01*
X85567619Y-121586666D01*
X86520000Y-122824761D02*
X86520000Y-121491428D01*
X86520000Y-120824761D02*
X86424761Y-120920000D01*
X86520000Y-121015238D01*
X86615238Y-120920000D01*
X86520000Y-120824761D01*
X86520000Y-121015238D01*
X88329523Y-121491428D02*
X88329523Y-123110476D01*
X88234285Y-123300952D01*
X88139047Y-123396190D01*
X87948571Y-123491428D01*
X87662857Y-123491428D01*
X87472380Y-123396190D01*
X88329523Y-122729523D02*
X88139047Y-122824761D01*
X87758095Y-122824761D01*
X87567619Y-122729523D01*
X87472380Y-122634285D01*
X87377142Y-122443809D01*
X87377142Y-121872380D01*
X87472380Y-121681904D01*
X87567619Y-121586666D01*
X87758095Y-121491428D01*
X88139047Y-121491428D01*
X88329523Y-121586666D01*
X89281904Y-121491428D02*
X89281904Y-122824761D01*
X89281904Y-121681904D02*
X89377142Y-121586666D01*
X89567619Y-121491428D01*
X89853333Y-121491428D01*
X90043809Y-121586666D01*
X90139047Y-121777142D01*
X90139047Y-122824761D01*
X91853333Y-122729523D02*
X91662857Y-122824761D01*
X91281904Y-122824761D01*
X91091428Y-122729523D01*
X90996190Y-122539047D01*
X90996190Y-121777142D01*
X91091428Y-121586666D01*
X91281904Y-121491428D01*
X91662857Y-121491428D01*
X91853333Y-121586666D01*
X91948571Y-121777142D01*
X91948571Y-121967619D01*
X90996190Y-122158095D01*
X93662857Y-122824761D02*
X93662857Y-120824761D01*
X93662857Y-122729523D02*
X93472380Y-122824761D01*
X93091428Y-122824761D01*
X92900952Y-122729523D01*
X92805714Y-122634285D01*
X92710476Y-122443809D01*
X92710476Y-121872380D01*
X92805714Y-121681904D01*
X92900952Y-121586666D01*
X93091428Y-121491428D01*
X93472380Y-121491428D01*
X93662857Y-121586666D01*
X96139047Y-122824761D02*
X96139047Y-120824761D01*
X96139047Y-121586666D02*
X96329523Y-121491428D01*
X96710476Y-121491428D01*
X96900952Y-121586666D01*
X96996190Y-121681904D01*
X97091428Y-121872380D01*
X97091428Y-122443809D01*
X96996190Y-122634285D01*
X96900952Y-122729523D01*
X96710476Y-122824761D01*
X96329523Y-122824761D01*
X96139047Y-122729523D01*
X97758095Y-121491428D02*
X98234285Y-122824761D01*
X98710476Y-121491428D02*
X98234285Y-122824761D01*
X98043809Y-123300952D01*
X97948571Y-123396190D01*
X97758095Y-123491428D01*
X100900952Y-122253333D02*
X101853333Y-122253333D01*
X100710476Y-122824761D02*
X101377142Y-120824761D01*
X102043809Y-122824761D01*
X102710476Y-122634285D02*
X102805714Y-122729523D01*
X102710476Y-122824761D01*
X102615238Y-122729523D01*
X102710476Y-122634285D01*
X102710476Y-122824761D01*
X105186666Y-121777142D02*
X105853333Y-121777142D01*
X106139047Y-122824761D02*
X105186666Y-122824761D01*
X105186666Y-120824761D01*
X106139047Y-120824761D01*
X107281904Y-122824761D02*
X107091428Y-122729523D01*
X106996190Y-122539047D01*
X106996190Y-120824761D01*
X108900952Y-122824761D02*
X108900952Y-120824761D01*
X108900952Y-122729523D02*
X108710476Y-122824761D01*
X108329523Y-122824761D01*
X108139047Y-122729523D01*
X108043809Y-122634285D01*
X107948571Y-122443809D01*
X107948571Y-121872380D01*
X108043809Y-121681904D01*
X108139047Y-121586666D01*
X108329523Y-121491428D01*
X108710476Y-121491428D01*
X108900952Y-121586666D01*
X110615238Y-122729523D02*
X110424761Y-122824761D01*
X110043809Y-122824761D01*
X109853333Y-122729523D01*
X109758095Y-122539047D01*
X109758095Y-121777142D01*
X109853333Y-121586666D01*
X110043809Y-121491428D01*
X110424761Y-121491428D01*
X110615238Y-121586666D01*
X110710476Y-121777142D01*
X110710476Y-121967619D01*
X109758095Y-122158095D01*
X111567619Y-122824761D02*
X111567619Y-121491428D01*
X111567619Y-121872380D02*
X111662857Y-121681904D01*
X111758095Y-121586666D01*
X111948571Y-121491428D01*
X112139047Y-121491428D01*
D11*
%TO.C,J2*%
X44039747Y-88928805D02*
G75*
G02*
X44185000Y-88216000I1680253J28805D01*
G01*
X45036958Y-87364574D02*
G75*
G02*
X46404000Y-87365000I683042J-1535426D01*
G01*
X47255426Y-88216958D02*
G75*
G02*
X47255000Y-89584000I-1535426J-683042D01*
G01*
X46403042Y-90435426D02*
G75*
G02*
X45036000Y-90435000I-683042J1535426D01*
G01*
X44185244Y-89583318D02*
G75*
G02*
X44040000Y-88900000I1534756J683318D01*
G01*
X47400000Y-93980000D02*
G75*
G03*
X47400000Y-93980000I-1680000J0D01*
G01*
X41620000Y-86300000D02*
X41620000Y-96580000D01*
X43120000Y-86300000D02*
X43120000Y-96580000D01*
X48021000Y-86300000D02*
X48021000Y-96580000D01*
X50981000Y-86300000D02*
X50981000Y-96580000D01*
X41060000Y-86300000D02*
X41060000Y-96580000D01*
X50981000Y-86300000D02*
X41060000Y-86300000D01*
X50981000Y-96580000D02*
X41060000Y-96580000D01*
X46789000Y-95255000D02*
X46743000Y-95208000D01*
X44481000Y-92946000D02*
X44446000Y-92911000D01*
X46995000Y-95050000D02*
X46959000Y-95015000D01*
X44697000Y-92753000D02*
X44651000Y-92706000D01*
X41560000Y-86060000D02*
X40820000Y-86060000D01*
X40820000Y-86060000D02*
X40820000Y-86560000D01*
%TO.C,D2*%
X90620000Y-69020000D02*
X96070000Y-69020000D01*
X96070000Y-69020000D02*
X96070000Y-59250000D01*
X96070000Y-59250000D02*
X90620000Y-59250000D01*
X90620000Y-59250000D02*
X90620000Y-69020000D01*
X93345000Y-70215000D02*
X93345000Y-69020000D01*
X93345000Y-58055000D02*
X93345000Y-59250000D01*
X90620000Y-67470500D02*
X96070000Y-67470500D01*
X90620000Y-67350500D02*
X96070000Y-67350500D01*
X90620000Y-67590500D02*
X96070000Y-67590500D01*
%TO.C,U6*%
X188180000Y-124790000D02*
X188180000Y-119050000D01*
X188180000Y-119040000D02*
X200440000Y-119040000D01*
X200440000Y-119040000D02*
X200440000Y-124800000D01*
X200440000Y-124800000D02*
X188190000Y-124800000D01*
X187900000Y-125080000D02*
X189900000Y-125080000D01*
X187900000Y-125080000D02*
X187900000Y-123470000D01*
%TO.C,U2*%
X86630000Y-113090000D02*
G75*
G02*
X88630000Y-113090000I1000000J0D01*
G01*
X88630000Y-113090000D02*
X90280000Y-113090000D01*
X90280000Y-113090000D02*
X90280000Y-92650000D01*
X90280000Y-92650000D02*
X84980000Y-92650000D01*
X84980000Y-92650000D02*
X84980000Y-113090000D01*
X84980000Y-113090000D02*
X86630000Y-113090000D01*
%TO.C,U1*%
X75114000Y-58355000D02*
X85355000Y-58355000D01*
X75114000Y-62996000D02*
X77470000Y-62996000D01*
X79600000Y-62996000D02*
X80870000Y-62996000D01*
X83000000Y-62996000D02*
X85355000Y-62996000D01*
X75114000Y-58355000D02*
X75114000Y-62996000D01*
X85355000Y-58355000D02*
X85355000Y-62996000D01*
X75114000Y-59864000D02*
X85355000Y-59864000D01*
X78385000Y-58355000D02*
X78385000Y-59864000D01*
X82085000Y-58355000D02*
X82085000Y-59864000D01*
X76835000Y-62996000D02*
X76835000Y-65626000D01*
X80235000Y-62996000D02*
X80235000Y-65610000D01*
X83635000Y-62996000D02*
X83635000Y-65610000D01*
%TO.C,SW4*%
X177530000Y-112180000D02*
X182030000Y-112180000D01*
X176280000Y-108180000D02*
X176280000Y-109680000D01*
X182030000Y-105680000D02*
X177530000Y-105680000D01*
X183280000Y-109680000D02*
X183280000Y-108180000D01*
%TO.C,SW3*%
X165465000Y-117260000D02*
X169965000Y-117260000D01*
X164215000Y-113260000D02*
X164215000Y-114760000D01*
X169965000Y-110760000D02*
X165465000Y-110760000D01*
X171215000Y-114760000D02*
X171215000Y-113260000D01*
%TO.C,SW2*%
X153400000Y-112180000D02*
X157900000Y-112180000D01*
X152150000Y-108180000D02*
X152150000Y-109680000D01*
X157900000Y-105680000D02*
X153400000Y-105680000D01*
X159150000Y-109680000D02*
X159150000Y-108180000D01*
%TO.C,SW1*%
X165465000Y-107100000D02*
X169965000Y-107100000D01*
X164215000Y-103100000D02*
X164215000Y-104600000D01*
X169965000Y-100600000D02*
X165465000Y-100600000D01*
X171215000Y-104600000D02*
X171215000Y-103100000D01*
%TO.C,RV1*%
X197110000Y-63165000D02*
X197110000Y-56215000D01*
X201850000Y-63165000D02*
X201850000Y-56215000D01*
X197110000Y-63165000D02*
X198896000Y-63165000D01*
X199886000Y-63165000D02*
X201850000Y-63165000D01*
X197110000Y-56215000D02*
X198896000Y-56215000D01*
X199886000Y-56215000D02*
X201850000Y-56215000D01*
%TO.C,R23*%
X98520000Y-77875000D02*
X98520000Y-78205000D01*
X98520000Y-78205000D02*
X91980000Y-78205000D01*
X91980000Y-78205000D02*
X91980000Y-77875000D01*
X98520000Y-75795000D02*
X98520000Y-75465000D01*
X98520000Y-75465000D02*
X91980000Y-75465000D01*
X91980000Y-75465000D02*
X91980000Y-75795000D01*
%TO.C,R22*%
X191040000Y-98020000D02*
X191040000Y-97690000D01*
X191040000Y-97690000D02*
X197580000Y-97690000D01*
X197580000Y-97690000D02*
X197580000Y-98020000D01*
X191040000Y-100100000D02*
X191040000Y-100430000D01*
X191040000Y-100430000D02*
X197580000Y-100430000D01*
X197580000Y-100430000D02*
X197580000Y-100100000D01*
%TO.C,R21*%
X176435000Y-101195000D02*
X176435000Y-100865000D01*
X176435000Y-100865000D02*
X182975000Y-100865000D01*
X182975000Y-100865000D02*
X182975000Y-101195000D01*
X176435000Y-103275000D02*
X176435000Y-103605000D01*
X176435000Y-103605000D02*
X182975000Y-103605000D01*
X182975000Y-103605000D02*
X182975000Y-103275000D01*
%TO.C,R20*%
X164370000Y-119610000D02*
X164370000Y-119280000D01*
X164370000Y-119280000D02*
X170910000Y-119280000D01*
X170910000Y-119280000D02*
X170910000Y-119610000D01*
X164370000Y-121690000D02*
X164370000Y-122020000D01*
X164370000Y-122020000D02*
X170910000Y-122020000D01*
X170910000Y-122020000D02*
X170910000Y-121690000D01*
%TO.C,R19*%
X158845000Y-103275000D02*
X158845000Y-103605000D01*
X158845000Y-103605000D02*
X152305000Y-103605000D01*
X152305000Y-103605000D02*
X152305000Y-103275000D01*
X158845000Y-101195000D02*
X158845000Y-100865000D01*
X158845000Y-100865000D02*
X152305000Y-100865000D01*
X152305000Y-100865000D02*
X152305000Y-101195000D01*
%TO.C,R18*%
X164370000Y-96115000D02*
X164370000Y-95785000D01*
X164370000Y-95785000D02*
X170910000Y-95785000D01*
X170910000Y-95785000D02*
X170910000Y-96115000D01*
X164370000Y-98195000D02*
X164370000Y-98525000D01*
X164370000Y-98525000D02*
X170910000Y-98525000D01*
X170910000Y-98525000D02*
X170910000Y-98195000D01*
%TO.C,R1*%
X108680000Y-87400000D02*
X108680000Y-87730000D01*
X108680000Y-87730000D02*
X102140000Y-87730000D01*
X102140000Y-87730000D02*
X102140000Y-87400000D01*
X108680000Y-85320000D02*
X108680000Y-84990000D01*
X108680000Y-84990000D02*
X102140000Y-84990000D01*
X102140000Y-84990000D02*
X102140000Y-85320000D01*
%TO.C,L1*%
X67190000Y-69730000D02*
X77380000Y-69730000D01*
X78830000Y-69730000D02*
X89020000Y-69730000D01*
X67190000Y-81400000D02*
X77380000Y-81400000D01*
X78830000Y-81400000D02*
X89020000Y-81400000D01*
X67190000Y-69730000D02*
X67190000Y-81400000D01*
X89020000Y-69730000D02*
X89020000Y-81400000D01*
%TO.C,K3*%
X57920786Y-110595556D02*
X57420786Y-110095556D01*
X57420786Y-110195556D02*
X57820786Y-110595556D01*
X57720786Y-110595556D02*
X57420786Y-110295556D01*
X57420786Y-110395556D02*
X57620786Y-110595556D01*
X57520786Y-110595556D02*
X57420786Y-110495556D01*
X76200000Y-100100000D02*
X77900000Y-100100000D01*
X77900000Y-100100000D02*
X77900000Y-101600000D01*
X57400000Y-100800000D02*
X57400000Y-100200000D01*
X57400000Y-100200000D02*
X77800000Y-100200000D01*
X77800000Y-100200000D02*
X77800000Y-110600000D01*
X77800000Y-110600000D02*
X57400000Y-110600000D01*
X57400000Y-110600000D02*
X57400000Y-102395556D01*
X76200000Y-105000000D02*
X76200000Y-103900000D01*
X76200000Y-105700000D02*
X76200000Y-106800000D01*
X76000000Y-105000000D02*
X76400000Y-105700000D01*
X76800000Y-105000000D02*
X75600000Y-105000000D01*
X75600000Y-105000000D02*
X75600000Y-105700000D01*
X75600000Y-105700000D02*
X76800000Y-105700000D01*
X76800000Y-105700000D02*
X76800000Y-105000000D01*
%TO.C,K2*%
X57920786Y-123930556D02*
X57420786Y-123430556D01*
X57420786Y-123530556D02*
X57820786Y-123930556D01*
X57720786Y-123930556D02*
X57420786Y-123630556D01*
X57420786Y-123730556D02*
X57620786Y-123930556D01*
X57520786Y-123930556D02*
X57420786Y-123830556D01*
X76200000Y-113435000D02*
X77900000Y-113435000D01*
X77900000Y-113435000D02*
X77900000Y-114935000D01*
X57400000Y-114135000D02*
X57400000Y-113535000D01*
X57400000Y-113535000D02*
X77800000Y-113535000D01*
X77800000Y-113535000D02*
X77800000Y-123935000D01*
X77800000Y-123935000D02*
X57400000Y-123935000D01*
X57400000Y-123935000D02*
X57400000Y-115730556D01*
X76200000Y-118335000D02*
X76200000Y-117235000D01*
X76200000Y-119035000D02*
X76200000Y-120135000D01*
X76000000Y-118335000D02*
X76400000Y-119035000D01*
X76800000Y-118335000D02*
X75600000Y-118335000D01*
X75600000Y-118335000D02*
X75600000Y-119035000D01*
X75600000Y-119035000D02*
X76800000Y-119035000D01*
X76800000Y-119035000D02*
X76800000Y-118335000D01*
%TO.C,K1*%
X57920786Y-95990556D02*
X57420786Y-95490556D01*
X57420786Y-95590556D02*
X57820786Y-95990556D01*
X57720786Y-95990556D02*
X57420786Y-95690556D01*
X57420786Y-95790556D02*
X57620786Y-95990556D01*
X57520786Y-95990556D02*
X57420786Y-95890556D01*
X76200000Y-85495000D02*
X77900000Y-85495000D01*
X77900000Y-85495000D02*
X77900000Y-86995000D01*
X57400000Y-86195000D02*
X57400000Y-85595000D01*
X57400000Y-85595000D02*
X77800000Y-85595000D01*
X77800000Y-85595000D02*
X77800000Y-95995000D01*
X77800000Y-95995000D02*
X57400000Y-95995000D01*
X57400000Y-95995000D02*
X57400000Y-87790556D01*
X76200000Y-90395000D02*
X76200000Y-89295000D01*
X76200000Y-91095000D02*
X76200000Y-92195000D01*
X76000000Y-90395000D02*
X76400000Y-91095000D01*
X76800000Y-90395000D02*
X75600000Y-90395000D01*
X75600000Y-90395000D02*
X75600000Y-91095000D01*
X75600000Y-91095000D02*
X76800000Y-91095000D01*
X76800000Y-91095000D02*
X76800000Y-90395000D01*
%TO.C,J3*%
X44039747Y-116868805D02*
G75*
G02*
X44185000Y-116156000I1680253J28805D01*
G01*
X45036958Y-115304574D02*
G75*
G02*
X46404000Y-115305000I683042J-1535426D01*
G01*
X47255426Y-116156958D02*
G75*
G02*
X47255000Y-117524000I-1535426J-683042D01*
G01*
X46403042Y-118375426D02*
G75*
G02*
X45036000Y-118375000I-683042J1535426D01*
G01*
X44185244Y-117523318D02*
G75*
G02*
X44040000Y-116840000I1534756J683318D01*
G01*
X47400000Y-121920000D02*
G75*
G03*
X47400000Y-121920000I-1680000J0D01*
G01*
X41620000Y-114240000D02*
X41620000Y-124520000D01*
X43120000Y-114240000D02*
X43120000Y-124520000D01*
X48021000Y-114240000D02*
X48021000Y-124520000D01*
X50981000Y-114240000D02*
X50981000Y-124520000D01*
X41060000Y-114240000D02*
X41060000Y-124520000D01*
X50981000Y-114240000D02*
X41060000Y-114240000D01*
X50981000Y-124520000D02*
X41060000Y-124520000D01*
X46789000Y-123195000D02*
X46743000Y-123148000D01*
X44481000Y-120886000D02*
X44446000Y-120851000D01*
X46995000Y-122990000D02*
X46959000Y-122955000D01*
X44697000Y-120693000D02*
X44651000Y-120646000D01*
X41560000Y-114000000D02*
X40820000Y-114000000D01*
X40820000Y-114000000D02*
X40820000Y-114500000D01*
%TO.C,J1*%
X44039747Y-60353805D02*
G75*
G02*
X44185000Y-59641000I1680253J28805D01*
G01*
X45036958Y-58789574D02*
G75*
G02*
X46404000Y-58790000I683042J-1535426D01*
G01*
X47255426Y-59641958D02*
G75*
G02*
X47255000Y-61009000I-1535426J-683042D01*
G01*
X46403042Y-61860426D02*
G75*
G02*
X45036000Y-61860000I-683042J1535426D01*
G01*
X44185244Y-61008318D02*
G75*
G02*
X44040000Y-60325000I1534756J683318D01*
G01*
X47400000Y-65405000D02*
G75*
G03*
X47400000Y-65405000I-1680000J0D01*
G01*
X41620000Y-57725000D02*
X41620000Y-68005000D01*
X43120000Y-57725000D02*
X43120000Y-68005000D01*
X48021000Y-57725000D02*
X48021000Y-68005000D01*
X50981000Y-57725000D02*
X50981000Y-68005000D01*
X41060000Y-57725000D02*
X41060000Y-68005000D01*
X50981000Y-57725000D02*
X41060000Y-57725000D01*
X50981000Y-68005000D02*
X41060000Y-68005000D01*
X46789000Y-66680000D02*
X46743000Y-66633000D01*
X44481000Y-64371000D02*
X44446000Y-64336000D01*
X46995000Y-66475000D02*
X46959000Y-66440000D01*
X44697000Y-64178000D02*
X44651000Y-64131000D01*
X41560000Y-57485000D02*
X40820000Y-57485000D01*
X40820000Y-57485000D02*
X40820000Y-57985000D01*
%TO.C,DS1*%
X123390660Y-67053460D02*
G75*
G03*
X122890280Y-67553840I0J-500380D01*
G01*
X122890280Y-81554320D02*
G75*
G03*
X123390660Y-82054700I500380J0D01*
G01*
X186890660Y-82054700D02*
G75*
G03*
X187391040Y-81554320I0J500380D01*
G01*
X187390000Y-67555000D02*
G75*
G03*
X186890000Y-67055000I-500000J0D01*
G01*
X115050000Y-92695000D02*
X195330000Y-92695000D01*
X195330000Y-92695000D02*
X195330000Y-56415000D01*
X195330000Y-56415000D02*
X115850000Y-56415000D01*
X115050000Y-56415000D02*
X115050000Y-92695000D01*
X115060000Y-56415000D02*
X115850000Y-56415000D01*
X121690000Y-56055000D02*
X124690000Y-56055000D01*
X123390000Y-67055000D02*
X186890000Y-67055000D01*
X122890280Y-81554320D02*
X122890280Y-67555000D01*
X186890660Y-82055000D02*
X123390000Y-82055000D01*
X187390000Y-67555000D02*
X187390000Y-81555000D01*
X118190000Y-62055000D02*
X191190000Y-62055000D01*
X191190000Y-62055000D02*
X191190000Y-87055000D01*
X191190000Y-87055000D02*
X118190000Y-87055000D01*
X118190000Y-87055000D02*
X118190000Y-62055000D01*
%TO.C,D3*%
X107130000Y-76834538D02*
G75*
G02*
X101580000Y-78379830I-2990000J-462D01*
G01*
X107130000Y-76835462D02*
G75*
G03*
X101580000Y-75290170I-2990000J462D01*
G01*
X106640000Y-76835000D02*
G75*
G03*
X106640000Y-76835000I-2500000J0D01*
G01*
X101580000Y-75290000D02*
X101580000Y-78380000D01*
%TO.C,D1*%
X57915000Y-67275000D02*
X59040000Y-67275000D01*
X53805000Y-69835000D02*
X53805000Y-68635000D01*
X55105000Y-69835000D02*
X53805000Y-69835000D01*
X55115000Y-67275000D02*
X53995000Y-67275000D01*
X53995000Y-69645000D02*
X59040000Y-69645000D01*
X53995000Y-54705000D02*
X53995000Y-69645000D01*
X59040000Y-54695000D02*
X53995000Y-54705000D01*
X59040000Y-69645000D02*
X59040000Y-54695000D01*
%TO.C,C2*%
X111145000Y-62905000D02*
G75*
G03*
X111145000Y-62905000I-6370000J0D01*
G01*
X98445000Y-62905000D02*
X111105000Y-62905000D01*
X98445000Y-62865000D02*
X111105000Y-62865000D01*
X98445000Y-62825000D02*
X111105000Y-62825000D01*
X98446000Y-62785000D02*
X111104000Y-62785000D01*
X98447000Y-62745000D02*
X111103000Y-62745000D01*
X98448000Y-62705000D02*
X111102000Y-62705000D01*
X98449000Y-62665000D02*
X111101000Y-62665000D01*
X98451000Y-62625000D02*
X111099000Y-62625000D01*
X98453000Y-62585000D02*
X111097000Y-62585000D01*
X98455000Y-62545000D02*
X111095000Y-62545000D01*
X98457000Y-62505000D02*
X111093000Y-62505000D01*
X98460000Y-62465000D02*
X111090000Y-62465000D01*
X98463000Y-62425000D02*
X111087000Y-62425000D01*
X98466000Y-62385000D02*
X111084000Y-62385000D01*
X98469000Y-62345000D02*
X111081000Y-62345000D01*
X98473000Y-62305000D02*
X111077000Y-62305000D01*
X98477000Y-62265000D02*
X111073000Y-62265000D01*
X98481000Y-62225000D02*
X111069000Y-62225000D01*
X98485000Y-62184000D02*
X111065000Y-62184000D01*
X98490000Y-62144000D02*
X111060000Y-62144000D01*
X98495000Y-62104000D02*
X111055000Y-62104000D01*
X98500000Y-62064000D02*
X111050000Y-62064000D01*
X98506000Y-62024000D02*
X111044000Y-62024000D01*
X98511000Y-61984000D02*
X111039000Y-61984000D01*
X98517000Y-61944000D02*
X111033000Y-61944000D01*
X98523000Y-61904000D02*
X111027000Y-61904000D01*
X98530000Y-61864000D02*
X111020000Y-61864000D01*
X98537000Y-61824000D02*
X103335000Y-61824000D01*
X106215000Y-61824000D02*
X111013000Y-61824000D01*
X98544000Y-61784000D02*
X103335000Y-61784000D01*
X106215000Y-61784000D02*
X111006000Y-61784000D01*
X98551000Y-61744000D02*
X103335000Y-61744000D01*
X106215000Y-61744000D02*
X110999000Y-61744000D01*
X98559000Y-61704000D02*
X103335000Y-61704000D01*
X106215000Y-61704000D02*
X110991000Y-61704000D01*
X98566000Y-61664000D02*
X103335000Y-61664000D01*
X106215000Y-61664000D02*
X110984000Y-61664000D01*
X98574000Y-61624000D02*
X103335000Y-61624000D01*
X106215000Y-61624000D02*
X110976000Y-61624000D01*
X98583000Y-61584000D02*
X103335000Y-61584000D01*
X106215000Y-61584000D02*
X110967000Y-61584000D01*
X98591000Y-61544000D02*
X103335000Y-61544000D01*
X106215000Y-61544000D02*
X110959000Y-61544000D01*
X98600000Y-61504000D02*
X103335000Y-61504000D01*
X106215000Y-61504000D02*
X110950000Y-61504000D01*
X98609000Y-61464000D02*
X103335000Y-61464000D01*
X106215000Y-61464000D02*
X110941000Y-61464000D01*
X98619000Y-61424000D02*
X103335000Y-61424000D01*
X106215000Y-61424000D02*
X110931000Y-61424000D01*
X98629000Y-61384000D02*
X103335000Y-61384000D01*
X106215000Y-61384000D02*
X110921000Y-61384000D01*
X98638000Y-61344000D02*
X103335000Y-61344000D01*
X106215000Y-61344000D02*
X110912000Y-61344000D01*
X98649000Y-61304000D02*
X103335000Y-61304000D01*
X106215000Y-61304000D02*
X110901000Y-61304000D01*
X98659000Y-61264000D02*
X103335000Y-61264000D01*
X106215000Y-61264000D02*
X110891000Y-61264000D01*
X98670000Y-61224000D02*
X103335000Y-61224000D01*
X106215000Y-61224000D02*
X110880000Y-61224000D01*
X98681000Y-61184000D02*
X103335000Y-61184000D01*
X106215000Y-61184000D02*
X110869000Y-61184000D01*
X98692000Y-61144000D02*
X103335000Y-61144000D01*
X106215000Y-61144000D02*
X110858000Y-61144000D01*
X98704000Y-61104000D02*
X103335000Y-61104000D01*
X106215000Y-61104000D02*
X110846000Y-61104000D01*
X98716000Y-61064000D02*
X103335000Y-61064000D01*
X106215000Y-61064000D02*
X110834000Y-61064000D01*
X98728000Y-61024000D02*
X103335000Y-61024000D01*
X106215000Y-61024000D02*
X110822000Y-61024000D01*
X98741000Y-60984000D02*
X103335000Y-60984000D01*
X106215000Y-60984000D02*
X110809000Y-60984000D01*
X98754000Y-60944000D02*
X103335000Y-60944000D01*
X106215000Y-60944000D02*
X110796000Y-60944000D01*
X98767000Y-60904000D02*
X103335000Y-60904000D01*
X106215000Y-60904000D02*
X110783000Y-60904000D01*
X98780000Y-60864000D02*
X103335000Y-60864000D01*
X106215000Y-60864000D02*
X110770000Y-60864000D01*
X98794000Y-60824000D02*
X103335000Y-60824000D01*
X106215000Y-60824000D02*
X110756000Y-60824000D01*
X98808000Y-60784000D02*
X103335000Y-60784000D01*
X106215000Y-60784000D02*
X110742000Y-60784000D01*
X98822000Y-60744000D02*
X103335000Y-60744000D01*
X106215000Y-60744000D02*
X110728000Y-60744000D01*
X98836000Y-60704000D02*
X103335000Y-60704000D01*
X106215000Y-60704000D02*
X110714000Y-60704000D01*
X98851000Y-60664000D02*
X103335000Y-60664000D01*
X106215000Y-60664000D02*
X110699000Y-60664000D01*
X98867000Y-60624000D02*
X103335000Y-60624000D01*
X106215000Y-60624000D02*
X110683000Y-60624000D01*
X98882000Y-60584000D02*
X103335000Y-60584000D01*
X106215000Y-60584000D02*
X110668000Y-60584000D01*
X98898000Y-60544000D02*
X103335000Y-60544000D01*
X106215000Y-60544000D02*
X110652000Y-60544000D01*
X98914000Y-60504000D02*
X103335000Y-60504000D01*
X106215000Y-60504000D02*
X110636000Y-60504000D01*
X98930000Y-60464000D02*
X103335000Y-60464000D01*
X106215000Y-60464000D02*
X110620000Y-60464000D01*
X98947000Y-60424000D02*
X103335000Y-60424000D01*
X106215000Y-60424000D02*
X110603000Y-60424000D01*
X98964000Y-60384000D02*
X103335000Y-60384000D01*
X106215000Y-60384000D02*
X110586000Y-60384000D01*
X98982000Y-60344000D02*
X103335000Y-60344000D01*
X106215000Y-60344000D02*
X110568000Y-60344000D01*
X98999000Y-60304000D02*
X103335000Y-60304000D01*
X106215000Y-60304000D02*
X110551000Y-60304000D01*
X99017000Y-60264000D02*
X103335000Y-60264000D01*
X106215000Y-60264000D02*
X110533000Y-60264000D01*
X99036000Y-60224000D02*
X103335000Y-60224000D01*
X106215000Y-60224000D02*
X110514000Y-60224000D01*
X99054000Y-60184000D02*
X103335000Y-60184000D01*
X106215000Y-60184000D02*
X110496000Y-60184000D01*
X99073000Y-60144000D02*
X103335000Y-60144000D01*
X106215000Y-60144000D02*
X110477000Y-60144000D01*
X99093000Y-60104000D02*
X103335000Y-60104000D01*
X106215000Y-60104000D02*
X110457000Y-60104000D01*
X99113000Y-60064000D02*
X103335000Y-60064000D01*
X106215000Y-60064000D02*
X110437000Y-60064000D01*
X99133000Y-60024000D02*
X103335000Y-60024000D01*
X106215000Y-60024000D02*
X110417000Y-60024000D01*
X99153000Y-59984000D02*
X103335000Y-59984000D01*
X106215000Y-59984000D02*
X110397000Y-59984000D01*
X99174000Y-59944000D02*
X103335000Y-59944000D01*
X106215000Y-59944000D02*
X110376000Y-59944000D01*
X99195000Y-59904000D02*
X103335000Y-59904000D01*
X106215000Y-59904000D02*
X110355000Y-59904000D01*
X99217000Y-59864000D02*
X103335000Y-59864000D01*
X106215000Y-59864000D02*
X110333000Y-59864000D01*
X99239000Y-59824000D02*
X103335000Y-59824000D01*
X106215000Y-59824000D02*
X110311000Y-59824000D01*
X99261000Y-59784000D02*
X103335000Y-59784000D01*
X106215000Y-59784000D02*
X110289000Y-59784000D01*
X99284000Y-59744000D02*
X103335000Y-59744000D01*
X106215000Y-59744000D02*
X110266000Y-59744000D01*
X99307000Y-59704000D02*
X103335000Y-59704000D01*
X106215000Y-59704000D02*
X110243000Y-59704000D01*
X99330000Y-59664000D02*
X103335000Y-59664000D01*
X106215000Y-59664000D02*
X110220000Y-59664000D01*
X99354000Y-59624000D02*
X103335000Y-59624000D01*
X106215000Y-59624000D02*
X110196000Y-59624000D01*
X99378000Y-59584000D02*
X103335000Y-59584000D01*
X106215000Y-59584000D02*
X110172000Y-59584000D01*
X99403000Y-59544000D02*
X103335000Y-59544000D01*
X106215000Y-59544000D02*
X110147000Y-59544000D01*
X99428000Y-59504000D02*
X103335000Y-59504000D01*
X106215000Y-59504000D02*
X110122000Y-59504000D01*
X99453000Y-59464000D02*
X103335000Y-59464000D01*
X106215000Y-59464000D02*
X110097000Y-59464000D01*
X99479000Y-59424000D02*
X103335000Y-59424000D01*
X106215000Y-59424000D02*
X110071000Y-59424000D01*
X99505000Y-59384000D02*
X103335000Y-59384000D01*
X106215000Y-59384000D02*
X110045000Y-59384000D01*
X99532000Y-59344000D02*
X103335000Y-59344000D01*
X106215000Y-59344000D02*
X110018000Y-59344000D01*
X99559000Y-59304000D02*
X103335000Y-59304000D01*
X106215000Y-59304000D02*
X109991000Y-59304000D01*
X99587000Y-59264000D02*
X103335000Y-59264000D01*
X106215000Y-59264000D02*
X109963000Y-59264000D01*
X99615000Y-59224000D02*
X103335000Y-59224000D01*
X106215000Y-59224000D02*
X109935000Y-59224000D01*
X99644000Y-59184000D02*
X103335000Y-59184000D01*
X106215000Y-59184000D02*
X109906000Y-59184000D01*
X99673000Y-59144000D02*
X103335000Y-59144000D01*
X106215000Y-59144000D02*
X109877000Y-59144000D01*
X99702000Y-59104000D02*
X103335000Y-59104000D01*
X106215000Y-59104000D02*
X109848000Y-59104000D01*
X99732000Y-59064000D02*
X103335000Y-59064000D01*
X106215000Y-59064000D02*
X109818000Y-59064000D01*
X99763000Y-59024000D02*
X103335000Y-59024000D01*
X106215000Y-59024000D02*
X109787000Y-59024000D01*
X99793000Y-58984000D02*
X103335000Y-58984000D01*
X106215000Y-58984000D02*
X109757000Y-58984000D01*
X99825000Y-58944000D02*
X109725000Y-58944000D01*
X99857000Y-58904000D02*
X109693000Y-58904000D01*
X99890000Y-58864000D02*
X109660000Y-58864000D01*
X99923000Y-58824000D02*
X109627000Y-58824000D01*
X99956000Y-58784000D02*
X109594000Y-58784000D01*
X99990000Y-58744000D02*
X109560000Y-58744000D01*
X100025000Y-58704000D02*
X109525000Y-58704000D01*
X100061000Y-58664000D02*
X109489000Y-58664000D01*
X100097000Y-58624000D02*
X109453000Y-58624000D01*
X100133000Y-58584000D02*
X109417000Y-58584000D01*
X100170000Y-58544000D02*
X109380000Y-58544000D01*
X100208000Y-58504000D02*
X109342000Y-58504000D01*
X100247000Y-58464000D02*
X109303000Y-58464000D01*
X100286000Y-58424000D02*
X109264000Y-58424000D01*
X100326000Y-58384000D02*
X109224000Y-58384000D01*
X100367000Y-58344000D02*
X109183000Y-58344000D01*
X100408000Y-58304000D02*
X109142000Y-58304000D01*
X100450000Y-58264000D02*
X109100000Y-58264000D01*
X100493000Y-58224000D02*
X109057000Y-58224000D01*
X100537000Y-58184000D02*
X109013000Y-58184000D01*
X100581000Y-58144000D02*
X108969000Y-58144000D01*
X100627000Y-58104000D02*
X108923000Y-58104000D01*
X100673000Y-58064000D02*
X108877000Y-58064000D01*
X100720000Y-58024000D02*
X108830000Y-58024000D01*
X100768000Y-57984000D02*
X108782000Y-57984000D01*
X100818000Y-57944000D02*
X108732000Y-57944000D01*
X100868000Y-57904000D02*
X108682000Y-57904000D01*
X100919000Y-57864000D02*
X108631000Y-57864000D01*
X100971000Y-57824000D02*
X108579000Y-57824000D01*
X101025000Y-57784000D02*
X108525000Y-57784000D01*
X101079000Y-57744000D02*
X108471000Y-57744000D01*
X101135000Y-57704000D02*
X108415000Y-57704000D01*
X101192000Y-57664000D02*
X108358000Y-57664000D01*
X101251000Y-57624000D02*
X108299000Y-57624000D01*
X101311000Y-57584000D02*
X108239000Y-57584000D01*
X101373000Y-57544000D02*
X108177000Y-57544000D01*
X101436000Y-57504000D02*
X108114000Y-57504000D01*
X101500000Y-57464000D02*
X108050000Y-57464000D01*
X101567000Y-57424000D02*
X107983000Y-57424000D01*
X101635000Y-57384000D02*
X107915000Y-57384000D01*
X101706000Y-57344000D02*
X107844000Y-57344000D01*
X101779000Y-57304000D02*
X107771000Y-57304000D01*
X101854000Y-57264000D02*
X107696000Y-57264000D01*
X101931000Y-57224000D02*
X107619000Y-57224000D01*
X102011000Y-57184000D02*
X107539000Y-57184000D01*
X102094000Y-57144000D02*
X107456000Y-57144000D01*
X102181000Y-57104000D02*
X107369000Y-57104000D01*
X102271000Y-57064000D02*
X107279000Y-57064000D01*
X102365000Y-57024000D02*
X107185000Y-57024000D01*
X102463000Y-56984000D02*
X107087000Y-56984000D01*
X102566000Y-56944000D02*
X106984000Y-56944000D01*
X102675000Y-56904000D02*
X106875000Y-56904000D01*
X102791000Y-56864000D02*
X106759000Y-56864000D01*
X102914000Y-56824000D02*
X106636000Y-56824000D01*
X103047000Y-56784000D02*
X106503000Y-56784000D01*
X103192000Y-56744000D02*
X106358000Y-56744000D01*
X103353000Y-56704000D02*
X106197000Y-56704000D01*
X103534000Y-56664000D02*
X106016000Y-56664000D01*
X103747000Y-56624000D02*
X105803000Y-56624000D01*
X104018000Y-56584000D02*
X105532000Y-56584000D01*
X104458000Y-56544000D02*
X105092000Y-56544000D01*
X101200000Y-69722082D02*
X101200000Y-68472082D01*
X100575000Y-69097082D02*
X101825000Y-69097082D01*
%TO.C,C1*%
X73680000Y-62270000D02*
G75*
G03*
X73680000Y-62270000I-6370000J0D01*
G01*
X60980000Y-62270000D02*
X73640000Y-62270000D01*
X60980000Y-62230000D02*
X73640000Y-62230000D01*
X60980000Y-62190000D02*
X73640000Y-62190000D01*
X60981000Y-62150000D02*
X73639000Y-62150000D01*
X60982000Y-62110000D02*
X73638000Y-62110000D01*
X60983000Y-62070000D02*
X73637000Y-62070000D01*
X60984000Y-62030000D02*
X73636000Y-62030000D01*
X60986000Y-61990000D02*
X73634000Y-61990000D01*
X60988000Y-61950000D02*
X73632000Y-61950000D01*
X60990000Y-61910000D02*
X73630000Y-61910000D01*
X60992000Y-61870000D02*
X73628000Y-61870000D01*
X60995000Y-61830000D02*
X73625000Y-61830000D01*
X60998000Y-61790000D02*
X73622000Y-61790000D01*
X61001000Y-61750000D02*
X73619000Y-61750000D01*
X61004000Y-61710000D02*
X73616000Y-61710000D01*
X61008000Y-61670000D02*
X73612000Y-61670000D01*
X61012000Y-61630000D02*
X73608000Y-61630000D01*
X61016000Y-61590000D02*
X73604000Y-61590000D01*
X61020000Y-61549000D02*
X73600000Y-61549000D01*
X61025000Y-61509000D02*
X73595000Y-61509000D01*
X61030000Y-61469000D02*
X73590000Y-61469000D01*
X61035000Y-61429000D02*
X73585000Y-61429000D01*
X61041000Y-61389000D02*
X73579000Y-61389000D01*
X61046000Y-61349000D02*
X73574000Y-61349000D01*
X61052000Y-61309000D02*
X73568000Y-61309000D01*
X61058000Y-61269000D02*
X73562000Y-61269000D01*
X61065000Y-61229000D02*
X73555000Y-61229000D01*
X61072000Y-61189000D02*
X65870000Y-61189000D01*
X68750000Y-61189000D02*
X73548000Y-61189000D01*
X61079000Y-61149000D02*
X65870000Y-61149000D01*
X68750000Y-61149000D02*
X73541000Y-61149000D01*
X61086000Y-61109000D02*
X65870000Y-61109000D01*
X68750000Y-61109000D02*
X73534000Y-61109000D01*
X61094000Y-61069000D02*
X65870000Y-61069000D01*
X68750000Y-61069000D02*
X73526000Y-61069000D01*
X61101000Y-61029000D02*
X65870000Y-61029000D01*
X68750000Y-61029000D02*
X73519000Y-61029000D01*
X61109000Y-60989000D02*
X65870000Y-60989000D01*
X68750000Y-60989000D02*
X73511000Y-60989000D01*
X61118000Y-60949000D02*
X65870000Y-60949000D01*
X68750000Y-60949000D02*
X73502000Y-60949000D01*
X61126000Y-60909000D02*
X65870000Y-60909000D01*
X68750000Y-60909000D02*
X73494000Y-60909000D01*
X61135000Y-60869000D02*
X65870000Y-60869000D01*
X68750000Y-60869000D02*
X73485000Y-60869000D01*
X61144000Y-60829000D02*
X65870000Y-60829000D01*
X68750000Y-60829000D02*
X73476000Y-60829000D01*
X61154000Y-60789000D02*
X65870000Y-60789000D01*
X68750000Y-60789000D02*
X73466000Y-60789000D01*
X61164000Y-60749000D02*
X65870000Y-60749000D01*
X68750000Y-60749000D02*
X73456000Y-60749000D01*
X61173000Y-60709000D02*
X65870000Y-60709000D01*
X68750000Y-60709000D02*
X73447000Y-60709000D01*
X61184000Y-60669000D02*
X65870000Y-60669000D01*
X68750000Y-60669000D02*
X73436000Y-60669000D01*
X61194000Y-60629000D02*
X65870000Y-60629000D01*
X68750000Y-60629000D02*
X73426000Y-60629000D01*
X61205000Y-60589000D02*
X65870000Y-60589000D01*
X68750000Y-60589000D02*
X73415000Y-60589000D01*
X61216000Y-60549000D02*
X65870000Y-60549000D01*
X68750000Y-60549000D02*
X73404000Y-60549000D01*
X61227000Y-60509000D02*
X65870000Y-60509000D01*
X68750000Y-60509000D02*
X73393000Y-60509000D01*
X61239000Y-60469000D02*
X65870000Y-60469000D01*
X68750000Y-60469000D02*
X73381000Y-60469000D01*
X61251000Y-60429000D02*
X65870000Y-60429000D01*
X68750000Y-60429000D02*
X73369000Y-60429000D01*
X61263000Y-60389000D02*
X65870000Y-60389000D01*
X68750000Y-60389000D02*
X73357000Y-60389000D01*
X61276000Y-60349000D02*
X65870000Y-60349000D01*
X68750000Y-60349000D02*
X73344000Y-60349000D01*
X61289000Y-60309000D02*
X65870000Y-60309000D01*
X68750000Y-60309000D02*
X73331000Y-60309000D01*
X61302000Y-60269000D02*
X65870000Y-60269000D01*
X68750000Y-60269000D02*
X73318000Y-60269000D01*
X61315000Y-60229000D02*
X65870000Y-60229000D01*
X68750000Y-60229000D02*
X73305000Y-60229000D01*
X61329000Y-60189000D02*
X65870000Y-60189000D01*
X68750000Y-60189000D02*
X73291000Y-60189000D01*
X61343000Y-60149000D02*
X65870000Y-60149000D01*
X68750000Y-60149000D02*
X73277000Y-60149000D01*
X61357000Y-60109000D02*
X65870000Y-60109000D01*
X68750000Y-60109000D02*
X73263000Y-60109000D01*
X61371000Y-60069000D02*
X65870000Y-60069000D01*
X68750000Y-60069000D02*
X73249000Y-60069000D01*
X61386000Y-60029000D02*
X65870000Y-60029000D01*
X68750000Y-60029000D02*
X73234000Y-60029000D01*
X61402000Y-59989000D02*
X65870000Y-59989000D01*
X68750000Y-59989000D02*
X73218000Y-59989000D01*
X61417000Y-59949000D02*
X65870000Y-59949000D01*
X68750000Y-59949000D02*
X73203000Y-59949000D01*
X61433000Y-59909000D02*
X65870000Y-59909000D01*
X68750000Y-59909000D02*
X73187000Y-59909000D01*
X61449000Y-59869000D02*
X65870000Y-59869000D01*
X68750000Y-59869000D02*
X73171000Y-59869000D01*
X61465000Y-59829000D02*
X65870000Y-59829000D01*
X68750000Y-59829000D02*
X73155000Y-59829000D01*
X61482000Y-59789000D02*
X65870000Y-59789000D01*
X68750000Y-59789000D02*
X73138000Y-59789000D01*
X61499000Y-59749000D02*
X65870000Y-59749000D01*
X68750000Y-59749000D02*
X73121000Y-59749000D01*
X61517000Y-59709000D02*
X65870000Y-59709000D01*
X68750000Y-59709000D02*
X73103000Y-59709000D01*
X61534000Y-59669000D02*
X65870000Y-59669000D01*
X68750000Y-59669000D02*
X73086000Y-59669000D01*
X61552000Y-59629000D02*
X65870000Y-59629000D01*
X68750000Y-59629000D02*
X73068000Y-59629000D01*
X61571000Y-59589000D02*
X65870000Y-59589000D01*
X68750000Y-59589000D02*
X73049000Y-59589000D01*
X61589000Y-59549000D02*
X65870000Y-59549000D01*
X68750000Y-59549000D02*
X73031000Y-59549000D01*
X61608000Y-59509000D02*
X65870000Y-59509000D01*
X68750000Y-59509000D02*
X73012000Y-59509000D01*
X61628000Y-59469000D02*
X65870000Y-59469000D01*
X68750000Y-59469000D02*
X72992000Y-59469000D01*
X61648000Y-59429000D02*
X65870000Y-59429000D01*
X68750000Y-59429000D02*
X72972000Y-59429000D01*
X61668000Y-59389000D02*
X65870000Y-59389000D01*
X68750000Y-59389000D02*
X72952000Y-59389000D01*
X61688000Y-59349000D02*
X65870000Y-59349000D01*
X68750000Y-59349000D02*
X72932000Y-59349000D01*
X61709000Y-59309000D02*
X65870000Y-59309000D01*
X68750000Y-59309000D02*
X72911000Y-59309000D01*
X61730000Y-59269000D02*
X65870000Y-59269000D01*
X68750000Y-59269000D02*
X72890000Y-59269000D01*
X61752000Y-59229000D02*
X65870000Y-59229000D01*
X68750000Y-59229000D02*
X72868000Y-59229000D01*
X61774000Y-59189000D02*
X65870000Y-59189000D01*
X68750000Y-59189000D02*
X72846000Y-59189000D01*
X61796000Y-59149000D02*
X65870000Y-59149000D01*
X68750000Y-59149000D02*
X72824000Y-59149000D01*
X61819000Y-59109000D02*
X65870000Y-59109000D01*
X68750000Y-59109000D02*
X72801000Y-59109000D01*
X61842000Y-59069000D02*
X65870000Y-59069000D01*
X68750000Y-59069000D02*
X72778000Y-59069000D01*
X61865000Y-59029000D02*
X65870000Y-59029000D01*
X68750000Y-59029000D02*
X72755000Y-59029000D01*
X61889000Y-58989000D02*
X65870000Y-58989000D01*
X68750000Y-58989000D02*
X72731000Y-58989000D01*
X61913000Y-58949000D02*
X65870000Y-58949000D01*
X68750000Y-58949000D02*
X72707000Y-58949000D01*
X61938000Y-58909000D02*
X65870000Y-58909000D01*
X68750000Y-58909000D02*
X72682000Y-58909000D01*
X61963000Y-58869000D02*
X65870000Y-58869000D01*
X68750000Y-58869000D02*
X72657000Y-58869000D01*
X61988000Y-58829000D02*
X65870000Y-58829000D01*
X68750000Y-58829000D02*
X72632000Y-58829000D01*
X62014000Y-58789000D02*
X65870000Y-58789000D01*
X68750000Y-58789000D02*
X72606000Y-58789000D01*
X62040000Y-58749000D02*
X65870000Y-58749000D01*
X68750000Y-58749000D02*
X72580000Y-58749000D01*
X62067000Y-58709000D02*
X65870000Y-58709000D01*
X68750000Y-58709000D02*
X72553000Y-58709000D01*
X62094000Y-58669000D02*
X65870000Y-58669000D01*
X68750000Y-58669000D02*
X72526000Y-58669000D01*
X62122000Y-58629000D02*
X65870000Y-58629000D01*
X68750000Y-58629000D02*
X72498000Y-58629000D01*
X62150000Y-58589000D02*
X65870000Y-58589000D01*
X68750000Y-58589000D02*
X72470000Y-58589000D01*
X62179000Y-58549000D02*
X65870000Y-58549000D01*
X68750000Y-58549000D02*
X72441000Y-58549000D01*
X62208000Y-58509000D02*
X65870000Y-58509000D01*
X68750000Y-58509000D02*
X72412000Y-58509000D01*
X62237000Y-58469000D02*
X65870000Y-58469000D01*
X68750000Y-58469000D02*
X72383000Y-58469000D01*
X62267000Y-58429000D02*
X65870000Y-58429000D01*
X68750000Y-58429000D02*
X72353000Y-58429000D01*
X62298000Y-58389000D02*
X65870000Y-58389000D01*
X68750000Y-58389000D02*
X72322000Y-58389000D01*
X62328000Y-58349000D02*
X65870000Y-58349000D01*
X68750000Y-58349000D02*
X72292000Y-58349000D01*
X62360000Y-58309000D02*
X72260000Y-58309000D01*
X62392000Y-58269000D02*
X72228000Y-58269000D01*
X62425000Y-58229000D02*
X72195000Y-58229000D01*
X62458000Y-58189000D02*
X72162000Y-58189000D01*
X62491000Y-58149000D02*
X72129000Y-58149000D01*
X62525000Y-58109000D02*
X72095000Y-58109000D01*
X62560000Y-58069000D02*
X72060000Y-58069000D01*
X62596000Y-58029000D02*
X72024000Y-58029000D01*
X62632000Y-57989000D02*
X71988000Y-57989000D01*
X62668000Y-57949000D02*
X71952000Y-57949000D01*
X62705000Y-57909000D02*
X71915000Y-57909000D01*
X62743000Y-57869000D02*
X71877000Y-57869000D01*
X62782000Y-57829000D02*
X71838000Y-57829000D01*
X62821000Y-57789000D02*
X71799000Y-57789000D01*
X62861000Y-57749000D02*
X71759000Y-57749000D01*
X62902000Y-57709000D02*
X71718000Y-57709000D01*
X62943000Y-57669000D02*
X71677000Y-57669000D01*
X62985000Y-57629000D02*
X71635000Y-57629000D01*
X63028000Y-57589000D02*
X71592000Y-57589000D01*
X63072000Y-57549000D02*
X71548000Y-57549000D01*
X63116000Y-57509000D02*
X71504000Y-57509000D01*
X63162000Y-57469000D02*
X71458000Y-57469000D01*
X63208000Y-57429000D02*
X71412000Y-57429000D01*
X63255000Y-57389000D02*
X71365000Y-57389000D01*
X63303000Y-57349000D02*
X71317000Y-57349000D01*
X63353000Y-57309000D02*
X71267000Y-57309000D01*
X63403000Y-57269000D02*
X71217000Y-57269000D01*
X63454000Y-57229000D02*
X71166000Y-57229000D01*
X63506000Y-57189000D02*
X71114000Y-57189000D01*
X63560000Y-57149000D02*
X71060000Y-57149000D01*
X63614000Y-57109000D02*
X71006000Y-57109000D01*
X63670000Y-57069000D02*
X70950000Y-57069000D01*
X63727000Y-57029000D02*
X70893000Y-57029000D01*
X63786000Y-56989000D02*
X70834000Y-56989000D01*
X63846000Y-56949000D02*
X70774000Y-56949000D01*
X63908000Y-56909000D02*
X70712000Y-56909000D01*
X63971000Y-56869000D02*
X70649000Y-56869000D01*
X64035000Y-56829000D02*
X70585000Y-56829000D01*
X64102000Y-56789000D02*
X70518000Y-56789000D01*
X64170000Y-56749000D02*
X70450000Y-56749000D01*
X64241000Y-56709000D02*
X70379000Y-56709000D01*
X64314000Y-56669000D02*
X70306000Y-56669000D01*
X64389000Y-56629000D02*
X70231000Y-56629000D01*
X64466000Y-56589000D02*
X70154000Y-56589000D01*
X64546000Y-56549000D02*
X70074000Y-56549000D01*
X64629000Y-56509000D02*
X69991000Y-56509000D01*
X64716000Y-56469000D02*
X69904000Y-56469000D01*
X64806000Y-56429000D02*
X69814000Y-56429000D01*
X64900000Y-56389000D02*
X69720000Y-56389000D01*
X64998000Y-56349000D02*
X69622000Y-56349000D01*
X65101000Y-56309000D02*
X69519000Y-56309000D01*
X65210000Y-56269000D02*
X69410000Y-56269000D01*
X65326000Y-56229000D02*
X69294000Y-56229000D01*
X65449000Y-56189000D02*
X69171000Y-56189000D01*
X65582000Y-56149000D02*
X69038000Y-56149000D01*
X65727000Y-56109000D02*
X68893000Y-56109000D01*
X65888000Y-56069000D02*
X68732000Y-56069000D01*
X66069000Y-56029000D02*
X68551000Y-56029000D01*
X66282000Y-55989000D02*
X68338000Y-55989000D01*
X66553000Y-55949000D02*
X68067000Y-55949000D01*
X66993000Y-55909000D02*
X67627000Y-55909000D01*
X63735000Y-69087082D02*
X63735000Y-67837082D01*
X63110000Y-68462082D02*
X64360000Y-68462082D01*
%TO.C,A1*%
X105410000Y-115570000D02*
X102870000Y-115570000D01*
X102870000Y-115570000D02*
X102870000Y-118240000D01*
X105410000Y-118240000D02*
X143640000Y-118240000D01*
X100200000Y-118240000D02*
X102870000Y-118240000D01*
X102870000Y-102870000D02*
X102870000Y-100200000D01*
X102870000Y-102870000D02*
X140970000Y-102870000D01*
X140970000Y-102870000D02*
X140970000Y-100200000D01*
X105410000Y-115570000D02*
X105410000Y-118240000D01*
X105410000Y-115570000D02*
X140970000Y-115570000D01*
X140970000Y-115570000D02*
X140970000Y-118240000D01*
X143640000Y-118240000D02*
X143640000Y-100200000D01*
X143640000Y-100200000D02*
X100200000Y-100200000D01*
X100200000Y-100200000D02*
X100200000Y-118240000D01*
%TO.C,J2*%
D10*
X51432380Y-91773333D02*
X52146666Y-91773333D01*
X52289523Y-91820952D01*
X52384761Y-91916190D01*
X52432380Y-92059047D01*
X52432380Y-92154285D01*
X51527619Y-91344761D02*
X51480000Y-91297142D01*
X51432380Y-91201904D01*
X51432380Y-90963809D01*
X51480000Y-90868571D01*
X51527619Y-90820952D01*
X51622857Y-90773333D01*
X51718095Y-90773333D01*
X51860952Y-90820952D01*
X52432380Y-91392380D01*
X52432380Y-90773333D01*
%TO.C,D2*%
X90072380Y-64873095D02*
X89072380Y-64873095D01*
X89072380Y-64635000D01*
X89120000Y-64492142D01*
X89215238Y-64396904D01*
X89310476Y-64349285D01*
X89500952Y-64301666D01*
X89643809Y-64301666D01*
X89834285Y-64349285D01*
X89929523Y-64396904D01*
X90024761Y-64492142D01*
X90072380Y-64635000D01*
X90072380Y-64873095D01*
X89167619Y-63920714D02*
X89120000Y-63873095D01*
X89072380Y-63777857D01*
X89072380Y-63539761D01*
X89120000Y-63444523D01*
X89167619Y-63396904D01*
X89262857Y-63349285D01*
X89358095Y-63349285D01*
X89500952Y-63396904D01*
X90072380Y-63968333D01*
X90072380Y-63349285D01*
X91497380Y-72016904D02*
X90497380Y-72016904D01*
X91497380Y-71445476D02*
X90925952Y-71874047D01*
X90497380Y-71445476D02*
X91068809Y-72016904D01*
%TO.C,U6*%
X186452380Y-123681904D02*
X187261904Y-123681904D01*
X187357142Y-123634285D01*
X187404761Y-123586666D01*
X187452380Y-123491428D01*
X187452380Y-123300952D01*
X187404761Y-123205714D01*
X187357142Y-123158095D01*
X187261904Y-123110476D01*
X186452380Y-123110476D01*
X186452380Y-122205714D02*
X186452380Y-122396190D01*
X186500000Y-122491428D01*
X186547619Y-122539047D01*
X186690476Y-122634285D01*
X186880952Y-122681904D01*
X187261904Y-122681904D01*
X187357142Y-122634285D01*
X187404761Y-122586666D01*
X187452380Y-122491428D01*
X187452380Y-122300952D01*
X187404761Y-122205714D01*
X187357142Y-122158095D01*
X187261904Y-122110476D01*
X187023809Y-122110476D01*
X186928571Y-122158095D01*
X186880952Y-122205714D01*
X186833333Y-122300952D01*
X186833333Y-122491428D01*
X186880952Y-122586666D01*
X186928571Y-122634285D01*
X187023809Y-122681904D01*
%TO.C,U2*%
X86868095Y-113542380D02*
X86868095Y-114351904D01*
X86915714Y-114447142D01*
X86963333Y-114494761D01*
X87058571Y-114542380D01*
X87249047Y-114542380D01*
X87344285Y-114494761D01*
X87391904Y-114447142D01*
X87439523Y-114351904D01*
X87439523Y-113542380D01*
X87868095Y-113637619D02*
X87915714Y-113590000D01*
X88010952Y-113542380D01*
X88249047Y-113542380D01*
X88344285Y-113590000D01*
X88391904Y-113637619D01*
X88439523Y-113732857D01*
X88439523Y-113828095D01*
X88391904Y-113970952D01*
X87820476Y-114542380D01*
X88439523Y-114542380D01*
%TO.C,U1*%
X79473095Y-56807380D02*
X79473095Y-57616904D01*
X79520714Y-57712142D01*
X79568333Y-57759761D01*
X79663571Y-57807380D01*
X79854047Y-57807380D01*
X79949285Y-57759761D01*
X79996904Y-57712142D01*
X80044523Y-57616904D01*
X80044523Y-56807380D01*
X81044523Y-57807380D02*
X80473095Y-57807380D01*
X80758809Y-57807380D02*
X80758809Y-56807380D01*
X80663571Y-56950238D01*
X80568333Y-57045476D01*
X80473095Y-57093095D01*
%TO.C,SW4*%
X178446666Y-105084761D02*
X178589523Y-105132380D01*
X178827619Y-105132380D01*
X178922857Y-105084761D01*
X178970476Y-105037142D01*
X179018095Y-104941904D01*
X179018095Y-104846666D01*
X178970476Y-104751428D01*
X178922857Y-104703809D01*
X178827619Y-104656190D01*
X178637142Y-104608571D01*
X178541904Y-104560952D01*
X178494285Y-104513333D01*
X178446666Y-104418095D01*
X178446666Y-104322857D01*
X178494285Y-104227619D01*
X178541904Y-104180000D01*
X178637142Y-104132380D01*
X178875238Y-104132380D01*
X179018095Y-104180000D01*
X179351428Y-104132380D02*
X179589523Y-105132380D01*
X179780000Y-104418095D01*
X179970476Y-105132380D01*
X180208571Y-104132380D01*
X181018095Y-104465714D02*
X181018095Y-105132380D01*
X180780000Y-104084761D02*
X180541904Y-104799047D01*
X181160952Y-104799047D01*
%TO.C,SW3*%
X166381666Y-110164761D02*
X166524523Y-110212380D01*
X166762619Y-110212380D01*
X166857857Y-110164761D01*
X166905476Y-110117142D01*
X166953095Y-110021904D01*
X166953095Y-109926666D01*
X166905476Y-109831428D01*
X166857857Y-109783809D01*
X166762619Y-109736190D01*
X166572142Y-109688571D01*
X166476904Y-109640952D01*
X166429285Y-109593333D01*
X166381666Y-109498095D01*
X166381666Y-109402857D01*
X166429285Y-109307619D01*
X166476904Y-109260000D01*
X166572142Y-109212380D01*
X166810238Y-109212380D01*
X166953095Y-109260000D01*
X167286428Y-109212380D02*
X167524523Y-110212380D01*
X167715000Y-109498095D01*
X167905476Y-110212380D01*
X168143571Y-109212380D01*
X168429285Y-109212380D02*
X169048333Y-109212380D01*
X168715000Y-109593333D01*
X168857857Y-109593333D01*
X168953095Y-109640952D01*
X169000714Y-109688571D01*
X169048333Y-109783809D01*
X169048333Y-110021904D01*
X169000714Y-110117142D01*
X168953095Y-110164761D01*
X168857857Y-110212380D01*
X168572142Y-110212380D01*
X168476904Y-110164761D01*
X168429285Y-110117142D01*
%TO.C,SW2*%
X154316666Y-105084761D02*
X154459523Y-105132380D01*
X154697619Y-105132380D01*
X154792857Y-105084761D01*
X154840476Y-105037142D01*
X154888095Y-104941904D01*
X154888095Y-104846666D01*
X154840476Y-104751428D01*
X154792857Y-104703809D01*
X154697619Y-104656190D01*
X154507142Y-104608571D01*
X154411904Y-104560952D01*
X154364285Y-104513333D01*
X154316666Y-104418095D01*
X154316666Y-104322857D01*
X154364285Y-104227619D01*
X154411904Y-104180000D01*
X154507142Y-104132380D01*
X154745238Y-104132380D01*
X154888095Y-104180000D01*
X155221428Y-104132380D02*
X155459523Y-105132380D01*
X155650000Y-104418095D01*
X155840476Y-105132380D01*
X156078571Y-104132380D01*
X156411904Y-104227619D02*
X156459523Y-104180000D01*
X156554761Y-104132380D01*
X156792857Y-104132380D01*
X156888095Y-104180000D01*
X156935714Y-104227619D01*
X156983333Y-104322857D01*
X156983333Y-104418095D01*
X156935714Y-104560952D01*
X156364285Y-105132380D01*
X156983333Y-105132380D01*
%TO.C,SW1*%
X166381666Y-100004761D02*
X166524523Y-100052380D01*
X166762619Y-100052380D01*
X166857857Y-100004761D01*
X166905476Y-99957142D01*
X166953095Y-99861904D01*
X166953095Y-99766666D01*
X166905476Y-99671428D01*
X166857857Y-99623809D01*
X166762619Y-99576190D01*
X166572142Y-99528571D01*
X166476904Y-99480952D01*
X166429285Y-99433333D01*
X166381666Y-99338095D01*
X166381666Y-99242857D01*
X166429285Y-99147619D01*
X166476904Y-99100000D01*
X166572142Y-99052380D01*
X166810238Y-99052380D01*
X166953095Y-99100000D01*
X167286428Y-99052380D02*
X167524523Y-100052380D01*
X167715000Y-99338095D01*
X167905476Y-100052380D01*
X168143571Y-99052380D01*
X169048333Y-100052380D02*
X168476904Y-100052380D01*
X168762619Y-100052380D02*
X168762619Y-99052380D01*
X168667380Y-99195238D01*
X168572142Y-99290476D01*
X168476904Y-99338095D01*
%TO.C,RV1*%
X196432380Y-60285238D02*
X195956190Y-60618571D01*
X196432380Y-60856666D02*
X195432380Y-60856666D01*
X195432380Y-60475714D01*
X195480000Y-60380476D01*
X195527619Y-60332857D01*
X195622857Y-60285238D01*
X195765714Y-60285238D01*
X195860952Y-60332857D01*
X195908571Y-60380476D01*
X195956190Y-60475714D01*
X195956190Y-60856666D01*
X195432380Y-59999523D02*
X196432380Y-59666190D01*
X195432380Y-59332857D01*
X196432380Y-58475714D02*
X196432380Y-59047142D01*
X196432380Y-58761428D02*
X195432380Y-58761428D01*
X195575238Y-58856666D01*
X195670476Y-58951904D01*
X195718095Y-59047142D01*
%TO.C,R23*%
X94607142Y-79657380D02*
X94273809Y-79181190D01*
X94035714Y-79657380D02*
X94035714Y-78657380D01*
X94416666Y-78657380D01*
X94511904Y-78705000D01*
X94559523Y-78752619D01*
X94607142Y-78847857D01*
X94607142Y-78990714D01*
X94559523Y-79085952D01*
X94511904Y-79133571D01*
X94416666Y-79181190D01*
X94035714Y-79181190D01*
X94988095Y-78752619D02*
X95035714Y-78705000D01*
X95130952Y-78657380D01*
X95369047Y-78657380D01*
X95464285Y-78705000D01*
X95511904Y-78752619D01*
X95559523Y-78847857D01*
X95559523Y-78943095D01*
X95511904Y-79085952D01*
X94940476Y-79657380D01*
X95559523Y-79657380D01*
X95892857Y-78657380D02*
X96511904Y-78657380D01*
X96178571Y-79038333D01*
X96321428Y-79038333D01*
X96416666Y-79085952D01*
X96464285Y-79133571D01*
X96511904Y-79228809D01*
X96511904Y-79466904D01*
X96464285Y-79562142D01*
X96416666Y-79609761D01*
X96321428Y-79657380D01*
X96035714Y-79657380D01*
X95940476Y-79609761D01*
X95892857Y-79562142D01*
%TO.C,R22*%
X193667142Y-97142380D02*
X193333809Y-96666190D01*
X193095714Y-97142380D02*
X193095714Y-96142380D01*
X193476666Y-96142380D01*
X193571904Y-96190000D01*
X193619523Y-96237619D01*
X193667142Y-96332857D01*
X193667142Y-96475714D01*
X193619523Y-96570952D01*
X193571904Y-96618571D01*
X193476666Y-96666190D01*
X193095714Y-96666190D01*
X194048095Y-96237619D02*
X194095714Y-96190000D01*
X194190952Y-96142380D01*
X194429047Y-96142380D01*
X194524285Y-96190000D01*
X194571904Y-96237619D01*
X194619523Y-96332857D01*
X194619523Y-96428095D01*
X194571904Y-96570952D01*
X194000476Y-97142380D01*
X194619523Y-97142380D01*
X195000476Y-96237619D02*
X195048095Y-96190000D01*
X195143333Y-96142380D01*
X195381428Y-96142380D01*
X195476666Y-96190000D01*
X195524285Y-96237619D01*
X195571904Y-96332857D01*
X195571904Y-96428095D01*
X195524285Y-96570952D01*
X194952857Y-97142380D01*
X195571904Y-97142380D01*
%TO.C,R21*%
X179062142Y-100317380D02*
X178728809Y-99841190D01*
X178490714Y-100317380D02*
X178490714Y-99317380D01*
X178871666Y-99317380D01*
X178966904Y-99365000D01*
X179014523Y-99412619D01*
X179062142Y-99507857D01*
X179062142Y-99650714D01*
X179014523Y-99745952D01*
X178966904Y-99793571D01*
X178871666Y-99841190D01*
X178490714Y-99841190D01*
X179443095Y-99412619D02*
X179490714Y-99365000D01*
X179585952Y-99317380D01*
X179824047Y-99317380D01*
X179919285Y-99365000D01*
X179966904Y-99412619D01*
X180014523Y-99507857D01*
X180014523Y-99603095D01*
X179966904Y-99745952D01*
X179395476Y-100317380D01*
X180014523Y-100317380D01*
X180966904Y-100317380D02*
X180395476Y-100317380D01*
X180681190Y-100317380D02*
X180681190Y-99317380D01*
X180585952Y-99460238D01*
X180490714Y-99555476D01*
X180395476Y-99603095D01*
%TO.C,R20*%
X166997142Y-118732380D02*
X166663809Y-118256190D01*
X166425714Y-118732380D02*
X166425714Y-117732380D01*
X166806666Y-117732380D01*
X166901904Y-117780000D01*
X166949523Y-117827619D01*
X166997142Y-117922857D01*
X166997142Y-118065714D01*
X166949523Y-118160952D01*
X166901904Y-118208571D01*
X166806666Y-118256190D01*
X166425714Y-118256190D01*
X167378095Y-117827619D02*
X167425714Y-117780000D01*
X167520952Y-117732380D01*
X167759047Y-117732380D01*
X167854285Y-117780000D01*
X167901904Y-117827619D01*
X167949523Y-117922857D01*
X167949523Y-118018095D01*
X167901904Y-118160952D01*
X167330476Y-118732380D01*
X167949523Y-118732380D01*
X168568571Y-117732380D02*
X168663809Y-117732380D01*
X168759047Y-117780000D01*
X168806666Y-117827619D01*
X168854285Y-117922857D01*
X168901904Y-118113333D01*
X168901904Y-118351428D01*
X168854285Y-118541904D01*
X168806666Y-118637142D01*
X168759047Y-118684761D01*
X168663809Y-118732380D01*
X168568571Y-118732380D01*
X168473333Y-118684761D01*
X168425714Y-118637142D01*
X168378095Y-118541904D01*
X168330476Y-118351428D01*
X168330476Y-118113333D01*
X168378095Y-117922857D01*
X168425714Y-117827619D01*
X168473333Y-117780000D01*
X168568571Y-117732380D01*
%TO.C,R19*%
X154932142Y-105057380D02*
X154598809Y-104581190D01*
X154360714Y-105057380D02*
X154360714Y-104057380D01*
X154741666Y-104057380D01*
X154836904Y-104105000D01*
X154884523Y-104152619D01*
X154932142Y-104247857D01*
X154932142Y-104390714D01*
X154884523Y-104485952D01*
X154836904Y-104533571D01*
X154741666Y-104581190D01*
X154360714Y-104581190D01*
X155884523Y-105057380D02*
X155313095Y-105057380D01*
X155598809Y-105057380D02*
X155598809Y-104057380D01*
X155503571Y-104200238D01*
X155408333Y-104295476D01*
X155313095Y-104343095D01*
X156360714Y-105057380D02*
X156551190Y-105057380D01*
X156646428Y-105009761D01*
X156694047Y-104962142D01*
X156789285Y-104819285D01*
X156836904Y-104628809D01*
X156836904Y-104247857D01*
X156789285Y-104152619D01*
X156741666Y-104105000D01*
X156646428Y-104057380D01*
X156455952Y-104057380D01*
X156360714Y-104105000D01*
X156313095Y-104152619D01*
X156265476Y-104247857D01*
X156265476Y-104485952D01*
X156313095Y-104581190D01*
X156360714Y-104628809D01*
X156455952Y-104676428D01*
X156646428Y-104676428D01*
X156741666Y-104628809D01*
X156789285Y-104581190D01*
X156836904Y-104485952D01*
%TO.C,R18*%
X166997142Y-95237380D02*
X166663809Y-94761190D01*
X166425714Y-95237380D02*
X166425714Y-94237380D01*
X166806666Y-94237380D01*
X166901904Y-94285000D01*
X166949523Y-94332619D01*
X166997142Y-94427857D01*
X166997142Y-94570714D01*
X166949523Y-94665952D01*
X166901904Y-94713571D01*
X166806666Y-94761190D01*
X166425714Y-94761190D01*
X167949523Y-95237380D02*
X167378095Y-95237380D01*
X167663809Y-95237380D02*
X167663809Y-94237380D01*
X167568571Y-94380238D01*
X167473333Y-94475476D01*
X167378095Y-94523095D01*
X168520952Y-94665952D02*
X168425714Y-94618333D01*
X168378095Y-94570714D01*
X168330476Y-94475476D01*
X168330476Y-94427857D01*
X168378095Y-94332619D01*
X168425714Y-94285000D01*
X168520952Y-94237380D01*
X168711428Y-94237380D01*
X168806666Y-94285000D01*
X168854285Y-94332619D01*
X168901904Y-94427857D01*
X168901904Y-94475476D01*
X168854285Y-94570714D01*
X168806666Y-94618333D01*
X168711428Y-94665952D01*
X168520952Y-94665952D01*
X168425714Y-94713571D01*
X168378095Y-94761190D01*
X168330476Y-94856428D01*
X168330476Y-95046904D01*
X168378095Y-95142142D01*
X168425714Y-95189761D01*
X168520952Y-95237380D01*
X168711428Y-95237380D01*
X168806666Y-95189761D01*
X168854285Y-95142142D01*
X168901904Y-95046904D01*
X168901904Y-94856428D01*
X168854285Y-94761190D01*
X168806666Y-94713571D01*
X168711428Y-94665952D01*
%TO.C,R1*%
X105243333Y-89182380D02*
X104910000Y-88706190D01*
X104671904Y-89182380D02*
X104671904Y-88182380D01*
X105052857Y-88182380D01*
X105148095Y-88230000D01*
X105195714Y-88277619D01*
X105243333Y-88372857D01*
X105243333Y-88515714D01*
X105195714Y-88610952D01*
X105148095Y-88658571D01*
X105052857Y-88706190D01*
X104671904Y-88706190D01*
X106195714Y-89182380D02*
X105624285Y-89182380D01*
X105910000Y-89182380D02*
X105910000Y-88182380D01*
X105814761Y-88325238D01*
X105719523Y-88420476D01*
X105624285Y-88468095D01*
%TO.C,L1*%
X77938333Y-69052380D02*
X77462142Y-69052380D01*
X77462142Y-68052380D01*
X78795476Y-69052380D02*
X78224047Y-69052380D01*
X78509761Y-69052380D02*
X78509761Y-68052380D01*
X78414523Y-68195238D01*
X78319285Y-68290476D01*
X78224047Y-68338095D01*
%TO.C,K3*%
X66432690Y-111897936D02*
X66432690Y-110897936D01*
X67004119Y-111897936D02*
X66575547Y-111326508D01*
X67004119Y-110897936D02*
X66432690Y-111469365D01*
X67337452Y-110897936D02*
X67956500Y-110897936D01*
X67623166Y-111278889D01*
X67766024Y-111278889D01*
X67861262Y-111326508D01*
X67908881Y-111374127D01*
X67956500Y-111469365D01*
X67956500Y-111707460D01*
X67908881Y-111802698D01*
X67861262Y-111850317D01*
X67766024Y-111897936D01*
X67480309Y-111897936D01*
X67385071Y-111850317D01*
X67337452Y-111802698D01*
%TO.C,K2*%
X66432690Y-125232936D02*
X66432690Y-124232936D01*
X67004119Y-125232936D02*
X66575547Y-124661508D01*
X67004119Y-124232936D02*
X66432690Y-124804365D01*
X67385071Y-124328175D02*
X67432690Y-124280556D01*
X67527928Y-124232936D01*
X67766024Y-124232936D01*
X67861262Y-124280556D01*
X67908881Y-124328175D01*
X67956500Y-124423413D01*
X67956500Y-124518651D01*
X67908881Y-124661508D01*
X67337452Y-125232936D01*
X67956500Y-125232936D01*
%TO.C,K1*%
X66432690Y-97292936D02*
X66432690Y-96292936D01*
X67004119Y-97292936D02*
X66575547Y-96721508D01*
X67004119Y-96292936D02*
X66432690Y-96864365D01*
X67956500Y-97292936D02*
X67385071Y-97292936D01*
X67670786Y-97292936D02*
X67670786Y-96292936D01*
X67575547Y-96435794D01*
X67480309Y-96531032D01*
X67385071Y-96578651D01*
%TO.C,J3*%
X51432380Y-119713333D02*
X52146666Y-119713333D01*
X52289523Y-119760952D01*
X52384761Y-119856190D01*
X52432380Y-119999047D01*
X52432380Y-120094285D01*
X51432380Y-119332380D02*
X51432380Y-118713333D01*
X51813333Y-119046666D01*
X51813333Y-118903809D01*
X51860952Y-118808571D01*
X51908571Y-118760952D01*
X52003809Y-118713333D01*
X52241904Y-118713333D01*
X52337142Y-118760952D01*
X52384761Y-118808571D01*
X52432380Y-118903809D01*
X52432380Y-119189523D01*
X52384761Y-119284761D01*
X52337142Y-119332380D01*
%TO.C,J1*%
X51432380Y-63198333D02*
X52146666Y-63198333D01*
X52289523Y-63245952D01*
X52384761Y-63341190D01*
X52432380Y-63484047D01*
X52432380Y-63579285D01*
X52432380Y-62198333D02*
X52432380Y-62769761D01*
X52432380Y-62484047D02*
X51432380Y-62484047D01*
X51575238Y-62579285D01*
X51670476Y-62674523D01*
X51718095Y-62769761D01*
%TO.C,DS1*%
X116155714Y-55697380D02*
X116155714Y-54697380D01*
X116393809Y-54697380D01*
X116536666Y-54745000D01*
X116631904Y-54840238D01*
X116679523Y-54935476D01*
X116727142Y-55125952D01*
X116727142Y-55268809D01*
X116679523Y-55459285D01*
X116631904Y-55554523D01*
X116536666Y-55649761D01*
X116393809Y-55697380D01*
X116155714Y-55697380D01*
X117108095Y-55649761D02*
X117250952Y-55697380D01*
X117489047Y-55697380D01*
X117584285Y-55649761D01*
X117631904Y-55602142D01*
X117679523Y-55506904D01*
X117679523Y-55411666D01*
X117631904Y-55316428D01*
X117584285Y-55268809D01*
X117489047Y-55221190D01*
X117298571Y-55173571D01*
X117203333Y-55125952D01*
X117155714Y-55078333D01*
X117108095Y-54983095D01*
X117108095Y-54887857D01*
X117155714Y-54792619D01*
X117203333Y-54745000D01*
X117298571Y-54697380D01*
X117536666Y-54697380D01*
X117679523Y-54745000D01*
X118631904Y-55697380D02*
X118060476Y-55697380D01*
X118346190Y-55697380D02*
X118346190Y-54697380D01*
X118250952Y-54840238D01*
X118155714Y-54935476D01*
X118060476Y-54983095D01*
%TO.C,D3*%
X103401904Y-73327380D02*
X103401904Y-72327380D01*
X103640000Y-72327380D01*
X103782857Y-72375000D01*
X103878095Y-72470238D01*
X103925714Y-72565476D01*
X103973333Y-72755952D01*
X103973333Y-72898809D01*
X103925714Y-73089285D01*
X103878095Y-73184523D01*
X103782857Y-73279761D01*
X103640000Y-73327380D01*
X103401904Y-73327380D01*
X104306666Y-72327380D02*
X104925714Y-72327380D01*
X104592380Y-72708333D01*
X104735238Y-72708333D01*
X104830476Y-72755952D01*
X104878095Y-72803571D01*
X104925714Y-72898809D01*
X104925714Y-73136904D01*
X104878095Y-73232142D01*
X104830476Y-73279761D01*
X104735238Y-73327380D01*
X104449523Y-73327380D01*
X104354285Y-73279761D01*
X104306666Y-73232142D01*
%TO.C,D1*%
X53467380Y-62908095D02*
X52467380Y-62908095D01*
X52467380Y-62670000D01*
X52515000Y-62527142D01*
X52610238Y-62431904D01*
X52705476Y-62384285D01*
X52895952Y-62336666D01*
X53038809Y-62336666D01*
X53229285Y-62384285D01*
X53324523Y-62431904D01*
X53419761Y-62527142D01*
X53467380Y-62670000D01*
X53467380Y-62908095D01*
X53467380Y-61384285D02*
X53467380Y-61955714D01*
X53467380Y-61670000D02*
X52467380Y-61670000D01*
X52610238Y-61765238D01*
X52705476Y-61860476D01*
X52753095Y-61955714D01*
%TO.C,C2*%
X97632142Y-63071666D02*
X97679761Y-63119285D01*
X97727380Y-63262142D01*
X97727380Y-63357380D01*
X97679761Y-63500238D01*
X97584523Y-63595476D01*
X97489285Y-63643095D01*
X97298809Y-63690714D01*
X97155952Y-63690714D01*
X96965476Y-63643095D01*
X96870238Y-63595476D01*
X96775000Y-63500238D01*
X96727380Y-63357380D01*
X96727380Y-63262142D01*
X96775000Y-63119285D01*
X96822619Y-63071666D01*
X96822619Y-62690714D02*
X96775000Y-62643095D01*
X96727380Y-62547857D01*
X96727380Y-62309761D01*
X96775000Y-62214523D01*
X96822619Y-62166904D01*
X96917857Y-62119285D01*
X97013095Y-62119285D01*
X97155952Y-62166904D01*
X97727380Y-62738333D01*
X97727380Y-62119285D01*
%TO.C,C1*%
X60167142Y-62436666D02*
X60214761Y-62484285D01*
X60262380Y-62627142D01*
X60262380Y-62722380D01*
X60214761Y-62865238D01*
X60119523Y-62960476D01*
X60024285Y-63008095D01*
X59833809Y-63055714D01*
X59690952Y-63055714D01*
X59500476Y-63008095D01*
X59405238Y-62960476D01*
X59310000Y-62865238D01*
X59262380Y-62722380D01*
X59262380Y-62627142D01*
X59310000Y-62484285D01*
X59357619Y-62436666D01*
X60262380Y-61484285D02*
X60262380Y-62055714D01*
X60262380Y-61770000D02*
X59262380Y-61770000D01*
X59405238Y-61865238D01*
X59500476Y-61960476D01*
X59548095Y-62055714D01*
%TO.C,A1*%
X99226666Y-109934285D02*
X99226666Y-109458095D01*
X99512380Y-110029523D02*
X98512380Y-109696190D01*
X99512380Y-109362857D01*
X99512380Y-108505714D02*
X99512380Y-109077142D01*
X99512380Y-108791428D02*
X98512380Y-108791428D01*
X98655238Y-108886666D01*
X98750476Y-108981904D01*
X98798095Y-109077142D01*
%TD*%
M02*
