M48
; DRILL file {KiCad (5.1.10)-1} date 08/22/21 00:04:41
; FORMAT={-:-/ absolute / inch / decimal}
; #@! TF.CreationDate,2021-08-22T00:04:41-04:00
; #@! TF.GenerationSoftware,Kicad,Pcbnew,(5.1.10)-1
; #@! TF.FileFunction,Plated,1,2,PTH
FMAT,2
INCH
T1C0.0157
T2C0.0315
T3C0.0354
T4C0.0394
T5C0.0433
T6C0.0472
T7C0.0512
T8C0.0709
T9C0.0984
%
G90
G05
T1
X3.2Y-4.6
X3.5026Y-3.71
X5.7Y-2.8
T2
X3.3Y-3.7
X3.3Y-3.8
X3.3Y-3.9
X3.3Y-4.0
X3.3Y-4.1
X3.3Y-4.2
X3.3Y-4.3
X3.3Y-4.4
X3.6Y-3.025
X3.6Y-3.7
X3.6Y-3.8
X3.6Y-3.9
X3.6Y-4.0
X3.6Y-4.1
X3.6Y-4.2
X3.6Y-4.3
X3.6Y-4.4
X3.9Y-3.025
X4.0Y-3.4
X4.3Y-3.4
X5.975Y-4.025
X6.275Y-4.025
X6.45Y-3.825
X6.45Y-4.75
X6.75Y-3.825
X6.75Y-4.75
X6.925Y-4.025
X7.225Y-4.025
X7.5Y-3.9
X7.5Y-4.8
X7.6Y-4.8
X7.7Y-4.8
X7.8Y-3.9
X7.8Y-4.8
X7.85Y-2.25
X7.85Y-2.35
X7.85Y-2.45
T3
X4.05Y-3.025
X4.15Y-3.025
T4
X3.0Y-3.425
X3.0Y-3.725
X3.0Y-4.0
X3.0Y-4.3
X3.0Y-4.525
X3.0Y-4.825
X4.1Y-4.0
X4.1Y-4.6
X4.2Y-4.0
X4.2Y-4.6
X4.3Y-4.0
X4.3Y-4.6
X4.4Y-4.0
X4.4Y-4.6
X4.5Y-4.0
X4.5Y-4.6
X4.6Y-4.0
X4.6Y-4.6
X4.7Y-4.0
X4.7Y-4.6
X4.8Y-4.0
X4.8Y-4.6
X4.9Y-4.0
X4.9Y-4.6
X5.0Y-4.0
X5.0Y-4.6
X5.1Y-4.0
X5.1Y-4.6
X5.2Y-4.0
X5.2Y-4.6
X5.3Y-4.0
X5.3Y-4.6
X5.4Y-4.0
X5.4Y-4.6
X5.5Y-4.0
X5.5Y-4.6
T5
X3.025Y-2.625
X3.0919Y-2.4793
X3.1589Y-2.625
X3.2258Y-2.4793
X3.2927Y-2.625
X6.0Y-4.2
X6.0Y-4.3772
X6.2559Y-4.2
X6.2559Y-4.3772
X6.475Y-4.0
X6.475Y-4.1772
X6.475Y-4.4
X6.475Y-4.5772
X6.7309Y-4.0
X6.7309Y-4.1772
X6.7309Y-4.4
X6.7309Y-4.5772
X6.95Y-4.2
X6.95Y-4.3772
X7.2059Y-4.2
X7.2059Y-4.3772
T6
X2.225Y-2.2203
X2.225Y-2.3719
X2.225Y-2.5234
X2.225Y-2.675
X2.3Y-3.425
X2.3Y-4.0
X2.3Y-4.525
X2.6Y-3.425
X2.6Y-4.0
X2.6Y-4.525
X2.65Y-2.3531
X2.65Y-2.55
X4.125Y-2.3781
X4.125Y-2.575
X4.85Y-2.325
X4.95Y-2.325
X5.05Y-2.325
X5.15Y-2.325
X5.25Y-2.325
X5.35Y-2.325
X5.45Y-2.325
X5.55Y-2.325
X5.65Y-2.325
X5.75Y-2.325
X5.85Y-2.325
X5.95Y-2.325
X6.05Y-2.325
X6.15Y-2.325
X6.25Y-2.325
X6.35Y-2.325
T7
X1.8Y-2.375
X1.8Y-2.575
X1.8Y-3.5
X1.8Y-3.7
X1.8Y-4.6
X1.8Y-4.8
X3.675Y-2.225
X3.675Y-2.825
T8
X3.075Y-2.825
X3.075Y-3.125
T9
X4.6335Y-2.325
X4.6335Y-3.5455
X7.5862Y-3.5455
X7.5862Y-2.325
T0
M30
