%TF.GenerationSoftware,KiCad,Pcbnew,(6.0.5)*%
%TF.CreationDate,2022-07-11T20:41:14-04:00*%
%TF.ProjectId,Test Board,54657374-2042-46f6-9172-642e6b696361,rev?*%
%TF.SameCoordinates,Original*%
%TF.FileFunction,Soldermask,Bot*%
%TF.FilePolarity,Negative*%
%FSLAX46Y46*%
G04 Gerber Fmt 4.6, Leading zero omitted, Abs format (unit mm)*
G04 Created by KiCad (PCBNEW (6.0.5)) date 2022-07-11 20:41:14*
%MOMM*%
%LPD*%
G01*
G04 APERTURE LIST*
%ADD10C,2.780000*%
%ADD11R,2.400000X2.400000*%
%ADD12C,2.400000*%
%ADD13R,2.600000X2.600000*%
%ADD14C,2.600000*%
%ADD15C,2.000000*%
%ADD16C,1.524000*%
%ADD17C,3.500000*%
%ADD18C,1.397000*%
%ADD19R,1.500000X1.500000*%
%ADD20C,1.500000*%
%ADD21C,4.500000*%
%ADD22R,1.600000X1.600000*%
%ADD23C,1.600000*%
G04 APERTURE END LIST*
D10*
%TO.C,F1*%
X113500000Y-84040000D03*
X110100000Y-84040000D03*
X110100000Y-93960000D03*
X113500000Y-93960000D03*
%TD*%
D11*
%TO.C,C1*%
X116000000Y-60000000D03*
D12*
X116000000Y-52500000D03*
%TD*%
D11*
%TO.C,C2*%
X161500000Y-59500000D03*
D12*
X161500000Y-52000000D03*
%TD*%
D13*
%TO.C,J1*%
X113695000Y-101375000D03*
D14*
X113695000Y-106455000D03*
%TD*%
D13*
%TO.C,J2*%
X113695000Y-114375000D03*
D14*
X113695000Y-119455000D03*
%TD*%
D13*
%TO.C,J3*%
X113695000Y-127455000D03*
D14*
X113695000Y-132535000D03*
%TD*%
D15*
%TO.C,L1*%
X134690000Y-78850000D03*
X142310000Y-66150000D03*
%TD*%
D16*
%TO.C,U2*%
X252337500Y-84907000D03*
X252337500Y-87447000D03*
X249797500Y-87447000D03*
X249797500Y-84907000D03*
X247257500Y-84907000D03*
X247257500Y-87447000D03*
X244717500Y-87447000D03*
X244717500Y-84907000D03*
X242177500Y-84907000D03*
X242177500Y-87447000D03*
X239637500Y-87447000D03*
X239637500Y-84907000D03*
X237097500Y-84907000D03*
X237097500Y-87447000D03*
X234557500Y-87447000D03*
X234557500Y-84907000D03*
X232017500Y-87447000D03*
X232017500Y-84907000D03*
X229477500Y-87447000D03*
X229477500Y-84907000D03*
X226937500Y-87447000D03*
X226937500Y-84907000D03*
X224397500Y-84907000D03*
X224397500Y-87447000D03*
X221857500Y-84907000D03*
X221857500Y-87447000D03*
X219317500Y-87447000D03*
X219317500Y-84907000D03*
X216777500Y-84907000D03*
X216777500Y-87447000D03*
X214237500Y-84907000D03*
X214237500Y-87447000D03*
X214237500Y-62047000D03*
X214237500Y-64587000D03*
X216777500Y-62047000D03*
X216777500Y-64587000D03*
X219317500Y-64587000D03*
X219317500Y-62047000D03*
X221857500Y-62047000D03*
X221857500Y-64587000D03*
X224397500Y-64587000D03*
X224397500Y-62047000D03*
X226937500Y-62047000D03*
X226937500Y-64587000D03*
X229477500Y-62047000D03*
X229477500Y-64587000D03*
X232017500Y-62047000D03*
X232017500Y-64587000D03*
X234557500Y-62047000D03*
X234557500Y-64587000D03*
X237097500Y-62047000D03*
X237097500Y-64587000D03*
X239637500Y-64587000D03*
X239637500Y-62047000D03*
X242177500Y-64587000D03*
X242177500Y-62047000D03*
D17*
X181852500Y-53918000D03*
X181852500Y-96082000D03*
X256147500Y-96082000D03*
X256147500Y-53918000D03*
%TD*%
D18*
%TO.C,U3*%
X127853450Y-106270000D03*
X127853450Y-101190000D03*
X127853450Y-93570000D03*
X135473450Y-93570000D03*
X135473450Y-106270000D03*
%TD*%
%TO.C,U4*%
X135473450Y-140270000D03*
X135473450Y-127570000D03*
X127853450Y-127570000D03*
X127853450Y-135190000D03*
X127853450Y-140270000D03*
%TD*%
%TO.C,U5*%
X127853450Y-123270000D03*
X127853450Y-118190000D03*
X127853450Y-110570000D03*
X135473450Y-110570000D03*
X135473450Y-123270000D03*
%TD*%
D19*
%TO.C,U6*%
X230000000Y-105000000D03*
D20*
X230000000Y-107540000D03*
X230000000Y-110080000D03*
X230000000Y-112620000D03*
D21*
X255000000Y-108810000D03*
%TD*%
D15*
%TO.C,SW1*%
X184250000Y-122750000D03*
X177750000Y-122750000D03*
X177750000Y-127250000D03*
X184250000Y-127250000D03*
%TD*%
%TO.C,SW3*%
X173250000Y-127750000D03*
X166750000Y-127750000D03*
X173250000Y-132250000D03*
X166750000Y-132250000D03*
%TD*%
D22*
%TO.C,A1*%
X253050000Y-118947500D03*
D23*
X250510000Y-118947500D03*
X247970000Y-118947500D03*
X245430000Y-118947500D03*
X242890000Y-118947500D03*
X240350000Y-118947500D03*
X237810000Y-118947500D03*
X235270000Y-118947500D03*
X232730000Y-118947500D03*
X230190000Y-118947500D03*
X227650000Y-118947500D03*
X225110000Y-118947500D03*
X222570000Y-118947500D03*
X220030000Y-118947500D03*
X217490000Y-118947500D03*
X214950000Y-118947500D03*
X214950000Y-139267500D03*
X217490000Y-139267500D03*
X220030000Y-139267500D03*
X222570000Y-139267500D03*
X225110000Y-139267500D03*
X227650000Y-139267500D03*
X230190000Y-139267500D03*
X232730000Y-139267500D03*
X235270000Y-139267500D03*
X237810000Y-139267500D03*
X240350000Y-139267500D03*
X242890000Y-139267500D03*
%TD*%
D15*
%TO.C,SW2*%
X184250000Y-132750000D03*
X177750000Y-132750000D03*
X177750000Y-137250000D03*
X184250000Y-137250000D03*
%TD*%
%TO.C,SW4*%
X195250000Y-127750000D03*
X188750000Y-127750000D03*
X188750000Y-132250000D03*
X195250000Y-132250000D03*
%TD*%
M02*
