M48
; DRILL file {KiCad (6.0.5)} date Mon Jul 11 20:41:12 2022
; FORMAT={-:-/ absolute / inch / decimal}
; #@! TF.CreationDate,2022-07-11T20:41:12-04:00
; #@! TF.GenerationSoftware,Kicad,Pcbnew,(6.0.5)
; #@! TF.FileFunction,Plated,1,2,PTH
FMAT,2
INCH
; #@! TA.AperFunction,Plated,PTH,ViaDrill
T1C0.0157
; #@! TA.AperFunction,Plated,PTH,ComponentDrill
T2C0.0300
; #@! TA.AperFunction,Plated,PTH,ComponentDrill
T3C0.0315
; #@! TA.AperFunction,Plated,PTH,ComponentDrill
T4C0.0350
; #@! TA.AperFunction,Plated,PTH,ComponentDrill
T5C0.0394
; #@! TA.AperFunction,Plated,PTH,ComponentDrill
T6C0.0433
; #@! TA.AperFunction,Plated,PTH,ComponentDrill
T7C0.0472
; #@! TA.AperFunction,Plated,PTH,ComponentDrill
T8C0.0512
; #@! TA.AperFunction,Plated,PTH,ComponentDrill
T9C0.0701
; #@! TA.AperFunction,Plated,PTH,ComponentDrill
T10C0.0984
; #@! TA.AperFunction,Plated,PTH,ComponentDrill
T11C0.1181
%
G90
G05
T1
X6.5354Y-4.0157
X6.6929Y-3.3858
X7.126Y-4.6457
X7.7953Y-4.7638
X8.7205Y-4.3307
T2
X8.4345Y-2.4428
X8.4345Y-2.5428
X8.4345Y-3.3428
X8.4345Y-3.4428
X8.5345Y-2.4428
X8.5345Y-2.5428
X8.5345Y-3.3428
X8.5345Y-3.4428
X8.6345Y-2.4428
X8.6345Y-2.5428
X8.6345Y-3.3428
X8.6345Y-3.4428
X8.7345Y-2.4428
X8.7345Y-2.5428
X8.7345Y-3.3428
X8.7345Y-3.4428
X8.8345Y-2.4428
X8.8345Y-2.5428
X8.8345Y-3.3428
X8.8345Y-3.4428
X8.9345Y-2.4428
X8.9345Y-2.5428
X8.9345Y-3.3428
X8.9345Y-3.4428
X9.0345Y-2.4428
X9.0345Y-2.5428
X9.0345Y-3.3428
X9.0345Y-3.4428
X9.1345Y-2.4428
X9.1345Y-2.5428
X9.1345Y-3.3428
X9.1345Y-3.4428
X9.2345Y-2.4428
X9.2345Y-2.5428
X9.2345Y-3.3428
X9.2345Y-3.4428
X9.3345Y-2.4428
X9.3345Y-2.5428
X9.3345Y-3.3428
X9.3345Y-3.4428
X9.4345Y-2.4428
X9.4345Y-2.5428
X9.4345Y-3.3428
X9.4345Y-3.4428
X9.5345Y-2.4428
X9.5345Y-2.5428
X9.5345Y-3.3428
X9.5345Y-3.4428
X9.6345Y-3.3428
X9.6345Y-3.4428
X9.7345Y-3.3428
X9.7345Y-3.4428
X9.8345Y-3.3428
X9.8345Y-3.4428
X9.9345Y-3.3428
X9.9345Y-3.4428
T3
X8.4626Y-4.683
X8.4626Y-5.483
X8.5626Y-4.683
X8.5626Y-5.483
X8.6626Y-4.683
X8.6626Y-5.483
X8.7626Y-4.683
X8.7626Y-5.483
X8.8626Y-4.683
X8.8626Y-5.483
X8.9626Y-4.683
X8.9626Y-5.483
X9.0551Y-4.1339
X9.0551Y-4.2339
X9.0551Y-4.3339
X9.0551Y-4.4339
X9.0626Y-4.683
X9.0626Y-5.483
X9.1626Y-4.683
X9.1626Y-5.483
X9.2626Y-4.683
X9.2626Y-5.483
X9.3626Y-4.683
X9.3626Y-5.483
X9.4626Y-4.683
X9.4626Y-5.483
X9.5626Y-4.683
X9.5626Y-5.483
X9.6626Y-4.683
X9.7626Y-4.683
X9.8626Y-4.683
X9.9626Y-4.683
T4
X5.0336Y-3.6839
X5.0336Y-3.9839
X5.0336Y-4.1839
X5.0336Y-4.3531
X5.0336Y-4.6531
X5.0336Y-4.8531
X5.0336Y-5.0224
X5.0336Y-5.3224
X5.0336Y-5.5224
X5.3336Y-3.6839
X5.3336Y-4.1839
X5.3336Y-4.3531
X5.3336Y-4.8531
X5.3336Y-5.0224
X5.3336Y-5.5224
T5
X5.3028Y-3.1043
X5.6028Y-2.6043
T6
X6.565Y-5.0295
X6.565Y-5.2067
X6.8209Y-5.0295
X6.8209Y-5.2067
X6.998Y-4.8327
X6.998Y-5.0098
X6.998Y-5.2264
X6.998Y-5.4035
X7.2539Y-4.8327
X7.2539Y-5.0098
X7.2539Y-5.2264
X7.2539Y-5.4035
X7.4311Y-5.0295
X7.4311Y-5.2067
X7.687Y-5.0295
X7.687Y-5.2067
T7
X4.5669Y-2.0669
X4.5669Y-2.3622
X6.3583Y-2.0472
X6.3583Y-2.3425
T8
X4.4762Y-3.9911
X4.4762Y-4.1911
X4.4762Y-4.503
X4.4762Y-4.703
X4.4762Y-5.0179
X4.4762Y-5.2179
T9
X4.3346Y-3.3087
X4.3346Y-3.6992
X4.4685Y-3.3087
X4.4685Y-3.6992
T10
X7.1595Y-2.1228
X7.1595Y-3.7828
X10.0845Y-2.1228
X10.0845Y-3.7828
T11
X10.0394Y-4.2839
T0
M30
