%TF.GenerationSoftware,KiCad,Pcbnew,(6.0.5)*%
%TF.CreationDate,2022-07-11T20:41:14-04:00*%
%TF.ProjectId,Test Board,54657374-2042-46f6-9172-642e6b696361,rev?*%
%TF.SameCoordinates,Original*%
%TF.FileFunction,Legend,Top*%
%TF.FilePolarity,Positive*%
%FSLAX46Y46*%
G04 Gerber Fmt 4.6, Leading zero omitted, Abs format (unit mm)*
G04 Created by KiCad (PCBNEW (6.0.5)) date 2022-07-11 20:41:14*
%MOMM*%
%LPD*%
G01*
G04 APERTURE LIST*
%ADD10C,0.300000*%
%ADD11C,0.250000*%
%ADD12C,0.150000*%
%ADD13C,0.120000*%
%ADD14C,0.790274*%
G04 APERTURE END LIST*
D10*
X145000000Y-108971071D02*
X145000000Y-107471071D01*
X145357142Y-107471071D01*
X145571428Y-107542500D01*
X145714285Y-107685357D01*
X145785714Y-107828214D01*
X145857142Y-108113928D01*
X145857142Y-108328214D01*
X145785714Y-108613928D01*
X145714285Y-108756785D01*
X145571428Y-108899642D01*
X145357142Y-108971071D01*
X145000000Y-108971071D01*
X147071428Y-108899642D02*
X146928571Y-108971071D01*
X146642857Y-108971071D01*
X146500000Y-108899642D01*
X146428571Y-108756785D01*
X146428571Y-108185357D01*
X146500000Y-108042500D01*
X146642857Y-107971071D01*
X146928571Y-107971071D01*
X147071428Y-108042500D01*
X147142857Y-108185357D01*
X147142857Y-108328214D01*
X146428571Y-108471071D01*
X147714285Y-108899642D02*
X147857142Y-108971071D01*
X148142857Y-108971071D01*
X148285714Y-108899642D01*
X148357142Y-108756785D01*
X148357142Y-108685357D01*
X148285714Y-108542500D01*
X148142857Y-108471071D01*
X147928571Y-108471071D01*
X147785714Y-108399642D01*
X147714285Y-108256785D01*
X147714285Y-108185357D01*
X147785714Y-108042500D01*
X147928571Y-107971071D01*
X148142857Y-107971071D01*
X148285714Y-108042500D01*
X149000000Y-108971071D02*
X149000000Y-107971071D01*
X149000000Y-107471071D02*
X148928571Y-107542500D01*
X149000000Y-107613928D01*
X149071428Y-107542500D01*
X149000000Y-107471071D01*
X149000000Y-107613928D01*
X150357142Y-107971071D02*
X150357142Y-109185357D01*
X150285714Y-109328214D01*
X150214285Y-109399642D01*
X150071428Y-109471071D01*
X149857142Y-109471071D01*
X149714285Y-109399642D01*
X150357142Y-108899642D02*
X150214285Y-108971071D01*
X149928571Y-108971071D01*
X149785714Y-108899642D01*
X149714285Y-108828214D01*
X149642857Y-108685357D01*
X149642857Y-108256785D01*
X149714285Y-108113928D01*
X149785714Y-108042500D01*
X149928571Y-107971071D01*
X150214285Y-107971071D01*
X150357142Y-108042500D01*
X151071428Y-107971071D02*
X151071428Y-108971071D01*
X151071428Y-108113928D02*
X151142857Y-108042500D01*
X151285714Y-107971071D01*
X151500000Y-107971071D01*
X151642857Y-108042500D01*
X151714285Y-108185357D01*
X151714285Y-108971071D01*
X153000000Y-108899642D02*
X152857142Y-108971071D01*
X152571428Y-108971071D01*
X152428571Y-108899642D01*
X152357142Y-108756785D01*
X152357142Y-108185357D01*
X152428571Y-108042500D01*
X152571428Y-107971071D01*
X152857142Y-107971071D01*
X153000000Y-108042500D01*
X153071428Y-108185357D01*
X153071428Y-108328214D01*
X152357142Y-108471071D01*
X154357142Y-108971071D02*
X154357142Y-107471071D01*
X154357142Y-108899642D02*
X154214285Y-108971071D01*
X153928571Y-108971071D01*
X153785714Y-108899642D01*
X153714285Y-108828214D01*
X153642857Y-108685357D01*
X153642857Y-108256785D01*
X153714285Y-108113928D01*
X153785714Y-108042500D01*
X153928571Y-107971071D01*
X154214285Y-107971071D01*
X154357142Y-108042500D01*
X156214285Y-108971071D02*
X156214285Y-107471071D01*
X156214285Y-108042500D02*
X156357142Y-107971071D01*
X156642857Y-107971071D01*
X156785714Y-108042500D01*
X156857142Y-108113928D01*
X156928571Y-108256785D01*
X156928571Y-108685357D01*
X156857142Y-108828214D01*
X156785714Y-108899642D01*
X156642857Y-108971071D01*
X156357142Y-108971071D01*
X156214285Y-108899642D01*
X157428571Y-107971071D02*
X157785714Y-108971071D01*
X158142857Y-107971071D02*
X157785714Y-108971071D01*
X157642857Y-109328214D01*
X157571428Y-109399642D01*
X157428571Y-109471071D01*
X159785714Y-108542500D02*
X160500000Y-108542500D01*
X159642857Y-108971071D02*
X160142857Y-107471071D01*
X160642857Y-108971071D01*
X161142857Y-108828214D02*
X161214285Y-108899642D01*
X161142857Y-108971071D01*
X161071428Y-108899642D01*
X161142857Y-108828214D01*
X161142857Y-108971071D01*
X163000000Y-108185357D02*
X163500000Y-108185357D01*
X163714285Y-108971071D02*
X163000000Y-108971071D01*
X163000000Y-107471071D01*
X163714285Y-107471071D01*
X164571428Y-108971071D02*
X164428571Y-108899642D01*
X164357142Y-108756785D01*
X164357142Y-107471071D01*
X165785714Y-108971071D02*
X165785714Y-107471071D01*
X165785714Y-108899642D02*
X165642857Y-108971071D01*
X165357142Y-108971071D01*
X165214285Y-108899642D01*
X165142857Y-108828214D01*
X165071428Y-108685357D01*
X165071428Y-108256785D01*
X165142857Y-108113928D01*
X165214285Y-108042500D01*
X165357142Y-107971071D01*
X165642857Y-107971071D01*
X165785714Y-108042500D01*
X167071428Y-108899642D02*
X166928571Y-108971071D01*
X166642857Y-108971071D01*
X166500000Y-108899642D01*
X166428571Y-108756785D01*
X166428571Y-108185357D01*
X166500000Y-108042500D01*
X166642857Y-107971071D01*
X166928571Y-107971071D01*
X167071428Y-108042500D01*
X167142857Y-108185357D01*
X167142857Y-108328214D01*
X166428571Y-108471071D01*
X167785714Y-108971071D02*
X167785714Y-107971071D01*
X167785714Y-108256785D02*
X167857142Y-108113928D01*
X167928571Y-108042500D01*
X168071428Y-107971071D01*
X168214285Y-107971071D01*
X147892857Y-110386071D02*
X148464285Y-110386071D01*
X148107142Y-111386071D02*
X148107142Y-110100357D01*
X148178571Y-109957500D01*
X148321428Y-109886071D01*
X148464285Y-109886071D01*
X148964285Y-111386071D02*
X148964285Y-110386071D01*
X148964285Y-110671785D02*
X149035714Y-110528928D01*
X149107142Y-110457500D01*
X149250000Y-110386071D01*
X149392857Y-110386071D01*
X150464285Y-111314642D02*
X150321428Y-111386071D01*
X150035714Y-111386071D01*
X149892857Y-111314642D01*
X149821428Y-111171785D01*
X149821428Y-110600357D01*
X149892857Y-110457500D01*
X150035714Y-110386071D01*
X150321428Y-110386071D01*
X150464285Y-110457500D01*
X150535714Y-110600357D01*
X150535714Y-110743214D01*
X149821428Y-110886071D01*
X151750000Y-111314642D02*
X151607142Y-111386071D01*
X151321428Y-111386071D01*
X151178571Y-111314642D01*
X151107142Y-111171785D01*
X151107142Y-110600357D01*
X151178571Y-110457500D01*
X151321428Y-110386071D01*
X151607142Y-110386071D01*
X151750000Y-110457500D01*
X151821428Y-110600357D01*
X151821428Y-110743214D01*
X151107142Y-110886071D01*
X152464285Y-110386071D02*
X152464285Y-111886071D01*
X152464285Y-110457500D02*
X152607142Y-110386071D01*
X152892857Y-110386071D01*
X153035714Y-110457500D01*
X153107142Y-110528928D01*
X153178571Y-110671785D01*
X153178571Y-111100357D01*
X153107142Y-111243214D01*
X153035714Y-111314642D01*
X152892857Y-111386071D01*
X152607142Y-111386071D01*
X152464285Y-111314642D01*
X154035714Y-111386071D02*
X153892857Y-111314642D01*
X153821428Y-111243214D01*
X153750000Y-111100357D01*
X153750000Y-110671785D01*
X153821428Y-110528928D01*
X153892857Y-110457500D01*
X154035714Y-110386071D01*
X154250000Y-110386071D01*
X154392857Y-110457500D01*
X154464285Y-110528928D01*
X154535714Y-110671785D01*
X154535714Y-111100357D01*
X154464285Y-111243214D01*
X154392857Y-111314642D01*
X154250000Y-111386071D01*
X154035714Y-111386071D01*
X155178571Y-111386071D02*
X155178571Y-110386071D01*
X155178571Y-110671785D02*
X155250000Y-110528928D01*
X155321428Y-110457500D01*
X155464285Y-110386071D01*
X155607142Y-110386071D01*
X155892857Y-110386071D02*
X156464285Y-110386071D01*
X156107142Y-109886071D02*
X156107142Y-111171785D01*
X156178571Y-111314642D01*
X156321428Y-111386071D01*
X156464285Y-111386071D01*
X156821428Y-109886071D02*
X157821428Y-109886071D01*
X157178571Y-111386071D01*
X158392857Y-111243214D02*
X158464285Y-111314642D01*
X158392857Y-111386071D01*
X158321428Y-111314642D01*
X158392857Y-111243214D01*
X158392857Y-111386071D01*
X159035714Y-111314642D02*
X159178571Y-111386071D01*
X159464285Y-111386071D01*
X159607142Y-111314642D01*
X159678571Y-111171785D01*
X159678571Y-111100357D01*
X159607142Y-110957500D01*
X159464285Y-110886071D01*
X159250000Y-110886071D01*
X159107142Y-110814642D01*
X159035714Y-110671785D01*
X159035714Y-110600357D01*
X159107142Y-110457500D01*
X159250000Y-110386071D01*
X159464285Y-110386071D01*
X159607142Y-110457500D01*
X160321428Y-110386071D02*
X160321428Y-111886071D01*
X160321428Y-110457500D02*
X160464285Y-110386071D01*
X160750000Y-110386071D01*
X160892857Y-110457500D01*
X160964285Y-110528928D01*
X161035714Y-110671785D01*
X161035714Y-111100357D01*
X160964285Y-111243214D01*
X160892857Y-111314642D01*
X160750000Y-111386071D01*
X160464285Y-111386071D01*
X160321428Y-111314642D01*
X162321428Y-111386071D02*
X162321428Y-110600357D01*
X162250000Y-110457500D01*
X162107142Y-110386071D01*
X161821428Y-110386071D01*
X161678571Y-110457500D01*
X162321428Y-111314642D02*
X162178571Y-111386071D01*
X161821428Y-111386071D01*
X161678571Y-111314642D01*
X161607142Y-111171785D01*
X161607142Y-111028928D01*
X161678571Y-110886071D01*
X161821428Y-110814642D01*
X162178571Y-110814642D01*
X162321428Y-110743214D01*
X163678571Y-111314642D02*
X163535714Y-111386071D01*
X163250000Y-111386071D01*
X163107142Y-111314642D01*
X163035714Y-111243214D01*
X162964285Y-111100357D01*
X162964285Y-110671785D01*
X163035714Y-110528928D01*
X163107142Y-110457500D01*
X163250000Y-110386071D01*
X163535714Y-110386071D01*
X163678571Y-110457500D01*
X164892857Y-111314642D02*
X164750000Y-111386071D01*
X164464285Y-111386071D01*
X164321428Y-111314642D01*
X164250000Y-111171785D01*
X164250000Y-110600357D01*
X164321428Y-110457500D01*
X164464285Y-110386071D01*
X164750000Y-110386071D01*
X164892857Y-110457500D01*
X164964285Y-110600357D01*
X164964285Y-110743214D01*
X164250000Y-110886071D01*
D11*
X106214285Y-132952380D02*
X106214285Y-131952380D01*
X106785714Y-132952380D01*
X106785714Y-131952380D01*
X107833333Y-132857142D02*
X107785714Y-132904761D01*
X107642857Y-132952380D01*
X107547619Y-132952380D01*
X107404761Y-132904761D01*
X107309523Y-132809523D01*
X107261904Y-132714285D01*
X107214285Y-132523809D01*
X107214285Y-132380952D01*
X107261904Y-132190476D01*
X107309523Y-132095238D01*
X107404761Y-132000000D01*
X107547619Y-131952380D01*
X107642857Y-131952380D01*
X107785714Y-132000000D01*
X107833333Y-132047619D01*
D10*
X106142857Y-126404761D02*
X106619047Y-128404761D01*
X107000000Y-126976190D01*
X107380952Y-128404761D01*
X107857142Y-126404761D01*
X107000000Y-119452380D02*
X107000000Y-120404761D01*
X106333333Y-118404761D02*
X107000000Y-119452380D01*
X107666666Y-118404761D01*
X107523809Y-113500000D02*
X107333333Y-113404761D01*
X107047619Y-113404761D01*
X106761904Y-113500000D01*
X106571428Y-113690476D01*
X106476190Y-113880952D01*
X106380952Y-114261904D01*
X106380952Y-114547619D01*
X106476190Y-114928571D01*
X106571428Y-115119047D01*
X106761904Y-115309523D01*
X107047619Y-115404761D01*
X107238095Y-115404761D01*
X107523809Y-115309523D01*
X107619047Y-115214285D01*
X107619047Y-114547619D01*
X107238095Y-114547619D01*
X107619047Y-107214285D02*
X107523809Y-107309523D01*
X107238095Y-107404761D01*
X107047619Y-107404761D01*
X106761904Y-107309523D01*
X106571428Y-107119047D01*
X106476190Y-106928571D01*
X106380952Y-106547619D01*
X106380952Y-106261904D01*
X106476190Y-105880952D01*
X106571428Y-105690476D01*
X106761904Y-105500000D01*
X107047619Y-105404761D01*
X107238095Y-105404761D01*
X107523809Y-105500000D01*
X107619047Y-105595238D01*
X107619047Y-102404761D02*
X106952380Y-101452380D01*
X106476190Y-102404761D02*
X106476190Y-100404761D01*
X107238095Y-100404761D01*
X107428571Y-100500000D01*
X107523809Y-100595238D01*
X107619047Y-100785714D01*
X107619047Y-101071428D01*
X107523809Y-101261904D01*
X107428571Y-101357142D01*
X107238095Y-101452380D01*
X106476190Y-101452380D01*
D12*
%TO.C,F1*%
X107358571Y-89333333D02*
X107358571Y-89666666D01*
X107882380Y-89666666D02*
X106882380Y-89666666D01*
X106882380Y-89190476D01*
X107882380Y-88285714D02*
X107882380Y-88857142D01*
X107882380Y-88571428D02*
X106882380Y-88571428D01*
X107025238Y-88666666D01*
X107120476Y-88761904D01*
X107168095Y-88857142D01*
%TO.C,D2*%
X151761904Y-79452380D02*
X151761904Y-78452380D01*
X152000000Y-78452380D01*
X152142857Y-78500000D01*
X152238095Y-78595238D01*
X152285714Y-78690476D01*
X152333333Y-78880952D01*
X152333333Y-79023809D01*
X152285714Y-79214285D01*
X152238095Y-79309523D01*
X152142857Y-79404761D01*
X152000000Y-79452380D01*
X151761904Y-79452380D01*
X152714285Y-78547619D02*
X152761904Y-78500000D01*
X152857142Y-78452380D01*
X153095238Y-78452380D01*
X153190476Y-78500000D01*
X153238095Y-78547619D01*
X153285714Y-78642857D01*
X153285714Y-78738095D01*
X153238095Y-78880952D01*
X152666666Y-79452380D01*
X153285714Y-79452380D01*
%TO.C,C1*%
X115833333Y-66857142D02*
X115785714Y-66904761D01*
X115642857Y-66952380D01*
X115547619Y-66952380D01*
X115404761Y-66904761D01*
X115309523Y-66809523D01*
X115261904Y-66714285D01*
X115214285Y-66523809D01*
X115214285Y-66380952D01*
X115261904Y-66190476D01*
X115309523Y-66095238D01*
X115404761Y-66000000D01*
X115547619Y-65952380D01*
X115642857Y-65952380D01*
X115785714Y-66000000D01*
X115833333Y-66047619D01*
X116785714Y-66952380D02*
X116214285Y-66952380D01*
X116500000Y-66952380D02*
X116500000Y-65952380D01*
X116404761Y-66095238D01*
X116309523Y-66190476D01*
X116214285Y-66238095D01*
%TO.C,C2*%
X161333333Y-66857142D02*
X161285714Y-66904761D01*
X161142857Y-66952380D01*
X161047619Y-66952380D01*
X160904761Y-66904761D01*
X160809523Y-66809523D01*
X160761904Y-66714285D01*
X160714285Y-66523809D01*
X160714285Y-66380952D01*
X160761904Y-66190476D01*
X160809523Y-66095238D01*
X160904761Y-66000000D01*
X161047619Y-65952380D01*
X161142857Y-65952380D01*
X161285714Y-66000000D01*
X161333333Y-66047619D01*
X161714285Y-66047619D02*
X161761904Y-66000000D01*
X161857142Y-65952380D01*
X162095238Y-65952380D01*
X162190476Y-66000000D01*
X162238095Y-66047619D01*
X162285714Y-66142857D01*
X162285714Y-66238095D01*
X162238095Y-66380952D01*
X161666666Y-66952380D01*
X162285714Y-66952380D01*
%TO.C,D1*%
X123456904Y-97907380D02*
X123456904Y-96907380D01*
X123695000Y-96907380D01*
X123837857Y-96955000D01*
X123933095Y-97050238D01*
X123980714Y-97145476D01*
X124028333Y-97335952D01*
X124028333Y-97478809D01*
X123980714Y-97669285D01*
X123933095Y-97764523D01*
X123837857Y-97859761D01*
X123695000Y-97907380D01*
X123456904Y-97907380D01*
X124980714Y-97907380D02*
X124409285Y-97907380D01*
X124695000Y-97907380D02*
X124695000Y-96907380D01*
X124599761Y-97050238D01*
X124504523Y-97145476D01*
X124409285Y-97193095D01*
%TO.C,D3*%
X168632380Y-91658095D02*
X167632380Y-91658095D01*
X167632380Y-91420000D01*
X167680000Y-91277142D01*
X167775238Y-91181904D01*
X167870476Y-91134285D01*
X168060952Y-91086666D01*
X168203809Y-91086666D01*
X168394285Y-91134285D01*
X168489523Y-91181904D01*
X168584761Y-91277142D01*
X168632380Y-91420000D01*
X168632380Y-91658095D01*
X167632380Y-90753333D02*
X167632380Y-90134285D01*
X168013333Y-90467619D01*
X168013333Y-90324761D01*
X168060952Y-90229523D01*
X168108571Y-90181904D01*
X168203809Y-90134285D01*
X168441904Y-90134285D01*
X168537142Y-90181904D01*
X168584761Y-90229523D01*
X168632380Y-90324761D01*
X168632380Y-90610476D01*
X168584761Y-90705714D01*
X168537142Y-90753333D01*
%TO.C,J1*%
X119407380Y-104248333D02*
X120121666Y-104248333D01*
X120264523Y-104295952D01*
X120359761Y-104391190D01*
X120407380Y-104534047D01*
X120407380Y-104629285D01*
X120407380Y-103248333D02*
X120407380Y-103819761D01*
X120407380Y-103534047D02*
X119407380Y-103534047D01*
X119550238Y-103629285D01*
X119645476Y-103724523D01*
X119693095Y-103819761D01*
%TO.C,J2*%
X119407380Y-117248333D02*
X120121666Y-117248333D01*
X120264523Y-117295952D01*
X120359761Y-117391190D01*
X120407380Y-117534047D01*
X120407380Y-117629285D01*
X119502619Y-116819761D02*
X119455000Y-116772142D01*
X119407380Y-116676904D01*
X119407380Y-116438809D01*
X119455000Y-116343571D01*
X119502619Y-116295952D01*
X119597857Y-116248333D01*
X119693095Y-116248333D01*
X119835952Y-116295952D01*
X120407380Y-116867380D01*
X120407380Y-116248333D01*
%TO.C,J3*%
X119407380Y-130328333D02*
X120121666Y-130328333D01*
X120264523Y-130375952D01*
X120359761Y-130471190D01*
X120407380Y-130614047D01*
X120407380Y-130709285D01*
X119407380Y-129947380D02*
X119407380Y-129328333D01*
X119788333Y-129661666D01*
X119788333Y-129518809D01*
X119835952Y-129423571D01*
X119883571Y-129375952D01*
X119978809Y-129328333D01*
X120216904Y-129328333D01*
X120312142Y-129375952D01*
X120359761Y-129423571D01*
X120407380Y-129518809D01*
X120407380Y-129804523D01*
X120359761Y-129899761D01*
X120312142Y-129947380D01*
%TO.C,L1*%
X128333333Y-72452380D02*
X127857142Y-72452380D01*
X127857142Y-71452380D01*
X129190476Y-72452380D02*
X128619047Y-72452380D01*
X128904761Y-72452380D02*
X128904761Y-71452380D01*
X128809523Y-71595238D01*
X128714285Y-71690476D01*
X128619047Y-71738095D01*
%TO.C,Q1*%
X145904761Y-120547619D02*
X145809523Y-120500000D01*
X145714285Y-120404761D01*
X145571428Y-120261904D01*
X145476190Y-120214285D01*
X145380952Y-120214285D01*
X145428571Y-120452380D02*
X145333333Y-120404761D01*
X145238095Y-120309523D01*
X145190476Y-120119047D01*
X145190476Y-119785714D01*
X145238095Y-119595238D01*
X145333333Y-119500000D01*
X145428571Y-119452380D01*
X145619047Y-119452380D01*
X145714285Y-119500000D01*
X145809523Y-119595238D01*
X145857142Y-119785714D01*
X145857142Y-120119047D01*
X145809523Y-120309523D01*
X145714285Y-120404761D01*
X145619047Y-120452380D01*
X145428571Y-120452380D01*
X146809523Y-120452380D02*
X146238095Y-120452380D01*
X146523809Y-120452380D02*
X146523809Y-119452380D01*
X146428571Y-119595238D01*
X146333333Y-119690476D01*
X146238095Y-119738095D01*
%TO.C,Q2*%
X145904761Y-103547619D02*
X145809523Y-103500000D01*
X145714285Y-103404761D01*
X145571428Y-103261904D01*
X145476190Y-103214285D01*
X145380952Y-103214285D01*
X145428571Y-103452380D02*
X145333333Y-103404761D01*
X145238095Y-103309523D01*
X145190476Y-103119047D01*
X145190476Y-102785714D01*
X145238095Y-102595238D01*
X145333333Y-102500000D01*
X145428571Y-102452380D01*
X145619047Y-102452380D01*
X145714285Y-102500000D01*
X145809523Y-102595238D01*
X145857142Y-102785714D01*
X145857142Y-103119047D01*
X145809523Y-103309523D01*
X145714285Y-103404761D01*
X145619047Y-103452380D01*
X145428571Y-103452380D01*
X146238095Y-102547619D02*
X146285714Y-102500000D01*
X146380952Y-102452380D01*
X146619047Y-102452380D01*
X146714285Y-102500000D01*
X146761904Y-102547619D01*
X146809523Y-102642857D01*
X146809523Y-102738095D01*
X146761904Y-102880952D01*
X146190476Y-103452380D01*
X146809523Y-103452380D01*
%TO.C,Q3*%
X145904761Y-137547619D02*
X145809523Y-137500000D01*
X145714285Y-137404761D01*
X145571428Y-137261904D01*
X145476190Y-137214285D01*
X145380952Y-137214285D01*
X145428571Y-137452380D02*
X145333333Y-137404761D01*
X145238095Y-137309523D01*
X145190476Y-137119047D01*
X145190476Y-136785714D01*
X145238095Y-136595238D01*
X145333333Y-136500000D01*
X145428571Y-136452380D01*
X145619047Y-136452380D01*
X145714285Y-136500000D01*
X145809523Y-136595238D01*
X145857142Y-136785714D01*
X145857142Y-137119047D01*
X145809523Y-137309523D01*
X145714285Y-137404761D01*
X145619047Y-137452380D01*
X145428571Y-137452380D01*
X146190476Y-136452380D02*
X146809523Y-136452380D01*
X146476190Y-136833333D01*
X146619047Y-136833333D01*
X146714285Y-136880952D01*
X146761904Y-136928571D01*
X146809523Y-137023809D01*
X146809523Y-137261904D01*
X146761904Y-137357142D01*
X146714285Y-137404761D01*
X146619047Y-137452380D01*
X146333333Y-137452380D01*
X146238095Y-137404761D01*
X146190476Y-137357142D01*
%TO.C,R1*%
X150833333Y-120952380D02*
X150500000Y-120476190D01*
X150261904Y-120952380D02*
X150261904Y-119952380D01*
X150642857Y-119952380D01*
X150738095Y-120000000D01*
X150785714Y-120047619D01*
X150833333Y-120142857D01*
X150833333Y-120285714D01*
X150785714Y-120380952D01*
X150738095Y-120428571D01*
X150642857Y-120476190D01*
X150261904Y-120476190D01*
X151785714Y-120952380D02*
X151214285Y-120952380D01*
X151500000Y-120952380D02*
X151500000Y-119952380D01*
X151404761Y-120095238D01*
X151309523Y-120190476D01*
X151214285Y-120238095D01*
%TO.C,R2*%
X150833333Y-103952380D02*
X150500000Y-103476190D01*
X150261904Y-103952380D02*
X150261904Y-102952380D01*
X150642857Y-102952380D01*
X150738095Y-103000000D01*
X150785714Y-103047619D01*
X150833333Y-103142857D01*
X150833333Y-103285714D01*
X150785714Y-103380952D01*
X150738095Y-103428571D01*
X150642857Y-103476190D01*
X150261904Y-103476190D01*
X151214285Y-103047619D02*
X151261904Y-103000000D01*
X151357142Y-102952380D01*
X151595238Y-102952380D01*
X151690476Y-103000000D01*
X151738095Y-103047619D01*
X151785714Y-103142857D01*
X151785714Y-103238095D01*
X151738095Y-103380952D01*
X151166666Y-103952380D01*
X151785714Y-103952380D01*
%TO.C,R3*%
X150833333Y-137952380D02*
X150500000Y-137476190D01*
X150261904Y-137952380D02*
X150261904Y-136952380D01*
X150642857Y-136952380D01*
X150738095Y-137000000D01*
X150785714Y-137047619D01*
X150833333Y-137142857D01*
X150833333Y-137285714D01*
X150785714Y-137380952D01*
X150738095Y-137428571D01*
X150642857Y-137476190D01*
X150261904Y-137476190D01*
X151166666Y-136952380D02*
X151785714Y-136952380D01*
X151452380Y-137333333D01*
X151595238Y-137333333D01*
X151690476Y-137380952D01*
X151738095Y-137428571D01*
X151785714Y-137523809D01*
X151785714Y-137761904D01*
X151738095Y-137857142D01*
X151690476Y-137904761D01*
X151595238Y-137952380D01*
X151309523Y-137952380D01*
X151214285Y-137904761D01*
X151166666Y-137857142D01*
%TO.C,R4*%
X156295833Y-121452380D02*
X155962500Y-120976190D01*
X155724404Y-121452380D02*
X155724404Y-120452380D01*
X156105357Y-120452380D01*
X156200595Y-120500000D01*
X156248214Y-120547619D01*
X156295833Y-120642857D01*
X156295833Y-120785714D01*
X156248214Y-120880952D01*
X156200595Y-120928571D01*
X156105357Y-120976190D01*
X155724404Y-120976190D01*
X157152976Y-120785714D02*
X157152976Y-121452380D01*
X156914880Y-120404761D02*
X156676785Y-121119047D01*
X157295833Y-121119047D01*
%TO.C,R5*%
X156833333Y-104452380D02*
X156500000Y-103976190D01*
X156261904Y-104452380D02*
X156261904Y-103452380D01*
X156642857Y-103452380D01*
X156738095Y-103500000D01*
X156785714Y-103547619D01*
X156833333Y-103642857D01*
X156833333Y-103785714D01*
X156785714Y-103880952D01*
X156738095Y-103928571D01*
X156642857Y-103976190D01*
X156261904Y-103976190D01*
X157738095Y-103452380D02*
X157261904Y-103452380D01*
X157214285Y-103928571D01*
X157261904Y-103880952D01*
X157357142Y-103833333D01*
X157595238Y-103833333D01*
X157690476Y-103880952D01*
X157738095Y-103928571D01*
X157785714Y-104023809D01*
X157785714Y-104261904D01*
X157738095Y-104357142D01*
X157690476Y-104404761D01*
X157595238Y-104452380D01*
X157357142Y-104452380D01*
X157261904Y-104404761D01*
X157214285Y-104357142D01*
%TO.C,R6*%
X156295833Y-138452380D02*
X155962500Y-137976190D01*
X155724404Y-138452380D02*
X155724404Y-137452380D01*
X156105357Y-137452380D01*
X156200595Y-137500000D01*
X156248214Y-137547619D01*
X156295833Y-137642857D01*
X156295833Y-137785714D01*
X156248214Y-137880952D01*
X156200595Y-137928571D01*
X156105357Y-137976190D01*
X155724404Y-137976190D01*
X157152976Y-137452380D02*
X156962500Y-137452380D01*
X156867261Y-137500000D01*
X156819642Y-137547619D01*
X156724404Y-137690476D01*
X156676785Y-137880952D01*
X156676785Y-138261904D01*
X156724404Y-138357142D01*
X156772023Y-138404761D01*
X156867261Y-138452380D01*
X157057738Y-138452380D01*
X157152976Y-138404761D01*
X157200595Y-138357142D01*
X157248214Y-138261904D01*
X157248214Y-138023809D01*
X157200595Y-137928571D01*
X157152976Y-137880952D01*
X157057738Y-137833333D01*
X156867261Y-137833333D01*
X156772023Y-137880952D01*
X156724404Y-137928571D01*
X156676785Y-138023809D01*
%TO.C,R7*%
X180833333Y-115952380D02*
X180500000Y-115476190D01*
X180261904Y-115952380D02*
X180261904Y-114952380D01*
X180642857Y-114952380D01*
X180738095Y-115000000D01*
X180785714Y-115047619D01*
X180833333Y-115142857D01*
X180833333Y-115285714D01*
X180785714Y-115380952D01*
X180738095Y-115428571D01*
X180642857Y-115476190D01*
X180261904Y-115476190D01*
X181166666Y-114952380D02*
X181833333Y-114952380D01*
X181404761Y-115952380D01*
%TO.C,R8*%
X176833333Y-115952380D02*
X176500000Y-115476190D01*
X176261904Y-115952380D02*
X176261904Y-114952380D01*
X176642857Y-114952380D01*
X176738095Y-115000000D01*
X176785714Y-115047619D01*
X176833333Y-115142857D01*
X176833333Y-115285714D01*
X176785714Y-115380952D01*
X176738095Y-115428571D01*
X176642857Y-115476190D01*
X176261904Y-115476190D01*
X177404761Y-115380952D02*
X177309523Y-115333333D01*
X177261904Y-115285714D01*
X177214285Y-115190476D01*
X177214285Y-115142857D01*
X177261904Y-115047619D01*
X177309523Y-115000000D01*
X177404761Y-114952380D01*
X177595238Y-114952380D01*
X177690476Y-115000000D01*
X177738095Y-115047619D01*
X177785714Y-115142857D01*
X177785714Y-115190476D01*
X177738095Y-115285714D01*
X177690476Y-115333333D01*
X177595238Y-115380952D01*
X177404761Y-115380952D01*
X177309523Y-115428571D01*
X177261904Y-115476190D01*
X177214285Y-115571428D01*
X177214285Y-115761904D01*
X177261904Y-115857142D01*
X177309523Y-115904761D01*
X177404761Y-115952380D01*
X177595238Y-115952380D01*
X177690476Y-115904761D01*
X177738095Y-115857142D01*
X177785714Y-115761904D01*
X177785714Y-115571428D01*
X177738095Y-115476190D01*
X177690476Y-115428571D01*
X177595238Y-115380952D01*
%TO.C,R9*%
X172833333Y-115952380D02*
X172500000Y-115476190D01*
X172261904Y-115952380D02*
X172261904Y-114952380D01*
X172642857Y-114952380D01*
X172738095Y-115000000D01*
X172785714Y-115047619D01*
X172833333Y-115142857D01*
X172833333Y-115285714D01*
X172785714Y-115380952D01*
X172738095Y-115428571D01*
X172642857Y-115476190D01*
X172261904Y-115476190D01*
X173309523Y-115952380D02*
X173500000Y-115952380D01*
X173595238Y-115904761D01*
X173642857Y-115857142D01*
X173738095Y-115714285D01*
X173785714Y-115523809D01*
X173785714Y-115142857D01*
X173738095Y-115047619D01*
X173690476Y-115000000D01*
X173595238Y-114952380D01*
X173404761Y-114952380D01*
X173309523Y-115000000D01*
X173261904Y-115047619D01*
X173214285Y-115142857D01*
X173214285Y-115380952D01*
X173261904Y-115476190D01*
X173309523Y-115523809D01*
X173404761Y-115571428D01*
X173595238Y-115571428D01*
X173690476Y-115523809D01*
X173738095Y-115476190D01*
X173785714Y-115380952D01*
%TO.C,R10*%
X168357142Y-115952380D02*
X168023809Y-115476190D01*
X167785714Y-115952380D02*
X167785714Y-114952380D01*
X168166666Y-114952380D01*
X168261904Y-115000000D01*
X168309523Y-115047619D01*
X168357142Y-115142857D01*
X168357142Y-115285714D01*
X168309523Y-115380952D01*
X168261904Y-115428571D01*
X168166666Y-115476190D01*
X167785714Y-115476190D01*
X169309523Y-115952380D02*
X168738095Y-115952380D01*
X169023809Y-115952380D02*
X169023809Y-114952380D01*
X168928571Y-115095238D01*
X168833333Y-115190476D01*
X168738095Y-115238095D01*
X169928571Y-114952380D02*
X170023809Y-114952380D01*
X170119047Y-115000000D01*
X170166666Y-115047619D01*
X170214285Y-115142857D01*
X170261904Y-115333333D01*
X170261904Y-115571428D01*
X170214285Y-115761904D01*
X170166666Y-115857142D01*
X170119047Y-115904761D01*
X170023809Y-115952380D01*
X169928571Y-115952380D01*
X169833333Y-115904761D01*
X169785714Y-115857142D01*
X169738095Y-115761904D01*
X169690476Y-115571428D01*
X169690476Y-115333333D01*
X169738095Y-115142857D01*
X169785714Y-115047619D01*
X169833333Y-115000000D01*
X169928571Y-114952380D01*
%TO.C,R22*%
X220357142Y-102952380D02*
X220023809Y-102476190D01*
X219785714Y-102952380D02*
X219785714Y-101952380D01*
X220166666Y-101952380D01*
X220261904Y-102000000D01*
X220309523Y-102047619D01*
X220357142Y-102142857D01*
X220357142Y-102285714D01*
X220309523Y-102380952D01*
X220261904Y-102428571D01*
X220166666Y-102476190D01*
X219785714Y-102476190D01*
X220738095Y-102047619D02*
X220785714Y-102000000D01*
X220880952Y-101952380D01*
X221119047Y-101952380D01*
X221214285Y-102000000D01*
X221261904Y-102047619D01*
X221309523Y-102142857D01*
X221309523Y-102238095D01*
X221261904Y-102380952D01*
X220690476Y-102952380D01*
X221309523Y-102952380D01*
X221690476Y-102047619D02*
X221738095Y-102000000D01*
X221833333Y-101952380D01*
X222071428Y-101952380D01*
X222166666Y-102000000D01*
X222214285Y-102047619D01*
X222261904Y-102142857D01*
X222261904Y-102238095D01*
X222214285Y-102380952D01*
X221642857Y-102952380D01*
X222261904Y-102952380D01*
%TO.C,R23*%
X172272380Y-98562857D02*
X171796190Y-98896190D01*
X172272380Y-99134285D02*
X171272380Y-99134285D01*
X171272380Y-98753333D01*
X171320000Y-98658095D01*
X171367619Y-98610476D01*
X171462857Y-98562857D01*
X171605714Y-98562857D01*
X171700952Y-98610476D01*
X171748571Y-98658095D01*
X171796190Y-98753333D01*
X171796190Y-99134285D01*
X171367619Y-98181904D02*
X171320000Y-98134285D01*
X171272380Y-98039047D01*
X171272380Y-97800952D01*
X171320000Y-97705714D01*
X171367619Y-97658095D01*
X171462857Y-97610476D01*
X171558095Y-97610476D01*
X171700952Y-97658095D01*
X172272380Y-98229523D01*
X172272380Y-97610476D01*
X171272380Y-97277142D02*
X171272380Y-96658095D01*
X171653333Y-96991428D01*
X171653333Y-96848571D01*
X171700952Y-96753333D01*
X171748571Y-96705714D01*
X171843809Y-96658095D01*
X172081904Y-96658095D01*
X172177142Y-96705714D01*
X172224761Y-96753333D01*
X172272380Y-96848571D01*
X172272380Y-97134285D01*
X172224761Y-97229523D01*
X172177142Y-97277142D01*
%TO.C,U1*%
X130738095Y-51452380D02*
X130738095Y-52261904D01*
X130785714Y-52357142D01*
X130833333Y-52404761D01*
X130928571Y-52452380D01*
X131119047Y-52452380D01*
X131214285Y-52404761D01*
X131261904Y-52357142D01*
X131309523Y-52261904D01*
X131309523Y-51452380D01*
X132309523Y-52452380D02*
X131738095Y-52452380D01*
X132023809Y-52452380D02*
X132023809Y-51452380D01*
X131928571Y-51595238D01*
X131833333Y-51690476D01*
X131738095Y-51738095D01*
%TO.C,U2*%
X220333690Y-68571761D02*
X220333690Y-70190809D01*
X220428928Y-70381285D01*
X220524166Y-70476523D01*
X220714642Y-70571761D01*
X221095595Y-70571761D01*
X221286071Y-70476523D01*
X221381309Y-70381285D01*
X221476547Y-70190809D01*
X221476547Y-68571761D01*
X222333690Y-68762238D02*
X222428928Y-68667000D01*
X222619404Y-68571761D01*
X223095595Y-68571761D01*
X223286071Y-68667000D01*
X223381309Y-68762238D01*
X223476547Y-68952714D01*
X223476547Y-69143190D01*
X223381309Y-69428904D01*
X222238452Y-70571761D01*
X223476547Y-70571761D01*
X214857500Y-74294619D02*
X214905119Y-74247000D01*
X215000357Y-74199380D01*
X215238452Y-74199380D01*
X215333690Y-74247000D01*
X215381309Y-74294619D01*
X215428928Y-74389857D01*
X215428928Y-74485095D01*
X215381309Y-74627952D01*
X214809880Y-75199380D01*
X215428928Y-75199380D01*
X215857500Y-75104142D02*
X215905119Y-75151761D01*
X215857500Y-75199380D01*
X215809880Y-75151761D01*
X215857500Y-75104142D01*
X215857500Y-75199380D01*
X216381309Y-75199380D02*
X216571785Y-75199380D01*
X216667023Y-75151761D01*
X216714642Y-75104142D01*
X216809880Y-74961285D01*
X216857500Y-74770809D01*
X216857500Y-74389857D01*
X216809880Y-74294619D01*
X216762261Y-74247000D01*
X216667023Y-74199380D01*
X216476547Y-74199380D01*
X216381309Y-74247000D01*
X216333690Y-74294619D01*
X216286071Y-74389857D01*
X216286071Y-74627952D01*
X216333690Y-74723190D01*
X216381309Y-74770809D01*
X216476547Y-74818428D01*
X216667023Y-74818428D01*
X216762261Y-74770809D01*
X216809880Y-74723190D01*
X216857500Y-74627952D01*
X217238452Y-74199380D02*
X217238452Y-74389857D01*
X217619404Y-74199380D02*
X217619404Y-74389857D01*
X218809880Y-74675571D02*
X219143214Y-74675571D01*
X219286071Y-75199380D02*
X218809880Y-75199380D01*
X218809880Y-74199380D01*
X219286071Y-74199380D01*
X219714642Y-74818428D02*
X220476547Y-74818428D01*
X220952738Y-75199380D02*
X220952738Y-74199380D01*
X221428928Y-74532714D02*
X221428928Y-75199380D01*
X221428928Y-74627952D02*
X221476547Y-74580333D01*
X221571785Y-74532714D01*
X221714642Y-74532714D01*
X221809880Y-74580333D01*
X221857500Y-74675571D01*
X221857500Y-75199380D01*
X222333690Y-75199380D02*
X222333690Y-74199380D01*
X222428928Y-74818428D02*
X222714642Y-75199380D01*
X222714642Y-74532714D02*
X222333690Y-74913666D01*
X223905119Y-75199380D02*
X223905119Y-74199380D01*
X224143214Y-74199380D01*
X224286071Y-74247000D01*
X224381309Y-74342238D01*
X224428928Y-74437476D01*
X224476547Y-74627952D01*
X224476547Y-74770809D01*
X224428928Y-74961285D01*
X224381309Y-75056523D01*
X224286071Y-75151761D01*
X224143214Y-75199380D01*
X223905119Y-75199380D01*
X224905119Y-75199380D02*
X224905119Y-74532714D01*
X224905119Y-74199380D02*
X224857500Y-74247000D01*
X224905119Y-74294619D01*
X224952738Y-74247000D01*
X224905119Y-74199380D01*
X224905119Y-74294619D01*
X225333690Y-75151761D02*
X225428928Y-75199380D01*
X225619404Y-75199380D01*
X225714642Y-75151761D01*
X225762261Y-75056523D01*
X225762261Y-75008904D01*
X225714642Y-74913666D01*
X225619404Y-74866047D01*
X225476547Y-74866047D01*
X225381309Y-74818428D01*
X225333690Y-74723190D01*
X225333690Y-74675571D01*
X225381309Y-74580333D01*
X225476547Y-74532714D01*
X225619404Y-74532714D01*
X225714642Y-74580333D01*
X226190833Y-74532714D02*
X226190833Y-75532714D01*
X226190833Y-74580333D02*
X226286071Y-74532714D01*
X226476547Y-74532714D01*
X226571785Y-74580333D01*
X226619404Y-74627952D01*
X226667023Y-74723190D01*
X226667023Y-75008904D01*
X226619404Y-75104142D01*
X226571785Y-75151761D01*
X226476547Y-75199380D01*
X226286071Y-75199380D01*
X226190833Y-75151761D01*
X227238452Y-75199380D02*
X227143214Y-75151761D01*
X227095595Y-75056523D01*
X227095595Y-74199380D01*
X228047976Y-75199380D02*
X228047976Y-74675571D01*
X228000357Y-74580333D01*
X227905119Y-74532714D01*
X227714642Y-74532714D01*
X227619404Y-74580333D01*
X228047976Y-75151761D02*
X227952738Y-75199380D01*
X227714642Y-75199380D01*
X227619404Y-75151761D01*
X227571785Y-75056523D01*
X227571785Y-74961285D01*
X227619404Y-74866047D01*
X227714642Y-74818428D01*
X227952738Y-74818428D01*
X228047976Y-74770809D01*
X228428928Y-74532714D02*
X228667023Y-75199380D01*
X228905119Y-74532714D02*
X228667023Y-75199380D01*
X228571785Y-75437476D01*
X228524166Y-75485095D01*
X228428928Y-75532714D01*
%TO.C,U3*%
X130901545Y-107952380D02*
X130901545Y-108761904D01*
X130949164Y-108857142D01*
X130996783Y-108904761D01*
X131092021Y-108952380D01*
X131282497Y-108952380D01*
X131377735Y-108904761D01*
X131425354Y-108857142D01*
X131472973Y-108761904D01*
X131472973Y-107952380D01*
X131853926Y-107952380D02*
X132472973Y-107952380D01*
X132139640Y-108333333D01*
X132282497Y-108333333D01*
X132377735Y-108380952D01*
X132425354Y-108428571D01*
X132472973Y-108523809D01*
X132472973Y-108761904D01*
X132425354Y-108857142D01*
X132377735Y-108904761D01*
X132282497Y-108952380D01*
X131996783Y-108952380D01*
X131901545Y-108904761D01*
X131853926Y-108857142D01*
X135473450Y-109701713D02*
X135473450Y-109939809D01*
X135235354Y-109844571D02*
X135473450Y-109939809D01*
X135711545Y-109844571D01*
X135330592Y-110130285D02*
X135473450Y-109939809D01*
X135616307Y-110130285D01*
X135473450Y-109701713D02*
X135473450Y-109939809D01*
X135235354Y-109844571D02*
X135473450Y-109939809D01*
X135711545Y-109844571D01*
X135330592Y-110130285D02*
X135473450Y-109939809D01*
X135616307Y-110130285D01*
%TO.C,U4*%
X130901545Y-141952380D02*
X130901545Y-142761904D01*
X130949164Y-142857142D01*
X130996783Y-142904761D01*
X131092021Y-142952380D01*
X131282497Y-142952380D01*
X131377735Y-142904761D01*
X131425354Y-142857142D01*
X131472973Y-142761904D01*
X131472973Y-141952380D01*
X132377735Y-142285714D02*
X132377735Y-142952380D01*
X132139640Y-141904761D02*
X131901545Y-142619047D01*
X132520592Y-142619047D01*
X135473450Y-143701713D02*
X135473450Y-143939809D01*
X135235354Y-143844571D02*
X135473450Y-143939809D01*
X135711545Y-143844571D01*
X135330592Y-144130285D02*
X135473450Y-143939809D01*
X135616307Y-144130285D01*
X135473450Y-143701713D02*
X135473450Y-143939809D01*
X135235354Y-143844571D02*
X135473450Y-143939809D01*
X135711545Y-143844571D01*
X135330592Y-144130285D02*
X135473450Y-143939809D01*
X135616307Y-144130285D01*
%TO.C,U5*%
X130901545Y-124952380D02*
X130901545Y-125761904D01*
X130949164Y-125857142D01*
X130996783Y-125904761D01*
X131092021Y-125952380D01*
X131282497Y-125952380D01*
X131377735Y-125904761D01*
X131425354Y-125857142D01*
X131472973Y-125761904D01*
X131472973Y-124952380D01*
X132425354Y-124952380D02*
X131949164Y-124952380D01*
X131901545Y-125428571D01*
X131949164Y-125380952D01*
X132044402Y-125333333D01*
X132282497Y-125333333D01*
X132377735Y-125380952D01*
X132425354Y-125428571D01*
X132472973Y-125523809D01*
X132472973Y-125761904D01*
X132425354Y-125857142D01*
X132377735Y-125904761D01*
X132282497Y-125952380D01*
X132044402Y-125952380D01*
X131949164Y-125904761D01*
X131901545Y-125857142D01*
X135473450Y-126701713D02*
X135473450Y-126939809D01*
X135235354Y-126844571D02*
X135473450Y-126939809D01*
X135711545Y-126844571D01*
X135330592Y-127130285D02*
X135473450Y-126939809D01*
X135616307Y-127130285D01*
X135473450Y-126701713D02*
X135473450Y-126939809D01*
X135235354Y-126844571D02*
X135473450Y-126939809D01*
X135711545Y-126844571D01*
X135330592Y-127130285D02*
X135473450Y-126939809D01*
X135616307Y-127130285D01*
%TO.C,U6*%
X228238095Y-100952380D02*
X228238095Y-101761904D01*
X228285714Y-101857142D01*
X228333333Y-101904761D01*
X228428571Y-101952380D01*
X228619047Y-101952380D01*
X228714285Y-101904761D01*
X228761904Y-101857142D01*
X228809523Y-101761904D01*
X228809523Y-100952380D01*
X229714285Y-100952380D02*
X229523809Y-100952380D01*
X229428571Y-101000000D01*
X229380952Y-101047619D01*
X229285714Y-101190476D01*
X229238095Y-101380952D01*
X229238095Y-101761904D01*
X229285714Y-101857142D01*
X229333333Y-101904761D01*
X229428571Y-101952380D01*
X229619047Y-101952380D01*
X229714285Y-101904761D01*
X229761904Y-101857142D01*
X229809523Y-101761904D01*
X229809523Y-101523809D01*
X229761904Y-101428571D01*
X229714285Y-101380952D01*
X229619047Y-101333333D01*
X229428571Y-101333333D01*
X229333333Y-101380952D01*
X229285714Y-101428571D01*
X229238095Y-101523809D01*
%TO.C,D4*%
X139261904Y-105952380D02*
X139261904Y-104952380D01*
X139500000Y-104952380D01*
X139642857Y-105000000D01*
X139738095Y-105095238D01*
X139785714Y-105190476D01*
X139833333Y-105380952D01*
X139833333Y-105523809D01*
X139785714Y-105714285D01*
X139738095Y-105809523D01*
X139642857Y-105904761D01*
X139500000Y-105952380D01*
X139261904Y-105952380D01*
X140690476Y-105285714D02*
X140690476Y-105952380D01*
X140452380Y-104904761D02*
X140214285Y-105619047D01*
X140833333Y-105619047D01*
%TO.C,SW1*%
X179666666Y-121154761D02*
X179809523Y-121202380D01*
X180047619Y-121202380D01*
X180142857Y-121154761D01*
X180190476Y-121107142D01*
X180238095Y-121011904D01*
X180238095Y-120916666D01*
X180190476Y-120821428D01*
X180142857Y-120773809D01*
X180047619Y-120726190D01*
X179857142Y-120678571D01*
X179761904Y-120630952D01*
X179714285Y-120583333D01*
X179666666Y-120488095D01*
X179666666Y-120392857D01*
X179714285Y-120297619D01*
X179761904Y-120250000D01*
X179857142Y-120202380D01*
X180095238Y-120202380D01*
X180238095Y-120250000D01*
X180571428Y-120202380D02*
X180809523Y-121202380D01*
X181000000Y-120488095D01*
X181190476Y-121202380D01*
X181428571Y-120202380D01*
X182333333Y-121202380D02*
X181761904Y-121202380D01*
X182047619Y-121202380D02*
X182047619Y-120202380D01*
X181952380Y-120345238D01*
X181857142Y-120440476D01*
X181761904Y-120488095D01*
%TO.C,R11*%
X184357142Y-115952380D02*
X184023809Y-115476190D01*
X183785714Y-115952380D02*
X183785714Y-114952380D01*
X184166666Y-114952380D01*
X184261904Y-115000000D01*
X184309523Y-115047619D01*
X184357142Y-115142857D01*
X184357142Y-115285714D01*
X184309523Y-115380952D01*
X184261904Y-115428571D01*
X184166666Y-115476190D01*
X183785714Y-115476190D01*
X185309523Y-115952380D02*
X184738095Y-115952380D01*
X185023809Y-115952380D02*
X185023809Y-114952380D01*
X184928571Y-115095238D01*
X184833333Y-115190476D01*
X184738095Y-115238095D01*
X186261904Y-115952380D02*
X185690476Y-115952380D01*
X185976190Y-115952380D02*
X185976190Y-114952380D01*
X185880952Y-115095238D01*
X185785714Y-115190476D01*
X185690476Y-115238095D01*
%TO.C,D5*%
X139261904Y-139952380D02*
X139261904Y-138952380D01*
X139500000Y-138952380D01*
X139642857Y-139000000D01*
X139738095Y-139095238D01*
X139785714Y-139190476D01*
X139833333Y-139380952D01*
X139833333Y-139523809D01*
X139785714Y-139714285D01*
X139738095Y-139809523D01*
X139642857Y-139904761D01*
X139500000Y-139952380D01*
X139261904Y-139952380D01*
X140738095Y-138952380D02*
X140261904Y-138952380D01*
X140214285Y-139428571D01*
X140261904Y-139380952D01*
X140357142Y-139333333D01*
X140595238Y-139333333D01*
X140690476Y-139380952D01*
X140738095Y-139428571D01*
X140785714Y-139523809D01*
X140785714Y-139761904D01*
X140738095Y-139857142D01*
X140690476Y-139904761D01*
X140595238Y-139952380D01*
X140357142Y-139952380D01*
X140261904Y-139904761D01*
X140214285Y-139857142D01*
%TO.C,D6*%
X139261904Y-122952380D02*
X139261904Y-121952380D01*
X139500000Y-121952380D01*
X139642857Y-122000000D01*
X139738095Y-122095238D01*
X139785714Y-122190476D01*
X139833333Y-122380952D01*
X139833333Y-122523809D01*
X139785714Y-122714285D01*
X139738095Y-122809523D01*
X139642857Y-122904761D01*
X139500000Y-122952380D01*
X139261904Y-122952380D01*
X140690476Y-121952380D02*
X140500000Y-121952380D01*
X140404761Y-122000000D01*
X140357142Y-122047619D01*
X140261904Y-122190476D01*
X140214285Y-122380952D01*
X140214285Y-122761904D01*
X140261904Y-122857142D01*
X140309523Y-122904761D01*
X140404761Y-122952380D01*
X140595238Y-122952380D01*
X140690476Y-122904761D01*
X140738095Y-122857142D01*
X140785714Y-122761904D01*
X140785714Y-122523809D01*
X140738095Y-122428571D01*
X140690476Y-122380952D01*
X140595238Y-122333333D01*
X140404761Y-122333333D01*
X140309523Y-122380952D01*
X140261904Y-122428571D01*
X140214285Y-122523809D01*
%TO.C,SW3*%
X168666666Y-126154761D02*
X168809523Y-126202380D01*
X169047619Y-126202380D01*
X169142857Y-126154761D01*
X169190476Y-126107142D01*
X169238095Y-126011904D01*
X169238095Y-125916666D01*
X169190476Y-125821428D01*
X169142857Y-125773809D01*
X169047619Y-125726190D01*
X168857142Y-125678571D01*
X168761904Y-125630952D01*
X168714285Y-125583333D01*
X168666666Y-125488095D01*
X168666666Y-125392857D01*
X168714285Y-125297619D01*
X168761904Y-125250000D01*
X168857142Y-125202380D01*
X169095238Y-125202380D01*
X169238095Y-125250000D01*
X169571428Y-125202380D02*
X169809523Y-126202380D01*
X170000000Y-125488095D01*
X170190476Y-126202380D01*
X170428571Y-125202380D01*
X170714285Y-125202380D02*
X171333333Y-125202380D01*
X171000000Y-125583333D01*
X171142857Y-125583333D01*
X171238095Y-125630952D01*
X171285714Y-125678571D01*
X171333333Y-125773809D01*
X171333333Y-126011904D01*
X171285714Y-126107142D01*
X171238095Y-126154761D01*
X171142857Y-126202380D01*
X170857142Y-126202380D01*
X170761904Y-126154761D01*
X170714285Y-126107142D01*
%TO.C,A1*%
X260836666Y-129821785D02*
X260836666Y-129345595D01*
X261122380Y-129917023D02*
X260122380Y-129583690D01*
X261122380Y-129250357D01*
X261122380Y-128393214D02*
X261122380Y-128964642D01*
X261122380Y-128678928D02*
X260122380Y-128678928D01*
X260265238Y-128774166D01*
X260360476Y-128869404D01*
X260408095Y-128964642D01*
%TO.C,SW2*%
X179666666Y-131154761D02*
X179809523Y-131202380D01*
X180047619Y-131202380D01*
X180142857Y-131154761D01*
X180190476Y-131107142D01*
X180238095Y-131011904D01*
X180238095Y-130916666D01*
X180190476Y-130821428D01*
X180142857Y-130773809D01*
X180047619Y-130726190D01*
X179857142Y-130678571D01*
X179761904Y-130630952D01*
X179714285Y-130583333D01*
X179666666Y-130488095D01*
X179666666Y-130392857D01*
X179714285Y-130297619D01*
X179761904Y-130250000D01*
X179857142Y-130202380D01*
X180095238Y-130202380D01*
X180238095Y-130250000D01*
X180571428Y-130202380D02*
X180809523Y-131202380D01*
X181000000Y-130488095D01*
X181190476Y-131202380D01*
X181428571Y-130202380D01*
X181761904Y-130297619D02*
X181809523Y-130250000D01*
X181904761Y-130202380D01*
X182142857Y-130202380D01*
X182238095Y-130250000D01*
X182285714Y-130297619D01*
X182333333Y-130392857D01*
X182333333Y-130488095D01*
X182285714Y-130630952D01*
X181714285Y-131202380D01*
X182333333Y-131202380D01*
%TO.C,SW4*%
X190666666Y-126154761D02*
X190809523Y-126202380D01*
X191047619Y-126202380D01*
X191142857Y-126154761D01*
X191190476Y-126107142D01*
X191238095Y-126011904D01*
X191238095Y-125916666D01*
X191190476Y-125821428D01*
X191142857Y-125773809D01*
X191047619Y-125726190D01*
X190857142Y-125678571D01*
X190761904Y-125630952D01*
X190714285Y-125583333D01*
X190666666Y-125488095D01*
X190666666Y-125392857D01*
X190714285Y-125297619D01*
X190761904Y-125250000D01*
X190857142Y-125202380D01*
X191095238Y-125202380D01*
X191238095Y-125250000D01*
X191571428Y-125202380D02*
X191809523Y-126202380D01*
X192000000Y-125488095D01*
X192190476Y-126202380D01*
X192428571Y-125202380D01*
X193238095Y-125535714D02*
X193238095Y-126202380D01*
X193000000Y-125154761D02*
X192761904Y-125869047D01*
X193380952Y-125869047D01*
%TO.C,G\u002A\u002A\u002A*%
G36*
X164012370Y-82608412D02*
G01*
X164392021Y-82608476D01*
X164769338Y-82608593D01*
X165142814Y-82608764D01*
X165510942Y-82608989D01*
X165872214Y-82609268D01*
X166225123Y-82609600D01*
X166568164Y-82609987D01*
X166899828Y-82610427D01*
X167218609Y-82610920D01*
X167523000Y-82611467D01*
X167811493Y-82612068D01*
X168082582Y-82612722D01*
X168334760Y-82613430D01*
X168566520Y-82614192D01*
X168776354Y-82615006D01*
X168962756Y-82615875D01*
X169124219Y-82616796D01*
X169259236Y-82617771D01*
X169366300Y-82618800D01*
X169443904Y-82619882D01*
X169490540Y-82621017D01*
X169504800Y-82622113D01*
X169492870Y-82634493D01*
X169457604Y-82669866D01*
X169399789Y-82727457D01*
X169320212Y-82806488D01*
X169219662Y-82906184D01*
X169098925Y-83025767D01*
X168958788Y-83164461D01*
X168800039Y-83321489D01*
X168623465Y-83496075D01*
X168429852Y-83687442D01*
X168219990Y-83894814D01*
X167994664Y-84117415D01*
X167754662Y-84354467D01*
X167500771Y-84605194D01*
X167233779Y-84868820D01*
X166954473Y-85144567D01*
X166663639Y-85431660D01*
X166362066Y-85729322D01*
X166050540Y-86036777D01*
X165729849Y-86353247D01*
X165400780Y-86677956D01*
X165064121Y-87010129D01*
X164720658Y-87348987D01*
X164371179Y-87693755D01*
X164016470Y-88043656D01*
X163657321Y-88397913D01*
X163294516Y-88755751D01*
X162928845Y-89116392D01*
X162561094Y-89479060D01*
X162192050Y-89842978D01*
X161822501Y-90207369D01*
X161453234Y-90571459D01*
X161085036Y-90934468D01*
X160718694Y-91295622D01*
X160354996Y-91654144D01*
X159994729Y-92009256D01*
X159638680Y-92360183D01*
X159287636Y-92706148D01*
X158942386Y-93046374D01*
X158603715Y-93380085D01*
X158272411Y-93706504D01*
X157949262Y-94024855D01*
X157635055Y-94334362D01*
X157330577Y-94634247D01*
X157036615Y-94923733D01*
X156753957Y-95202046D01*
X156483389Y-95468407D01*
X156225699Y-95722041D01*
X155981675Y-95962171D01*
X155752103Y-96188020D01*
X155641951Y-96296361D01*
X155537242Y-96398772D01*
X155440388Y-96492399D01*
X155353938Y-96574862D01*
X155280440Y-96643783D01*
X155222439Y-96696779D01*
X155182485Y-96731472D01*
X155163124Y-96745481D01*
X155161685Y-96745095D01*
X155164045Y-96725681D01*
X155171073Y-96674863D01*
X155182462Y-96594739D01*
X155197907Y-96487403D01*
X155217102Y-96354953D01*
X155239740Y-96199485D01*
X155265516Y-96023094D01*
X155294123Y-95827876D01*
X155325255Y-95615929D01*
X155358606Y-95389348D01*
X155393870Y-95150229D01*
X155430740Y-94900668D01*
X155453785Y-94744910D01*
X155746467Y-92767753D01*
X159877378Y-88860576D01*
X164008290Y-84953400D01*
X160889145Y-84949122D01*
X160507739Y-84948594D01*
X160158760Y-84948090D01*
X159840766Y-84947593D01*
X159552319Y-84947086D01*
X159291977Y-84946552D01*
X159058301Y-84945973D01*
X158849850Y-84945333D01*
X158665183Y-84944613D01*
X158502862Y-84943798D01*
X158361445Y-84942870D01*
X158239492Y-84941811D01*
X158135562Y-84940605D01*
X158048217Y-84939234D01*
X157976015Y-84937682D01*
X157917516Y-84935930D01*
X157871280Y-84933962D01*
X157835867Y-84931761D01*
X157809836Y-84929309D01*
X157791747Y-84926589D01*
X157780161Y-84923585D01*
X157773636Y-84920278D01*
X157770732Y-84916652D01*
X157770010Y-84912690D01*
X157770000Y-84911923D01*
X157772368Y-84888313D01*
X157779149Y-84835053D01*
X157789857Y-84755491D01*
X157804006Y-84652973D01*
X157821112Y-84530846D01*
X157840688Y-84392458D01*
X157862249Y-84241155D01*
X157885310Y-84080284D01*
X157909385Y-83913192D01*
X157933989Y-83743227D01*
X157958637Y-83573734D01*
X157982842Y-83408063D01*
X158006119Y-83249558D01*
X158027984Y-83101567D01*
X158047950Y-82967438D01*
X158065531Y-82850516D01*
X158080244Y-82754150D01*
X158091601Y-82681686D01*
X158099118Y-82636471D01*
X158102166Y-82621887D01*
X158119579Y-82620703D01*
X158169320Y-82619574D01*
X158249879Y-82618499D01*
X158359751Y-82617479D01*
X158497428Y-82616514D01*
X158661404Y-82615603D01*
X158850171Y-82614746D01*
X159062222Y-82613944D01*
X159296051Y-82613196D01*
X159550150Y-82612502D01*
X159823013Y-82611862D01*
X160113132Y-82611277D01*
X160419000Y-82610746D01*
X160739112Y-82610270D01*
X161071958Y-82609847D01*
X161416033Y-82609478D01*
X161769830Y-82609164D01*
X162131841Y-82608904D01*
X162500559Y-82608697D01*
X162874479Y-82608545D01*
X163252091Y-82608447D01*
X163631891Y-82608403D01*
X164012370Y-82608412D01*
G37*
G36*
X148122820Y-88213076D02*
G01*
X148476725Y-88213113D01*
X148799604Y-88213190D01*
X149092877Y-88213322D01*
X149357964Y-88213523D01*
X149596286Y-88213805D01*
X149809263Y-88214183D01*
X149998315Y-88214670D01*
X150164863Y-88215280D01*
X150310327Y-88216025D01*
X150436126Y-88216921D01*
X150543682Y-88217981D01*
X150634415Y-88219217D01*
X150709744Y-88220644D01*
X150771091Y-88222276D01*
X150819875Y-88224125D01*
X150857517Y-88226206D01*
X150885436Y-88228533D01*
X150905054Y-88231118D01*
X150917791Y-88233975D01*
X150925066Y-88237118D01*
X150928300Y-88240562D01*
X150928934Y-88243660D01*
X150926585Y-88267079D01*
X150919914Y-88319776D01*
X150909485Y-88397823D01*
X150895859Y-88497292D01*
X150879599Y-88614257D01*
X150861270Y-88744790D01*
X150841432Y-88884964D01*
X150820650Y-89030851D01*
X150799485Y-89178525D01*
X150778502Y-89324057D01*
X150758262Y-89463520D01*
X150739329Y-89592988D01*
X150722265Y-89708532D01*
X150707634Y-89806225D01*
X150695998Y-89882141D01*
X150687919Y-89932351D01*
X150683970Y-89952907D01*
X150676460Y-89956005D01*
X150655425Y-89958833D01*
X150619458Y-89961407D01*
X150567152Y-89963741D01*
X150497099Y-89965851D01*
X150407891Y-89967753D01*
X150298123Y-89969461D01*
X150166385Y-89970991D01*
X150011273Y-89972358D01*
X149831377Y-89973578D01*
X149625290Y-89974665D01*
X149391607Y-89975636D01*
X149128918Y-89976506D01*
X148835818Y-89977289D01*
X148510898Y-89978002D01*
X148352196Y-89978307D01*
X146028350Y-89982600D01*
X145778814Y-91709800D01*
X145744480Y-91947423D01*
X145711523Y-92175458D01*
X145680265Y-92391688D01*
X145651025Y-92593894D01*
X145624126Y-92779861D01*
X145599888Y-92947369D01*
X145578632Y-93094202D01*
X145560679Y-93218143D01*
X145546350Y-93316973D01*
X145535966Y-93388476D01*
X145529847Y-93430434D01*
X145528240Y-93441234D01*
X145511628Y-93442050D01*
X145464312Y-93442815D01*
X145389455Y-93443513D01*
X145290219Y-93444128D01*
X145169768Y-93444645D01*
X145031263Y-93445049D01*
X144877867Y-93445325D01*
X144712744Y-93445457D01*
X144654366Y-93445467D01*
X143781532Y-93445467D01*
X143791241Y-93390434D01*
X143794716Y-93367619D01*
X143802717Y-93313156D01*
X143814974Y-93228919D01*
X143831216Y-93116786D01*
X143851174Y-92978631D01*
X143874578Y-92816333D01*
X143901157Y-92631765D01*
X143930642Y-92426806D01*
X143962762Y-92203330D01*
X143997248Y-91963215D01*
X144033830Y-91708336D01*
X144072237Y-91440569D01*
X144112200Y-91161791D01*
X144153449Y-90873877D01*
X144164688Y-90795400D01*
X144206162Y-90505997D01*
X144246404Y-90225621D01*
X144285144Y-89956117D01*
X144322117Y-89699327D01*
X144357053Y-89457096D01*
X144389687Y-89231267D01*
X144419750Y-89023684D01*
X144446976Y-88836190D01*
X144471096Y-88670628D01*
X144491843Y-88528842D01*
X144508950Y-88412676D01*
X144522150Y-88323974D01*
X144531174Y-88264578D01*
X144535756Y-88236332D01*
X144536215Y-88234233D01*
X144543274Y-88231580D01*
X144563227Y-88229143D01*
X144597287Y-88226915D01*
X144646671Y-88224888D01*
X144712593Y-88223053D01*
X144796267Y-88221402D01*
X144898908Y-88219929D01*
X145021732Y-88218623D01*
X145165953Y-88217479D01*
X145332785Y-88216486D01*
X145523444Y-88215638D01*
X145739145Y-88214926D01*
X145981101Y-88214343D01*
X146250529Y-88213880D01*
X146548642Y-88213529D01*
X146876656Y-88213282D01*
X147235785Y-88213132D01*
X147627244Y-88213070D01*
X147736469Y-88213067D01*
X148122820Y-88213076D01*
G37*
G36*
X156095445Y-85317507D02*
G01*
X156462572Y-85317632D01*
X156798261Y-85317850D01*
X157103728Y-85318170D01*
X157380186Y-85318598D01*
X157628851Y-85319145D01*
X157850937Y-85319816D01*
X158047658Y-85320621D01*
X158220230Y-85321568D01*
X158369867Y-85322664D01*
X158497784Y-85323918D01*
X158605194Y-85325337D01*
X158693314Y-85326931D01*
X158763356Y-85328706D01*
X158816537Y-85330671D01*
X158854071Y-85332833D01*
X158877171Y-85335202D01*
X158887054Y-85337785D01*
X158887623Y-85338634D01*
X158885347Y-85358021D01*
X158878729Y-85408591D01*
X158868096Y-85487981D01*
X158853775Y-85593831D01*
X158836091Y-85723778D01*
X158815372Y-85875461D01*
X158791945Y-86046520D01*
X158766135Y-86234591D01*
X158738269Y-86437315D01*
X158708674Y-86652330D01*
X158677676Y-86877273D01*
X158645602Y-87109785D01*
X158612779Y-87347503D01*
X158579533Y-87588066D01*
X158546190Y-87829112D01*
X158513077Y-88068281D01*
X158480521Y-88303210D01*
X158448848Y-88531538D01*
X158418385Y-88750905D01*
X158389458Y-88958948D01*
X158362394Y-89153306D01*
X158337519Y-89331617D01*
X158315161Y-89491521D01*
X158295644Y-89630655D01*
X158279297Y-89746659D01*
X158266445Y-89837171D01*
X158257416Y-89899830D01*
X158252535Y-89932273D01*
X158251871Y-89936034D01*
X158243488Y-89974134D01*
X155915478Y-89974134D01*
X155613190Y-89974242D01*
X155325673Y-89974560D01*
X155054499Y-89975077D01*
X154801242Y-89975783D01*
X154567475Y-89976669D01*
X154354772Y-89977723D01*
X154164705Y-89978936D01*
X153998849Y-89980297D01*
X153858776Y-89981797D01*
X153746060Y-89983424D01*
X153662274Y-89985169D01*
X153608992Y-89987022D01*
X153587786Y-89988972D01*
X153587467Y-89989247D01*
X153585102Y-90007761D01*
X153578223Y-90057545D01*
X153567150Y-90136345D01*
X153552204Y-90241913D01*
X153533708Y-90371997D01*
X153511981Y-90524346D01*
X153487346Y-90696709D01*
X153460124Y-90886835D01*
X153430636Y-91092474D01*
X153399203Y-91311374D01*
X153366146Y-91541285D01*
X153341934Y-91709509D01*
X153307921Y-91945862D01*
X153275305Y-92172803D01*
X153244406Y-92388081D01*
X153215546Y-92589444D01*
X153189045Y-92774642D01*
X153165226Y-92941422D01*
X153144409Y-93087533D01*
X153126916Y-93210724D01*
X153113068Y-93308743D01*
X153103187Y-93379339D01*
X153097593Y-93420261D01*
X153096400Y-93430062D01*
X153079874Y-93433330D01*
X153031924Y-93436300D01*
X152954990Y-93438930D01*
X152851514Y-93441176D01*
X152723936Y-93442996D01*
X152574699Y-93444347D01*
X152406244Y-93445185D01*
X152224334Y-93445467D01*
X152024296Y-93445325D01*
X151855729Y-93444857D01*
X151716234Y-93444004D01*
X151603416Y-93442704D01*
X151514878Y-93440898D01*
X151448224Y-93438523D01*
X151401058Y-93435520D01*
X151370983Y-93431827D01*
X151355603Y-93427385D01*
X151352267Y-93423377D01*
X151354621Y-93404767D01*
X151361471Y-93354856D01*
X151372500Y-93275864D01*
X151387391Y-93170013D01*
X151405825Y-93039525D01*
X151427485Y-92886621D01*
X151452053Y-92713522D01*
X151479213Y-92522449D01*
X151508645Y-92315624D01*
X151540033Y-92095269D01*
X151573060Y-91863603D01*
X151607407Y-91622850D01*
X151642757Y-91375230D01*
X151678792Y-91122964D01*
X151715195Y-90868274D01*
X151751648Y-90613381D01*
X151787834Y-90360507D01*
X151823435Y-90111872D01*
X151858133Y-89869698D01*
X151891612Y-89636207D01*
X151923552Y-89413619D01*
X151953637Y-89204157D01*
X151981550Y-89010041D01*
X152006972Y-88833492D01*
X152029586Y-88676733D01*
X152049074Y-88541984D01*
X152065119Y-88431467D01*
X152077403Y-88347402D01*
X152085609Y-88292012D01*
X152089316Y-88268100D01*
X152098868Y-88213067D01*
X156718058Y-88213067D01*
X156728546Y-88141100D01*
X156733652Y-88106066D01*
X156742920Y-88042482D01*
X156755627Y-87955312D01*
X156771049Y-87849519D01*
X156788463Y-87730066D01*
X156807145Y-87601915D01*
X156811263Y-87573669D01*
X156829240Y-87448230D01*
X156845031Y-87333913D01*
X156858099Y-87234931D01*
X156867910Y-87155500D01*
X156873931Y-87099832D01*
X156875624Y-87072142D01*
X156875191Y-87069902D01*
X156857572Y-87068905D01*
X156808040Y-87067942D01*
X156728551Y-87067020D01*
X156621058Y-87066147D01*
X156487518Y-87065329D01*
X156329883Y-87064573D01*
X156150109Y-87063886D01*
X155950150Y-87063276D01*
X155731961Y-87062749D01*
X155497496Y-87062313D01*
X155248709Y-87061975D01*
X154987556Y-87061740D01*
X154715991Y-87061618D01*
X154566778Y-87061600D01*
X154241300Y-87061587D01*
X153948015Y-87061531D01*
X153685251Y-87061411D01*
X153451335Y-87061204D01*
X153244594Y-87060888D01*
X153063356Y-87060441D01*
X152905946Y-87059841D01*
X152770693Y-87059065D01*
X152655923Y-87058091D01*
X152559963Y-87056897D01*
X152481142Y-87055461D01*
X152417785Y-87053760D01*
X152368219Y-87051772D01*
X152330773Y-87049475D01*
X152303772Y-87046846D01*
X152285544Y-87043864D01*
X152274417Y-87040506D01*
X152268717Y-87036750D01*
X152266771Y-87032573D01*
X152266667Y-87031007D01*
X152269009Y-87008598D01*
X152275728Y-86956023D01*
X152286361Y-86876632D01*
X152300444Y-86773777D01*
X152317516Y-86650811D01*
X152337112Y-86511084D01*
X152358771Y-86357949D01*
X152382029Y-86194757D01*
X152385200Y-86172600D01*
X152408584Y-86009021D01*
X152430438Y-85855627D01*
X152450302Y-85715682D01*
X152467716Y-85592450D01*
X152482220Y-85489194D01*
X152493356Y-85409178D01*
X152500662Y-85355666D01*
X152503679Y-85331921D01*
X152503734Y-85331127D01*
X152520392Y-85329731D01*
X152569265Y-85328375D01*
X152648703Y-85327065D01*
X152757054Y-85325808D01*
X152892666Y-85324612D01*
X153053889Y-85323484D01*
X153239072Y-85322430D01*
X153446562Y-85321457D01*
X153674710Y-85320574D01*
X153921863Y-85319786D01*
X154186370Y-85319101D01*
X154466581Y-85318526D01*
X154760844Y-85318068D01*
X155067507Y-85317734D01*
X155384920Y-85317532D01*
X155695667Y-85317467D01*
X156095445Y-85317507D01*
G37*
G36*
X150149568Y-85320436D02*
G01*
X150376987Y-85320583D01*
X150583719Y-85320805D01*
X150768095Y-85321098D01*
X150928446Y-85321463D01*
X151063104Y-85321898D01*
X151170400Y-85322401D01*
X151248665Y-85322972D01*
X151296231Y-85323607D01*
X151311411Y-85324233D01*
X151313898Y-85341576D01*
X151311171Y-85389993D01*
X151303184Y-85469854D01*
X151289892Y-85581527D01*
X151271251Y-85725382D01*
X151247217Y-85901787D01*
X151217743Y-86111111D01*
X151206140Y-86192178D01*
X151182220Y-86358692D01*
X151159803Y-86514762D01*
X151139339Y-86657237D01*
X151121283Y-86782964D01*
X151106087Y-86888792D01*
X151094202Y-86971570D01*
X151086083Y-87028146D01*
X151082181Y-87055368D01*
X151081897Y-87057367D01*
X151065180Y-87057799D01*
X151016249Y-87058220D01*
X150936753Y-87058625D01*
X150828345Y-87059015D01*
X150692675Y-87059386D01*
X150531395Y-87059735D01*
X150346157Y-87060062D01*
X150138612Y-87060363D01*
X149910411Y-87060637D01*
X149663205Y-87060881D01*
X149398645Y-87061093D01*
X149118384Y-87061272D01*
X148824073Y-87061414D01*
X148517362Y-87061517D01*
X148199903Y-87061580D01*
X147888363Y-87061600D01*
X144695392Y-87061600D01*
X144706133Y-86989634D01*
X144710673Y-86958496D01*
X144719469Y-86897493D01*
X144731997Y-86810286D01*
X144747732Y-86700536D01*
X144766150Y-86571905D01*
X144786726Y-86428055D01*
X144808935Y-86272647D01*
X144830475Y-86121800D01*
X144944075Y-85325934D01*
X148118537Y-85321589D01*
X148444050Y-85321181D01*
X148760555Y-85320856D01*
X149066384Y-85320613D01*
X149359869Y-85320451D01*
X149639340Y-85320368D01*
X149903129Y-85320364D01*
X150149568Y-85320436D01*
G37*
D13*
%TO.C,F1*%
X115270000Y-80900000D02*
X108330000Y-80900000D01*
X109800000Y-90600000D02*
X109800000Y-87400000D01*
X113800000Y-87400000D02*
X113800000Y-90600000D01*
X108330000Y-97100000D02*
X115270000Y-97100000D01*
X108330000Y-80900000D02*
X108330000Y-97100000D01*
X111800000Y-89750000D02*
X111800000Y-88250000D01*
X115270000Y-97100000D02*
X115270000Y-80900000D01*
%TO.C,D2*%
X149075000Y-72745000D02*
X149075000Y-74245000D01*
X155975000Y-72745000D02*
X155975000Y-74245000D01*
X149345000Y-74245000D02*
X149345000Y-77075000D01*
X155975000Y-74245000D02*
X155705000Y-74245000D01*
X149075000Y-74245000D02*
X149345000Y-74245000D01*
X155705000Y-74245000D02*
X155705000Y-75345000D01*
%TO.C,C1*%
X113004000Y-47650000D02*
X118996000Y-47650000D01*
X107593000Y-52809000D02*
X114560000Y-52809000D01*
X107577000Y-52849000D02*
X114560000Y-52849000D01*
X117440000Y-53209000D02*
X124559000Y-53209000D01*
X117440000Y-52329000D02*
X124195000Y-52329000D01*
X109278000Y-50129000D02*
X122722000Y-50129000D01*
X113241000Y-47570000D02*
X118759000Y-47570000D01*
X117440000Y-51329000D02*
X123640000Y-51329000D01*
X110442000Y-49049000D02*
X121558000Y-49049000D01*
X112131000Y-48010000D02*
X119869000Y-48010000D01*
X109582000Y-49809000D02*
X122418000Y-49809000D01*
X107610000Y-52769000D02*
X114560000Y-52769000D01*
X107455000Y-53169000D02*
X114560000Y-53169000D01*
X107986000Y-51969000D02*
X114560000Y-51969000D01*
X106966000Y-55329000D02*
X125034000Y-55329000D01*
X117440000Y-53289000D02*
X124587000Y-53289000D01*
X107731000Y-52489000D02*
X114560000Y-52489000D01*
X106942000Y-55610000D02*
X125058000Y-55610000D01*
X117440000Y-52809000D02*
X124407000Y-52809000D01*
X117440000Y-51369000D02*
X123665000Y-51369000D01*
X117440000Y-51649000D02*
X123835000Y-51649000D01*
X111810000Y-48169000D02*
X120190000Y-48169000D01*
X110765000Y-48809000D02*
X121235000Y-48809000D01*
X107514000Y-53009000D02*
X114560000Y-53009000D01*
X109830000Y-49569000D02*
X122170000Y-49569000D01*
X117440000Y-53929000D02*
X124780000Y-53929000D01*
X111887000Y-48129000D02*
X120113000Y-48129000D01*
X106932000Y-55770000D02*
X125068000Y-55770000D01*
X107749000Y-52449000D02*
X114560000Y-52449000D01*
X106962000Y-55369000D02*
X125038000Y-55369000D01*
X108386000Y-51289000D02*
X114560000Y-51289000D01*
X117440000Y-52289000D02*
X124176000Y-52289000D01*
X107713000Y-52529000D02*
X114560000Y-52529000D01*
X106999000Y-55049000D02*
X125001000Y-55049000D01*
X108780000Y-50729000D02*
X123220000Y-50729000D01*
X109918000Y-49489000D02*
X122082000Y-49489000D01*
X108720000Y-50809000D02*
X123280000Y-50809000D01*
X117440000Y-52369000D02*
X124214000Y-52369000D01*
X107767000Y-52409000D02*
X114560000Y-52409000D01*
X107028000Y-54849000D02*
X124972000Y-54849000D01*
X117440000Y-51809000D02*
X123927000Y-51809000D01*
X111588000Y-48289000D02*
X120412000Y-48289000D01*
X111059000Y-48609000D02*
X120941000Y-48609000D01*
X108236000Y-51529000D02*
X114560000Y-51529000D01*
X112304000Y-47930000D02*
X119696000Y-47930000D01*
X111735000Y-48209000D02*
X120265000Y-48209000D01*
X106930000Y-55810000D02*
X125070000Y-55810000D01*
X107034000Y-54809000D02*
X124966000Y-54809000D01*
X108520000Y-51089000D02*
X114560000Y-51089000D01*
X112786000Y-47730000D02*
X119214000Y-47730000D01*
X117440000Y-52529000D02*
X124287000Y-52529000D01*
X117440000Y-53009000D02*
X124486000Y-53009000D01*
X117440000Y-51769000D02*
X123904000Y-51769000D01*
X112683000Y-47770000D02*
X119317000Y-47770000D01*
X108904000Y-50569000D02*
X123096000Y-50569000D01*
X108575000Y-51009000D02*
X123425000Y-51009000D01*
X117440000Y-53609000D02*
X124690000Y-53609000D01*
X110494000Y-49009000D02*
X121506000Y-49009000D01*
X117440000Y-52609000D02*
X124323000Y-52609000D01*
X110053000Y-49369000D02*
X121947000Y-49369000D01*
X117440000Y-51529000D02*
X123764000Y-51529000D01*
X117440000Y-53169000D02*
X124545000Y-53169000D01*
X110998000Y-48649000D02*
X121002000Y-48649000D01*
X117440000Y-52049000D02*
X124056000Y-52049000D01*
X106920000Y-56210000D02*
X125080000Y-56210000D01*
X117440000Y-51209000D02*
X123561000Y-51209000D01*
X109171000Y-50249000D02*
X122829000Y-50249000D01*
X109874000Y-49529000D02*
X122126000Y-49529000D01*
X109663000Y-49729000D02*
X122337000Y-49729000D01*
X107484000Y-53089000D02*
X114560000Y-53089000D01*
X109035000Y-50409000D02*
X122965000Y-50409000D01*
X107965000Y-52009000D02*
X114560000Y-52009000D01*
X106922000Y-56050000D02*
X125078000Y-56050000D01*
X109102000Y-50329000D02*
X122898000Y-50329000D01*
X107903000Y-52129000D02*
X114560000Y-52129000D01*
X117440000Y-52409000D02*
X124233000Y-52409000D01*
X107107000Y-54409000D02*
X124893000Y-54409000D01*
X107021000Y-54889000D02*
X124979000Y-54889000D01*
X106974000Y-55249000D02*
X125026000Y-55249000D01*
X117440000Y-53889000D02*
X124770000Y-53889000D01*
X107660000Y-52649000D02*
X114560000Y-52649000D01*
X107924000Y-52089000D02*
X114560000Y-52089000D01*
X111661000Y-48249000D02*
X120339000Y-48249000D01*
X109704000Y-49689000D02*
X122296000Y-49689000D01*
X117440000Y-51289000D02*
X123614000Y-51289000D01*
X108750000Y-50769000D02*
X123250000Y-50769000D01*
X108661000Y-50889000D02*
X123339000Y-50889000D01*
X107626000Y-52729000D02*
X114560000Y-52729000D01*
X117440000Y-53849000D02*
X124759000Y-53849000D01*
X110146000Y-49289000D02*
X121854000Y-49289000D01*
X110709000Y-48849000D02*
X121291000Y-48849000D01*
X117440000Y-52209000D02*
X124137000Y-52209000D01*
X107169000Y-54129000D02*
X124831000Y-54129000D01*
X107805000Y-52329000D02*
X114560000Y-52329000D01*
X117440000Y-51729000D02*
X123882000Y-51729000D01*
X107142000Y-54249000D02*
X124858000Y-54249000D01*
X107863000Y-52209000D02*
X114560000Y-52209000D01*
X107220000Y-53929000D02*
X114560000Y-53929000D01*
X107883000Y-52169000D02*
X114560000Y-52169000D01*
X107413000Y-53289000D02*
X114560000Y-53289000D01*
X106970000Y-55289000D02*
X125030000Y-55289000D01*
X110340000Y-49129000D02*
X121660000Y-49129000D01*
X106984000Y-55169000D02*
X125016000Y-55169000D01*
X117440000Y-53249000D02*
X124573000Y-53249000D01*
X107286000Y-53689000D02*
X114560000Y-53689000D01*
X117440000Y-53409000D02*
X124627000Y-53409000D01*
X108073000Y-51809000D02*
X114560000Y-51809000D01*
X108439000Y-51209000D02*
X114560000Y-51209000D01*
X108096000Y-51769000D02*
X114560000Y-51769000D01*
X110880000Y-48729000D02*
X121120000Y-48729000D01*
X110291000Y-49169000D02*
X121709000Y-49169000D01*
X117440000Y-52769000D02*
X124390000Y-52769000D01*
X109746000Y-49649000D02*
X122254000Y-49649000D01*
X117440000Y-53329000D02*
X124600000Y-53329000D01*
X108310000Y-51409000D02*
X114560000Y-51409000D01*
X107179000Y-54089000D02*
X124821000Y-54089000D01*
X108029000Y-51889000D02*
X114560000Y-51889000D01*
X110938000Y-48689000D02*
X121062000Y-48689000D01*
X108212000Y-51569000D02*
X114560000Y-51569000D01*
X107786000Y-52369000D02*
X114560000Y-52369000D01*
X107230000Y-53889000D02*
X114560000Y-53889000D01*
X110654000Y-48889000D02*
X121346000Y-48889000D01*
X117440000Y-53689000D02*
X124714000Y-53689000D01*
X117440000Y-51889000D02*
X123971000Y-51889000D01*
X108492000Y-51129000D02*
X114560000Y-51129000D01*
X106979000Y-55209000D02*
X125021000Y-55209000D01*
X113120000Y-47610000D02*
X118880000Y-47610000D01*
X107263000Y-53769000D02*
X114560000Y-53769000D01*
X106955000Y-55449000D02*
X125045000Y-55449000D01*
X113645000Y-47450000D02*
X118355000Y-47450000D01*
X117440000Y-53089000D02*
X124516000Y-53089000D01*
X109503000Y-49889000D02*
X122497000Y-49889000D01*
X108969000Y-50489000D02*
X123031000Y-50489000D01*
X107561000Y-52889000D02*
X114560000Y-52889000D01*
X107068000Y-54609000D02*
X124932000Y-54609000D01*
X107322000Y-53569000D02*
X114560000Y-53569000D01*
X107047000Y-54729000D02*
X124953000Y-54729000D01*
X117440000Y-52889000D02*
X124439000Y-52889000D01*
X108841000Y-50649000D02*
X123159000Y-50649000D01*
X107310000Y-53609000D02*
X114560000Y-53609000D01*
X110822000Y-48769000D02*
X121178000Y-48769000D01*
X117440000Y-53809000D02*
X124748000Y-53809000D01*
X107360000Y-53449000D02*
X114560000Y-53449000D01*
X106951000Y-55489000D02*
X125049000Y-55489000D01*
X108335000Y-51369000D02*
X114560000Y-51369000D01*
X107016000Y-54929000D02*
X124984000Y-54929000D01*
X106919000Y-56250000D02*
X125081000Y-56250000D01*
X109206000Y-50209000D02*
X122794000Y-50209000D01*
X109622000Y-49769000D02*
X122378000Y-49769000D01*
X109426000Y-49969000D02*
X122574000Y-49969000D01*
X108936000Y-50529000D02*
X123064000Y-50529000D01*
X107054000Y-54689000D02*
X124946000Y-54689000D01*
X106937000Y-55690000D02*
X125063000Y-55690000D01*
X109788000Y-49609000D02*
X122212000Y-49609000D01*
X106928000Y-55850000D02*
X125072000Y-55850000D01*
X107151000Y-54209000D02*
X124849000Y-54209000D01*
X117440000Y-51969000D02*
X124014000Y-51969000D01*
X107298000Y-53649000D02*
X114560000Y-53649000D01*
X117440000Y-51849000D02*
X123949000Y-51849000D01*
X110600000Y-48929000D02*
X121400000Y-48929000D01*
X109985000Y-65109440D02*
X111785000Y-65109440D01*
X113368000Y-47530000D02*
X118632000Y-47530000D01*
X108690000Y-50849000D02*
X123310000Y-50849000D01*
X111518000Y-48329000D02*
X120482000Y-48329000D01*
X117440000Y-52089000D02*
X124076000Y-52089000D01*
X117440000Y-52489000D02*
X124269000Y-52489000D01*
X107844000Y-52249000D02*
X114560000Y-52249000D01*
X117440000Y-51249000D02*
X123588000Y-51249000D01*
X107004000Y-55009000D02*
X124996000Y-55009000D01*
X117440000Y-51489000D02*
X123740000Y-51489000D01*
X108008000Y-51929000D02*
X114560000Y-51929000D01*
X107189000Y-54049000D02*
X124811000Y-54049000D01*
X109464000Y-49929000D02*
X122536000Y-49929000D01*
X117440000Y-53569000D02*
X124678000Y-53569000D01*
X107061000Y-54649000D02*
X124939000Y-54649000D01*
X117440000Y-53729000D02*
X124725000Y-53729000D01*
X110885000Y-66009440D02*
X110885000Y-64209440D01*
X108873000Y-50609000D02*
X123127000Y-50609000D01*
X108188000Y-51609000D02*
X114560000Y-51609000D01*
X109388000Y-50009000D02*
X122612000Y-50009000D01*
X117440000Y-52009000D02*
X124035000Y-52009000D01*
X117440000Y-53649000D02*
X124702000Y-53649000D01*
X108051000Y-51849000D02*
X114560000Y-51849000D01*
X107209000Y-53969000D02*
X124791000Y-53969000D01*
X108260000Y-51489000D02*
X114560000Y-51489000D01*
X107199000Y-54009000D02*
X124801000Y-54009000D01*
X112488000Y-47850000D02*
X119512000Y-47850000D01*
X117440000Y-52649000D02*
X124340000Y-52649000D01*
X115186000Y-47170000D02*
X116814000Y-47170000D01*
X106924000Y-55970000D02*
X125076000Y-55970000D01*
X107010000Y-54969000D02*
X124990000Y-54969000D01*
X117440000Y-52929000D02*
X124455000Y-52929000D01*
X106920000Y-56170000D02*
X125080000Y-56170000D01*
X108810000Y-50689000D02*
X123190000Y-50689000D01*
X107695000Y-52569000D02*
X114560000Y-52569000D01*
X107944000Y-52049000D02*
X114560000Y-52049000D01*
X107441000Y-53209000D02*
X114560000Y-53209000D01*
X106920000Y-56130000D02*
X125080000Y-56130000D01*
X117440000Y-53489000D02*
X124653000Y-53489000D01*
X108465000Y-51169000D02*
X114560000Y-51169000D01*
X109242000Y-50169000D02*
X122758000Y-50169000D01*
X110099000Y-49329000D02*
X121901000Y-49329000D01*
X117440000Y-53769000D02*
X124737000Y-53769000D01*
X108603000Y-50969000D02*
X123397000Y-50969000D01*
X106939000Y-55650000D02*
X125061000Y-55650000D01*
X108141000Y-51689000D02*
X114560000Y-51689000D01*
X108547000Y-51049000D02*
X123453000Y-51049000D01*
X107241000Y-53849000D02*
X114560000Y-53849000D01*
X117440000Y-51129000D02*
X123508000Y-51129000D01*
X106945000Y-55570000D02*
X125055000Y-55570000D01*
X107347000Y-53489000D02*
X114560000Y-53489000D01*
X114140000Y-47330000D02*
X117860000Y-47330000D01*
X109068000Y-50369000D02*
X122932000Y-50369000D01*
X114565000Y-47250000D02*
X117435000Y-47250000D01*
X106958000Y-55409000D02*
X125042000Y-55409000D01*
X117440000Y-51169000D02*
X123535000Y-51169000D01*
X117440000Y-52849000D02*
X124423000Y-52849000D01*
X113502000Y-47490000D02*
X118498000Y-47490000D01*
X110391000Y-49089000D02*
X121609000Y-49089000D01*
X107124000Y-54329000D02*
X124876000Y-54329000D01*
X117440000Y-52249000D02*
X124156000Y-52249000D01*
X107076000Y-54569000D02*
X124924000Y-54569000D01*
X107499000Y-53049000D02*
X114560000Y-53049000D01*
X109962000Y-49449000D02*
X122038000Y-49449000D01*
X110546000Y-48969000D02*
X121454000Y-48969000D01*
X106925000Y-55930000D02*
X125075000Y-55930000D01*
X117440000Y-52569000D02*
X124305000Y-52569000D01*
X107824000Y-52289000D02*
X114560000Y-52289000D01*
X117440000Y-51609000D02*
X123812000Y-51609000D01*
X109001000Y-50449000D02*
X122999000Y-50449000D01*
X108118000Y-51729000D02*
X114560000Y-51729000D01*
X107335000Y-53529000D02*
X114560000Y-53529000D01*
X112893000Y-47690000D02*
X119107000Y-47690000D01*
X117440000Y-52169000D02*
X124117000Y-52169000D01*
X106948000Y-55529000D02*
X125052000Y-55529000D01*
X117440000Y-52969000D02*
X124470000Y-52969000D01*
X107545000Y-52929000D02*
X114560000Y-52929000D01*
X111380000Y-48409000D02*
X120620000Y-48409000D01*
X108412000Y-51249000D02*
X114560000Y-51249000D01*
X108165000Y-51649000D02*
X114560000Y-51649000D01*
X114834000Y-47210000D02*
X117166000Y-47210000D01*
X111184000Y-48529000D02*
X120816000Y-48529000D01*
X110007000Y-49409000D02*
X121993000Y-49409000D01*
X107386000Y-53369000D02*
X114560000Y-53369000D01*
X107160000Y-54169000D02*
X124840000Y-54169000D01*
X107677000Y-52609000D02*
X114560000Y-52609000D01*
X107083000Y-54529000D02*
X124917000Y-54529000D01*
X117440000Y-51929000D02*
X123992000Y-51929000D01*
X107252000Y-53809000D02*
X114560000Y-53809000D01*
X110194000Y-49249000D02*
X121806000Y-49249000D01*
X108360000Y-51329000D02*
X114560000Y-51329000D01*
X111967000Y-48089000D02*
X120033000Y-48089000D01*
X107115000Y-54369000D02*
X124885000Y-54369000D01*
X111448000Y-48369000D02*
X120552000Y-48369000D01*
X109314000Y-50089000D02*
X122686000Y-50089000D01*
X109136000Y-50289000D02*
X122864000Y-50289000D01*
X106927000Y-55890000D02*
X125073000Y-55890000D01*
X109542000Y-49849000D02*
X122458000Y-49849000D01*
X107091000Y-54489000D02*
X124909000Y-54489000D01*
X106994000Y-55089000D02*
X125006000Y-55089000D01*
X113797000Y-47410000D02*
X118203000Y-47410000D01*
X108632000Y-50929000D02*
X123368000Y-50929000D01*
X117440000Y-51089000D02*
X123480000Y-51089000D01*
X117440000Y-51689000D02*
X123859000Y-51689000D01*
X110242000Y-49209000D02*
X121758000Y-49209000D01*
X112216000Y-47970000D02*
X119784000Y-47970000D01*
X117440000Y-52129000D02*
X124097000Y-52129000D01*
X108285000Y-51449000D02*
X114560000Y-51449000D01*
X107275000Y-53729000D02*
X114560000Y-53729000D01*
X106989000Y-55129000D02*
X125011000Y-55129000D01*
X117440000Y-51569000D02*
X123788000Y-51569000D01*
X107643000Y-52689000D02*
X114560000Y-52689000D01*
X112395000Y-47890000D02*
X119605000Y-47890000D01*
X117440000Y-53449000D02*
X124640000Y-53449000D01*
X117440000Y-53369000D02*
X124614000Y-53369000D01*
X117440000Y-53049000D02*
X124501000Y-53049000D01*
X117440000Y-52729000D02*
X124374000Y-52729000D01*
X106934000Y-55730000D02*
X125066000Y-55730000D01*
X107427000Y-53249000D02*
X114560000Y-53249000D01*
X106921000Y-56090000D02*
X125079000Y-56090000D01*
X117440000Y-52689000D02*
X124357000Y-52689000D01*
X107133000Y-54289000D02*
X124867000Y-54289000D01*
X107040000Y-54769000D02*
X124960000Y-54769000D01*
X107373000Y-53409000D02*
X114560000Y-53409000D01*
X111248000Y-48489000D02*
X120752000Y-48489000D01*
X111314000Y-48449000D02*
X120686000Y-48449000D01*
X115960000Y-47130000D02*
X116040000Y-47130000D01*
X117440000Y-53129000D02*
X124530000Y-53129000D01*
X117440000Y-52449000D02*
X124251000Y-52449000D01*
X112584000Y-47810000D02*
X119416000Y-47810000D01*
X107530000Y-52969000D02*
X114560000Y-52969000D01*
X111121000Y-48569000D02*
X120879000Y-48569000D01*
X109351000Y-50049000D02*
X122649000Y-50049000D01*
X107099000Y-54449000D02*
X124901000Y-54449000D01*
X107400000Y-53329000D02*
X114560000Y-53329000D01*
X117440000Y-51409000D02*
X123690000Y-51409000D01*
X112048000Y-48050000D02*
X119952000Y-48050000D01*
X114339000Y-47290000D02*
X117661000Y-47290000D01*
X106923000Y-56010000D02*
X125077000Y-56010000D01*
X113961000Y-47370000D02*
X118039000Y-47370000D01*
X107470000Y-53129000D02*
X114560000Y-53129000D01*
X117440000Y-53529000D02*
X124665000Y-53529000D01*
X117440000Y-51449000D02*
X123715000Y-51449000D01*
X125120000Y-56250000D02*
G75*
G03*
X125120000Y-56250000I-9120000J0D01*
G01*
%TO.C,C2*%
X153688000Y-51109000D02*
X160060000Y-51109000D01*
X152955000Y-52669000D02*
X160060000Y-52669000D01*
X153213000Y-52029000D02*
X160060000Y-52029000D01*
X154602000Y-49829000D02*
X168398000Y-49829000D01*
X154020000Y-50589000D02*
X160060000Y-50589000D01*
X162940000Y-50869000D02*
X169165000Y-50869000D01*
X162940000Y-50909000D02*
X169190000Y-50909000D01*
X152466000Y-54829000D02*
X170534000Y-54829000D01*
X152479000Y-54709000D02*
X170521000Y-54709000D01*
X152499000Y-54549000D02*
X170501000Y-54549000D01*
X156154000Y-48389000D02*
X166846000Y-48389000D01*
X154671000Y-49749000D02*
X168329000Y-49749000D01*
X152730000Y-53389000D02*
X160060000Y-53389000D01*
X157895000Y-47390000D02*
X165105000Y-47390000D01*
X156380000Y-48229000D02*
X166620000Y-48229000D01*
X152927000Y-52749000D02*
X160060000Y-52749000D01*
X154161000Y-50389000D02*
X168839000Y-50389000D01*
X162940000Y-51709000D02*
X169637000Y-51709000D01*
X152913000Y-52789000D02*
X160060000Y-52789000D01*
X152561000Y-54149000D02*
X170439000Y-54149000D01*
X153835000Y-50869000D02*
X160060000Y-50869000D01*
X162940000Y-51829000D02*
X169695000Y-51829000D01*
X152900000Y-52829000D02*
X160060000Y-52829000D01*
X155694000Y-48749000D02*
X167306000Y-48749000D01*
X153267000Y-51909000D02*
X160060000Y-51909000D01*
X153465000Y-51509000D02*
X160060000Y-51509000D01*
X153344000Y-51749000D02*
X160060000Y-51749000D01*
X156385000Y-65509440D02*
X156385000Y-63709440D01*
X155599000Y-48829000D02*
X167401000Y-48829000D01*
X155122000Y-49269000D02*
X167878000Y-49269000D01*
X159461000Y-46870000D02*
X163539000Y-46870000D01*
X152633000Y-53789000D02*
X170367000Y-53789000D01*
X152427000Y-55390000D02*
X170573000Y-55390000D01*
X162940000Y-53389000D02*
X170270000Y-53389000D01*
X156498000Y-48149000D02*
X166502000Y-48149000D01*
X162940000Y-53029000D02*
X170165000Y-53029000D01*
X152699000Y-53509000D02*
X170301000Y-53509000D01*
X152516000Y-54429000D02*
X170484000Y-54429000D01*
X162940000Y-51469000D02*
X169514000Y-51469000D01*
X157804000Y-47430000D02*
X165196000Y-47430000D01*
X156046000Y-48469000D02*
X166954000Y-48469000D01*
X154926000Y-49469000D02*
X168074000Y-49469000D01*
X162940000Y-51669000D02*
X169617000Y-51669000D01*
X152420000Y-55630000D02*
X170580000Y-55630000D01*
X156748000Y-47989000D02*
X166252000Y-47989000D01*
X153641000Y-51189000D02*
X160060000Y-51189000D01*
X162940000Y-52389000D02*
X169939000Y-52389000D01*
X162940000Y-52029000D02*
X169787000Y-52029000D01*
X154742000Y-49669000D02*
X168258000Y-49669000D01*
X152419000Y-55750000D02*
X170581000Y-55750000D01*
X152984000Y-52589000D02*
X160060000Y-52589000D01*
X153110000Y-52269000D02*
X160060000Y-52269000D01*
X160065000Y-46750000D02*
X162935000Y-46750000D01*
X152689000Y-53549000D02*
X170311000Y-53549000D01*
X152451000Y-54989000D02*
X170549000Y-54989000D01*
X153596000Y-51269000D02*
X160060000Y-51269000D01*
X162940000Y-51029000D02*
X169264000Y-51029000D01*
X157631000Y-47510000D02*
X165369000Y-47510000D01*
X152423000Y-55510000D02*
X170577000Y-55510000D01*
X155840000Y-48629000D02*
X167160000Y-48629000D01*
X159640000Y-46830000D02*
X163360000Y-46830000D01*
X155462000Y-48949000D02*
X167538000Y-48949000D01*
X155246000Y-49149000D02*
X167754000Y-49149000D01*
X155485000Y-64609440D02*
X157285000Y-64609440D01*
X162940000Y-52749000D02*
X170073000Y-52749000D01*
X152607000Y-53909000D02*
X170393000Y-53909000D01*
X162940000Y-51789000D02*
X169676000Y-51789000D01*
X152642000Y-53749000D02*
X170358000Y-53749000D01*
X155994000Y-48509000D02*
X167006000Y-48509000D01*
X152421000Y-55590000D02*
X170579000Y-55590000D01*
X152424000Y-55470000D02*
X170576000Y-55470000D01*
X162940000Y-51149000D02*
X169335000Y-51149000D01*
X162940000Y-52869000D02*
X170114000Y-52869000D01*
X156948000Y-47869000D02*
X166052000Y-47869000D01*
X152455000Y-54949000D02*
X170545000Y-54949000D01*
X155742000Y-48709000D02*
X167258000Y-48709000D01*
X152521000Y-54389000D02*
X170479000Y-54389000D01*
X162940000Y-51269000D02*
X169404000Y-51269000D01*
X162940000Y-50789000D02*
X169114000Y-50789000D01*
X154341000Y-50149000D02*
X168659000Y-50149000D01*
X154190000Y-50349000D02*
X168810000Y-50349000D01*
X154075000Y-50509000D02*
X168925000Y-50509000D01*
X158504000Y-47150000D02*
X164496000Y-47150000D01*
X153965000Y-50669000D02*
X160060000Y-50669000D01*
X154132000Y-50429000D02*
X168868000Y-50429000D01*
X162940000Y-50989000D02*
X169240000Y-50989000D01*
X153160000Y-52149000D02*
X160060000Y-52149000D01*
X154636000Y-49789000D02*
X168364000Y-49789000D01*
X160334000Y-46710000D02*
X162666000Y-46710000D01*
X155330000Y-49069000D02*
X167670000Y-49069000D01*
X162940000Y-50709000D02*
X169061000Y-50709000D01*
X154814000Y-49589000D02*
X168186000Y-49589000D01*
X153177000Y-52109000D02*
X160060000Y-52109000D01*
X154103000Y-50469000D02*
X168897000Y-50469000D01*
X162940000Y-52429000D02*
X169955000Y-52429000D01*
X153286000Y-51869000D02*
X160060000Y-51869000D01*
X162940000Y-50589000D02*
X168980000Y-50589000D01*
X152709000Y-53469000D02*
X170291000Y-53469000D01*
X162940000Y-52909000D02*
X170127000Y-52909000D01*
X153363000Y-51709000D02*
X160060000Y-51709000D01*
X153736000Y-51029000D02*
X160060000Y-51029000D01*
X153143000Y-52189000D02*
X160060000Y-52189000D01*
X162940000Y-52789000D02*
X170087000Y-52789000D01*
X153665000Y-51149000D02*
X160060000Y-51149000D01*
X162940000Y-51549000D02*
X169556000Y-51549000D01*
X158393000Y-47190000D02*
X164607000Y-47190000D01*
X162940000Y-52109000D02*
X169823000Y-52109000D01*
X154964000Y-49429000D02*
X168036000Y-49429000D01*
X162940000Y-52709000D02*
X170059000Y-52709000D01*
X154436000Y-50029000D02*
X168564000Y-50029000D01*
X155288000Y-49109000D02*
X167712000Y-49109000D01*
X152534000Y-54309000D02*
X170466000Y-54309000D01*
X156209000Y-48349000D02*
X166791000Y-48349000D01*
X155942000Y-48549000D02*
X167058000Y-48549000D01*
X159297000Y-46910000D02*
X163703000Y-46910000D01*
X162940000Y-52149000D02*
X169840000Y-52149000D01*
X153403000Y-51629000D02*
X160060000Y-51629000D01*
X152458000Y-54909000D02*
X170542000Y-54909000D01*
X153810000Y-50909000D02*
X160060000Y-50909000D01*
X152752000Y-53309000D02*
X160060000Y-53309000D01*
X158084000Y-47310000D02*
X164916000Y-47310000D01*
X162940000Y-52309000D02*
X169907000Y-52309000D01*
X152786000Y-53189000D02*
X160060000Y-53189000D01*
X153424000Y-51589000D02*
X160060000Y-51589000D01*
X155891000Y-48589000D02*
X167109000Y-48589000D01*
X162940000Y-53269000D02*
X170237000Y-53269000D01*
X153093000Y-52309000D02*
X160060000Y-52309000D01*
X152835000Y-53029000D02*
X160060000Y-53029000D01*
X153785000Y-50949000D02*
X160060000Y-50949000D01*
X153939000Y-50709000D02*
X160060000Y-50709000D01*
X162940000Y-51749000D02*
X169656000Y-51749000D01*
X156880000Y-47909000D02*
X166120000Y-47909000D01*
X152847000Y-52989000D02*
X160060000Y-52989000D01*
X155646000Y-48789000D02*
X167354000Y-48789000D01*
X156322000Y-48269000D02*
X166678000Y-48269000D01*
X162940000Y-50749000D02*
X169088000Y-50749000D01*
X155418000Y-48989000D02*
X167582000Y-48989000D01*
X153195000Y-52069000D02*
X160060000Y-52069000D01*
X153383000Y-51669000D02*
X160060000Y-51669000D01*
X162940000Y-52069000D02*
X169805000Y-52069000D01*
X152591000Y-53989000D02*
X170409000Y-53989000D01*
X162940000Y-52229000D02*
X169874000Y-52229000D01*
X157387000Y-47629000D02*
X165613000Y-47629000D01*
X162940000Y-51069000D02*
X169288000Y-51069000D01*
X162940000Y-52349000D02*
X169923000Y-52349000D01*
X152741000Y-53349000D02*
X160060000Y-53349000D01*
X162940000Y-50949000D02*
X169215000Y-50949000D01*
X152999000Y-52549000D02*
X160060000Y-52549000D01*
X158286000Y-47230000D02*
X164714000Y-47230000D01*
X162940000Y-52469000D02*
X169970000Y-52469000D01*
X159145000Y-46950000D02*
X163855000Y-46950000D01*
X153061000Y-52389000D02*
X160060000Y-52389000D01*
X154778000Y-49629000D02*
X168222000Y-49629000D01*
X156621000Y-48069000D02*
X166379000Y-48069000D01*
X154501000Y-49949000D02*
X168499000Y-49949000D01*
X152432000Y-55270000D02*
X170568000Y-55270000D01*
X152442000Y-55110000D02*
X170558000Y-55110000D01*
X153014000Y-52509000D02*
X160060000Y-52509000D01*
X162940000Y-53229000D02*
X170225000Y-53229000D01*
X157548000Y-47550000D02*
X165452000Y-47550000D01*
X162940000Y-53109000D02*
X170190000Y-53109000D01*
X157018000Y-47829000D02*
X165982000Y-47829000D01*
X162940000Y-51509000D02*
X169535000Y-51509000D01*
X157467000Y-47589000D02*
X165533000Y-47589000D01*
X154280000Y-50229000D02*
X168720000Y-50229000D01*
X162940000Y-51309000D02*
X169427000Y-51309000D01*
X162940000Y-52189000D02*
X169857000Y-52189000D01*
X155791000Y-48669000D02*
X167209000Y-48669000D01*
X162940000Y-51189000D02*
X169359000Y-51189000D01*
X155553000Y-48869000D02*
X167447000Y-48869000D01*
X157161000Y-47749000D02*
X165839000Y-47749000D01*
X154469000Y-49989000D02*
X168531000Y-49989000D01*
X157716000Y-47470000D02*
X165284000Y-47470000D01*
X152428000Y-55350000D02*
X170572000Y-55350000D01*
X153992000Y-50629000D02*
X160060000Y-50629000D01*
X157088000Y-47789000D02*
X165912000Y-47789000D01*
X154568000Y-49869000D02*
X168432000Y-49869000D01*
X162940000Y-51949000D02*
X169751000Y-51949000D01*
X152970000Y-52629000D02*
X160060000Y-52629000D01*
X155507000Y-48909000D02*
X167493000Y-48909000D01*
X152420000Y-55670000D02*
X170580000Y-55670000D01*
X162940000Y-51629000D02*
X169597000Y-51629000D01*
X152679000Y-53589000D02*
X170321000Y-53589000D01*
X153551000Y-51349000D02*
X160060000Y-51349000D01*
X162940000Y-53429000D02*
X170280000Y-53429000D01*
X153529000Y-51389000D02*
X160060000Y-51389000D01*
X152422000Y-55550000D02*
X170578000Y-55550000D01*
X162940000Y-50629000D02*
X169008000Y-50629000D01*
X156265000Y-48309000D02*
X166735000Y-48309000D01*
X154250000Y-50269000D02*
X168750000Y-50269000D01*
X154373000Y-50109000D02*
X168627000Y-50109000D01*
X153305000Y-51829000D02*
X160060000Y-51829000D01*
X152439000Y-55150000D02*
X170561000Y-55150000D01*
X159002000Y-46990000D02*
X163998000Y-46990000D01*
X157988000Y-47350000D02*
X165012000Y-47350000D01*
X152669000Y-53629000D02*
X170331000Y-53629000D01*
X155042000Y-49349000D02*
X167958000Y-49349000D01*
X153077000Y-52349000D02*
X160060000Y-52349000D01*
X153486000Y-51469000D02*
X160060000Y-51469000D01*
X158868000Y-47030000D02*
X164132000Y-47030000D01*
X152583000Y-54029000D02*
X170417000Y-54029000D01*
X162940000Y-53349000D02*
X170259000Y-53349000D01*
X152860000Y-52949000D02*
X160060000Y-52949000D01*
X162940000Y-51229000D02*
X169382000Y-51229000D01*
X154404000Y-50069000D02*
X168596000Y-50069000D01*
X152420000Y-55710000D02*
X170580000Y-55710000D01*
X154047000Y-50549000D02*
X168953000Y-50549000D01*
X152434000Y-55230000D02*
X170566000Y-55230000D01*
X155003000Y-49389000D02*
X167997000Y-49389000D01*
X152599000Y-53949000D02*
X170401000Y-53949000D01*
X154851000Y-49549000D02*
X168149000Y-49549000D01*
X155204000Y-49189000D02*
X167796000Y-49189000D01*
X162940000Y-51909000D02*
X169733000Y-51909000D01*
X152474000Y-54749000D02*
X170526000Y-54749000D01*
X153508000Y-51429000D02*
X160060000Y-51429000D01*
X158183000Y-47270000D02*
X164817000Y-47270000D01*
X153573000Y-51309000D02*
X160060000Y-51309000D01*
X162940000Y-50829000D02*
X169140000Y-50829000D01*
X156100000Y-48429000D02*
X166900000Y-48429000D01*
X156684000Y-48029000D02*
X166316000Y-48029000D01*
X155163000Y-49229000D02*
X167837000Y-49229000D01*
X152540000Y-54269000D02*
X170460000Y-54269000D01*
X152504000Y-54509000D02*
X170496000Y-54509000D01*
X153860000Y-50829000D02*
X160060000Y-50829000D01*
X154535000Y-49909000D02*
X168465000Y-49909000D01*
X156814000Y-47949000D02*
X166186000Y-47949000D01*
X155374000Y-49029000D02*
X167626000Y-49029000D01*
X162940000Y-52829000D02*
X170100000Y-52829000D01*
X152494000Y-54589000D02*
X170506000Y-54589000D01*
X156559000Y-48109000D02*
X166441000Y-48109000D01*
X154706000Y-49709000D02*
X168294000Y-49709000D01*
X162940000Y-52629000D02*
X170030000Y-52629000D01*
X162940000Y-51429000D02*
X169492000Y-51429000D01*
X162940000Y-53149000D02*
X170202000Y-53149000D01*
X152651000Y-53709000D02*
X170349000Y-53709000D01*
X162940000Y-53189000D02*
X170214000Y-53189000D01*
X152554000Y-54189000D02*
X170446000Y-54189000D01*
X152660000Y-53669000D02*
X170340000Y-53669000D01*
X152873000Y-52909000D02*
X160060000Y-52909000D01*
X154220000Y-50309000D02*
X168780000Y-50309000D01*
X162940000Y-51389000D02*
X169471000Y-51389000D01*
X153249000Y-51949000D02*
X160060000Y-51949000D01*
X156438000Y-48189000D02*
X166562000Y-48189000D01*
X162940000Y-51989000D02*
X169769000Y-51989000D01*
X152810000Y-53109000D02*
X160060000Y-53109000D01*
X152886000Y-52869000D02*
X160060000Y-52869000D01*
X152445000Y-55070000D02*
X170555000Y-55070000D01*
X153324000Y-51789000D02*
X160060000Y-51789000D01*
X153886000Y-50789000D02*
X160060000Y-50789000D01*
X152489000Y-54629000D02*
X170511000Y-54629000D01*
X162940000Y-51869000D02*
X169714000Y-51869000D01*
X153618000Y-51229000D02*
X160060000Y-51229000D01*
X158620000Y-47110000D02*
X164380000Y-47110000D01*
X161460000Y-46630000D02*
X161540000Y-46630000D01*
X162940000Y-53069000D02*
X170178000Y-53069000D01*
X153712000Y-51069000D02*
X160060000Y-51069000D01*
X152462000Y-54869000D02*
X170538000Y-54869000D01*
X162940000Y-52509000D02*
X169986000Y-52509000D01*
X152510000Y-54469000D02*
X170490000Y-54469000D01*
X155082000Y-49309000D02*
X167918000Y-49309000D01*
X154310000Y-50189000D02*
X168690000Y-50189000D01*
X153912000Y-50749000D02*
X160060000Y-50749000D01*
X152615000Y-53869000D02*
X170385000Y-53869000D01*
X152775000Y-53229000D02*
X160060000Y-53229000D01*
X152624000Y-53829000D02*
X170376000Y-53829000D01*
X153444000Y-51549000D02*
X160060000Y-51549000D01*
X157235000Y-47709000D02*
X165765000Y-47709000D01*
X158741000Y-47070000D02*
X164259000Y-47070000D01*
X152941000Y-52709000D02*
X160060000Y-52709000D01*
X154888000Y-49509000D02*
X168112000Y-49509000D01*
X152528000Y-54349000D02*
X170472000Y-54349000D01*
X152448000Y-55029000D02*
X170552000Y-55029000D01*
X152576000Y-54069000D02*
X170424000Y-54069000D01*
X152425000Y-55430000D02*
X170575000Y-55430000D01*
X152763000Y-53269000D02*
X160060000Y-53269000D01*
X152798000Y-53149000D02*
X160060000Y-53149000D01*
X162940000Y-51589000D02*
X169576000Y-51589000D01*
X157310000Y-47669000D02*
X165690000Y-47669000D01*
X153030000Y-52469000D02*
X160060000Y-52469000D01*
X162940000Y-52989000D02*
X170153000Y-52989000D01*
X152470000Y-54789000D02*
X170530000Y-54789000D01*
X152568000Y-54109000D02*
X170432000Y-54109000D01*
X162940000Y-52589000D02*
X170016000Y-52589000D01*
X162940000Y-53309000D02*
X170248000Y-53309000D01*
X153126000Y-52229000D02*
X160060000Y-52229000D01*
X153045000Y-52429000D02*
X160060000Y-52429000D01*
X152720000Y-53429000D02*
X160060000Y-53429000D01*
X162940000Y-51109000D02*
X169312000Y-51109000D01*
X153760000Y-50989000D02*
X160060000Y-50989000D01*
X153231000Y-51989000D02*
X160060000Y-51989000D01*
X152430000Y-55310000D02*
X170570000Y-55310000D01*
X159839000Y-46790000D02*
X163161000Y-46790000D01*
X152822000Y-53069000D02*
X160060000Y-53069000D01*
X160686000Y-46670000D02*
X162314000Y-46670000D01*
X162940000Y-52269000D02*
X169890000Y-52269000D01*
X152547000Y-54229000D02*
X170453000Y-54229000D01*
X152484000Y-54669000D02*
X170516000Y-54669000D01*
X162940000Y-52669000D02*
X170045000Y-52669000D01*
X162940000Y-51349000D02*
X169449000Y-51349000D01*
X162940000Y-52949000D02*
X170140000Y-52949000D01*
X152437000Y-55190000D02*
X170563000Y-55190000D01*
X162940000Y-52549000D02*
X170001000Y-52549000D01*
X162940000Y-50669000D02*
X169035000Y-50669000D01*
X170620000Y-55750000D02*
G75*
G03*
X170620000Y-55750000I-9120000J0D01*
G01*
%TO.C,D1*%
X117500000Y-78500000D02*
X111500000Y-78500000D01*
X111500000Y-78500000D02*
X111500000Y-69500000D01*
X111500000Y-69500000D02*
X117500000Y-69500000D01*
X117500000Y-69500000D02*
X117500000Y-78500000D01*
D14*
X117895137Y-74000000D02*
G75*
G03*
X117895137Y-74000000I-395137J0D01*
G01*
D13*
%TO.C,D3*%
X171135000Y-93380000D02*
X171135000Y-89320000D01*
X168865000Y-89320000D02*
X168865000Y-93380000D01*
X168865000Y-93380000D02*
X171135000Y-93380000D01*
%TO.C,J1*%
X109535000Y-98535000D02*
X108795000Y-98535000D01*
X114764000Y-107730000D02*
X114718000Y-107683000D01*
X112672000Y-105228000D02*
X112626000Y-105181000D01*
X109035000Y-98775000D02*
X109035000Y-109055000D01*
X109595000Y-98775000D02*
X109595000Y-109055000D01*
X115996000Y-98775000D02*
X115996000Y-109055000D01*
X111095000Y-98775000D02*
X111095000Y-109055000D01*
X118956000Y-98775000D02*
X109035000Y-98775000D01*
X108795000Y-98535000D02*
X108795000Y-99035000D01*
X114970000Y-107525000D02*
X114934000Y-107490000D01*
X112456000Y-105421000D02*
X112421000Y-105386000D01*
X118956000Y-98775000D02*
X118956000Y-109055000D01*
X118956000Y-109055000D02*
X109035000Y-109055000D01*
X114379000Y-99840000D02*
G75*
G03*
X113011958Y-99839573I-684001J-1534993D01*
G01*
X115230000Y-102059000D02*
G75*
G03*
X115230427Y-100691958I-1534993J684001D01*
G01*
X113011000Y-102910001D02*
G75*
G03*
X114378042Y-102910427I684000J1535001D01*
G01*
X112015000Y-101375000D02*
G75*
G03*
X112160244Y-102058318I1680000J0D01*
G01*
X112160000Y-100691000D02*
G75*
G03*
X112014747Y-101403805I1535001J-683999D01*
G01*
X115375000Y-106455000D02*
G75*
G03*
X115375000Y-106455000I-1680000J0D01*
G01*
%TO.C,J2*%
X118956000Y-122055000D02*
X109035000Y-122055000D01*
X114764000Y-120730000D02*
X114718000Y-120683000D01*
X108795000Y-111535000D02*
X108795000Y-112035000D01*
X109535000Y-111535000D02*
X108795000Y-111535000D01*
X112456000Y-118421000D02*
X112421000Y-118386000D01*
X118956000Y-111775000D02*
X109035000Y-111775000D01*
X114970000Y-120525000D02*
X114934000Y-120490000D01*
X112672000Y-118228000D02*
X112626000Y-118181000D01*
X111095000Y-111775000D02*
X111095000Y-122055000D01*
X115996000Y-111775000D02*
X115996000Y-122055000D01*
X109595000Y-111775000D02*
X109595000Y-122055000D01*
X118956000Y-111775000D02*
X118956000Y-122055000D01*
X109035000Y-111775000D02*
X109035000Y-122055000D01*
X113011000Y-115910001D02*
G75*
G03*
X114378042Y-115910427I684000J1535001D01*
G01*
X115230000Y-115059000D02*
G75*
G03*
X115230427Y-113691958I-1534993J684001D01*
G01*
X112160000Y-113691000D02*
G75*
G03*
X112014747Y-114403805I1535001J-683999D01*
G01*
X114379000Y-112840000D02*
G75*
G03*
X113011958Y-112839573I-684001J-1534993D01*
G01*
X112015000Y-114375000D02*
G75*
G03*
X112160244Y-115058318I1680000J0D01*
G01*
X115375000Y-119455000D02*
G75*
G03*
X115375000Y-119455000I-1680000J0D01*
G01*
%TO.C,J3*%
X114970000Y-133605000D02*
X114934000Y-133570000D01*
X118956000Y-124855000D02*
X109035000Y-124855000D01*
X118956000Y-135135000D02*
X109035000Y-135135000D01*
X109535000Y-124615000D02*
X108795000Y-124615000D01*
X111095000Y-124855000D02*
X111095000Y-135135000D01*
X108795000Y-124615000D02*
X108795000Y-125115000D01*
X109035000Y-124855000D02*
X109035000Y-135135000D01*
X118956000Y-124855000D02*
X118956000Y-135135000D01*
X112456000Y-131501000D02*
X112421000Y-131466000D01*
X109595000Y-124855000D02*
X109595000Y-135135000D01*
X115996000Y-124855000D02*
X115996000Y-135135000D01*
X114764000Y-133810000D02*
X114718000Y-133763000D01*
X112672000Y-131308000D02*
X112626000Y-131261000D01*
X114379000Y-125920000D02*
G75*
G03*
X113011958Y-125919573I-684001J-1534993D01*
G01*
X113011000Y-128990001D02*
G75*
G03*
X114378042Y-128990427I684000J1535001D01*
G01*
X112160000Y-126771000D02*
G75*
G03*
X112014747Y-127483805I1535001J-683999D01*
G01*
X112015000Y-127455000D02*
G75*
G03*
X112160244Y-128138318I1680000J0D01*
G01*
X115230000Y-128139000D02*
G75*
G03*
X115230427Y-126771958I-1534993J684001D01*
G01*
X115375000Y-132535000D02*
G75*
G03*
X115375000Y-132535000I-1680000J0D01*
G01*
%TO.C,L1*%
X146685000Y-64315000D02*
X146685000Y-80685000D01*
X130315000Y-80685000D02*
X146685000Y-80685000D01*
X130315000Y-64315000D02*
X146685000Y-64315000D01*
X130315000Y-64315000D02*
X130315000Y-80685000D01*
%TO.C,Q1*%
X145240000Y-115420000D02*
X145240000Y-116350000D01*
X145240000Y-115420000D02*
X146700000Y-115420000D01*
X145240000Y-118580000D02*
X147400000Y-118580000D01*
X145240000Y-118580000D02*
X145240000Y-117650000D01*
%TO.C,Q2*%
X145240000Y-101580000D02*
X145240000Y-100650000D01*
X145240000Y-101580000D02*
X147400000Y-101580000D01*
X145240000Y-98420000D02*
X145240000Y-99350000D01*
X145240000Y-98420000D02*
X146700000Y-98420000D01*
%TO.C,Q3*%
X145240000Y-132420000D02*
X146700000Y-132420000D01*
X145240000Y-135580000D02*
X145240000Y-134650000D01*
X145240000Y-132420000D02*
X145240000Y-133350000D01*
X145240000Y-135580000D02*
X147400000Y-135580000D01*
%TO.C,R1*%
X150090000Y-117727064D02*
X150090000Y-116272936D01*
X151910000Y-117727064D02*
X151910000Y-116272936D01*
%TO.C,R2*%
X150090000Y-100727064D02*
X150090000Y-99272936D01*
X151910000Y-100727064D02*
X151910000Y-99272936D01*
%TO.C,R3*%
X150090000Y-134727064D02*
X150090000Y-133272936D01*
X151910000Y-134727064D02*
X151910000Y-133272936D01*
%TO.C,R4*%
X157189564Y-119910000D02*
X155735436Y-119910000D01*
X157189564Y-118090000D02*
X155735436Y-118090000D01*
%TO.C,R5*%
X157727064Y-101090000D02*
X156272936Y-101090000D01*
X157727064Y-102910000D02*
X156272936Y-102910000D01*
%TO.C,R6*%
X157189564Y-136910000D02*
X155735436Y-136910000D01*
X157189564Y-135090000D02*
X155735436Y-135090000D01*
%TO.C,R7*%
X181910000Y-112727064D02*
X181910000Y-111272936D01*
X180090000Y-112727064D02*
X180090000Y-111272936D01*
%TO.C,R8*%
X176090000Y-111272936D02*
X176090000Y-112727064D01*
X177910000Y-111272936D02*
X177910000Y-112727064D01*
%TO.C,R9*%
X172090000Y-112727064D02*
X172090000Y-111272936D01*
X173910000Y-112727064D02*
X173910000Y-111272936D01*
%TO.C,R10*%
X168090000Y-112727064D02*
X168090000Y-111272936D01*
X169910000Y-112727064D02*
X169910000Y-111272936D01*
%TO.C,R22*%
X220090000Y-106727064D02*
X220090000Y-105272936D01*
X221910000Y-106727064D02*
X221910000Y-105272936D01*
%TO.C,R23*%
X169090000Y-97192936D02*
X169090000Y-98647064D01*
X170910000Y-97192936D02*
X170910000Y-98647064D01*
%TO.C,U1*%
X143925000Y-56400000D02*
X143925000Y-57900000D01*
X142975000Y-57900000D02*
X142975000Y-59000000D01*
X143925000Y-57900000D02*
X142975000Y-57900000D01*
X133525000Y-57900000D02*
X134475000Y-57900000D01*
X133525000Y-56400000D02*
X133525000Y-57900000D01*
X134475000Y-57900000D02*
X134475000Y-63025000D01*
%TO.C,U3*%
X126583450Y-107540000D02*
X136743450Y-107540000D01*
X136743450Y-92300000D02*
X126583450Y-92300000D01*
X126583450Y-92300000D02*
X126583450Y-107540000D01*
X136743450Y-107540000D02*
X136743450Y-92300000D01*
%TO.C,U4*%
X126583450Y-126300000D02*
X126583450Y-141540000D01*
X136743450Y-141540000D02*
X136743450Y-126300000D01*
X136743450Y-126300000D02*
X126583450Y-126300000D01*
X126583450Y-141540000D02*
X136743450Y-141540000D01*
%TO.C,U5*%
X126583450Y-109300000D02*
X126583450Y-124540000D01*
X126583450Y-124540000D02*
X136743450Y-124540000D01*
X136743450Y-109300000D02*
X126583450Y-109300000D01*
X136743450Y-124540000D02*
X136743450Y-109300000D01*
%TO.C,U6*%
X227120000Y-114940000D02*
X227120000Y-102690000D01*
X226840000Y-102400000D02*
X226840000Y-104400000D01*
X226840000Y-102400000D02*
X228450000Y-102400000D01*
X232880000Y-114940000D02*
X227120000Y-114940000D01*
X258575000Y-102680000D02*
X258575000Y-114940000D01*
X227130000Y-102680000D02*
X232870000Y-102680000D01*
X232870000Y-102680000D02*
X258575000Y-102680000D01*
X258575000Y-114940000D02*
X232880000Y-114940000D01*
%TO.C,D4*%
X141650000Y-95520000D02*
X141650000Y-102420000D01*
X141650000Y-95520000D02*
X138350000Y-95520000D01*
X138350000Y-95520000D02*
X138350000Y-102420000D01*
%TO.C,SW1*%
X184500000Y-125750000D02*
X184500000Y-124250000D01*
X183250000Y-121750000D02*
X178750000Y-121750000D01*
X177500000Y-124250000D02*
X177500000Y-125750000D01*
X178750000Y-128250000D02*
X183250000Y-128250000D01*
%TO.C,R11*%
X185910000Y-112727064D02*
X185910000Y-111272936D01*
X184090000Y-112727064D02*
X184090000Y-111272936D01*
%TO.C,D5*%
X141650000Y-129520000D02*
X141650000Y-136420000D01*
X138350000Y-129520000D02*
X138350000Y-136420000D01*
X141650000Y-129520000D02*
X138350000Y-129520000D01*
%TO.C,D6*%
X141650000Y-112520000D02*
X138350000Y-112520000D01*
X138350000Y-112520000D02*
X138350000Y-119420000D01*
X141650000Y-112520000D02*
X141650000Y-119420000D01*
%TO.C,SW3*%
X167750000Y-133250000D02*
X172250000Y-133250000D01*
X173500000Y-130750000D02*
X173500000Y-129250000D01*
X166500000Y-129250000D02*
X166500000Y-130750000D01*
X172250000Y-126750000D02*
X167750000Y-126750000D01*
%TO.C,A1*%
X208490000Y-137997500D02*
X208490000Y-120217500D01*
X259510000Y-137997500D02*
X259510000Y-120217500D01*
X256860000Y-140647500D02*
X211140000Y-140647500D01*
X256860000Y-117567500D02*
X211140000Y-117567500D01*
X252050000Y-117247500D02*
X254050000Y-117247500D01*
X211140000Y-117567500D02*
G75*
G03*
X208490000Y-120217500I0J-2650000D01*
G01*
X208490000Y-137997500D02*
G75*
G03*
X211140000Y-140647500I2650000J0D01*
G01*
X256860000Y-140647500D02*
G75*
G03*
X259510000Y-137997500I0J2650000D01*
G01*
X259510000Y-120217500D02*
G75*
G03*
X256860000Y-117567500I-2650000J0D01*
G01*
%TO.C,SW2*%
X178750000Y-138250000D02*
X183250000Y-138250000D01*
X177500000Y-134250000D02*
X177500000Y-135750000D01*
X184500000Y-135750000D02*
X184500000Y-134250000D01*
X183250000Y-131750000D02*
X178750000Y-131750000D01*
%TO.C,SW4*%
X195500000Y-130750000D02*
X195500000Y-129250000D01*
X188500000Y-129250000D02*
X188500000Y-130750000D01*
X189750000Y-133250000D02*
X194250000Y-133250000D01*
X194250000Y-126750000D02*
X189750000Y-126750000D01*
%TD*%
M02*
