%TF.GenerationSoftware,KiCad,Pcbnew,(6.0.5)*%
%TF.CreationDate,2022-07-11T20:41:14-04:00*%
%TF.ProjectId,Test Board,54657374-2042-46f6-9172-642e6b696361,rev?*%
%TF.SameCoordinates,Original*%
%TF.FileFunction,Soldermask,Top*%
%TF.FilePolarity,Negative*%
%FSLAX46Y46*%
G04 Gerber Fmt 4.6, Leading zero omitted, Abs format (unit mm)*
G04 Created by KiCad (PCBNEW (6.0.5)) date 2022-07-11 20:41:14*
%MOMM*%
%LPD*%
G01*
G04 APERTURE LIST*
G04 Aperture macros list*
%AMRoundRect*
0 Rectangle with rounded corners*
0 $1 Rounding radius*
0 $2 $3 $4 $5 $6 $7 $8 $9 X,Y pos of 4 corners*
0 Add a 4 corners polygon primitive as box body*
4,1,4,$2,$3,$4,$5,$6,$7,$8,$9,$2,$3,0*
0 Add four circle primitives for the rounded corners*
1,1,$1+$1,$2,$3*
1,1,$1+$1,$4,$5*
1,1,$1+$1,$6,$7*
1,1,$1+$1,$8,$9*
0 Add four rect primitives between the rounded corners*
20,1,$1+$1,$2,$3,$4,$5,0*
20,1,$1+$1,$4,$5,$6,$7,0*
20,1,$1+$1,$6,$7,$8,$9,0*
20,1,$1+$1,$8,$9,$2,$3,0*%
G04 Aperture macros list end*
%ADD10C,2.780000*%
%ADD11R,1.200000X2.200000*%
%ADD12R,5.800000X6.400000*%
%ADD13R,2.400000X2.400000*%
%ADD14C,2.400000*%
%ADD15R,0.900000X1.840000*%
%ADD16RoundRect,0.250001X0.624999X-0.462499X0.624999X0.462499X-0.624999X0.462499X-0.624999X-0.462499X0*%
%ADD17R,2.600000X2.600000*%
%ADD18C,2.600000*%
%ADD19C,2.000000*%
%ADD20R,0.900000X0.800000*%
%ADD21RoundRect,0.250000X0.625000X-0.312500X0.625000X0.312500X-0.625000X0.312500X-0.625000X-0.312500X0*%
%ADD22RoundRect,0.250000X0.312500X0.625000X-0.312500X0.625000X-0.312500X-0.625000X0.312500X-0.625000X0*%
%ADD23RoundRect,0.250000X-0.625000X0.312500X-0.625000X-0.312500X0.625000X-0.312500X0.625000X0.312500X0*%
%ADD24R,1.100000X4.600000*%
%ADD25R,10.800000X9.400000*%
%ADD26C,1.524000*%
%ADD27C,3.500000*%
%ADD28C,1.397000*%
%ADD29R,1.500000X1.500000*%
%ADD30C,1.500000*%
%ADD31C,4.500000*%
%ADD32R,1.800000X3.500000*%
%ADD33R,1.600000X1.600000*%
%ADD34C,1.600000*%
G04 APERTURE END LIST*
D10*
%TO.C,F1*%
X113500000Y-84040000D03*
X110100000Y-84040000D03*
X110100000Y-93960000D03*
X113500000Y-93960000D03*
%TD*%
D11*
%TO.C,D2*%
X150245000Y-75975000D03*
D12*
X152525000Y-69675000D03*
D11*
X152525000Y-75975000D03*
X154805000Y-75975000D03*
%TD*%
D13*
%TO.C,C1*%
X116000000Y-60000000D03*
D14*
X116000000Y-52500000D03*
%TD*%
D13*
%TO.C,C2*%
X161500000Y-59500000D03*
D14*
X161500000Y-52000000D03*
%TD*%
D15*
%TO.C,D1*%
X115700000Y-71000000D03*
X115700000Y-77000000D03*
X113300000Y-77000000D03*
X113300000Y-71000000D03*
%TD*%
D16*
%TO.C,D3*%
X170000000Y-92407500D03*
X170000000Y-89432500D03*
%TD*%
D17*
%TO.C,J1*%
X113695000Y-101375000D03*
D18*
X113695000Y-106455000D03*
%TD*%
D17*
%TO.C,J2*%
X113695000Y-114375000D03*
D18*
X113695000Y-119455000D03*
%TD*%
D17*
%TO.C,J3*%
X113695000Y-127455000D03*
D18*
X113695000Y-132535000D03*
%TD*%
D19*
%TO.C,L1*%
X134690000Y-78850000D03*
X142310000Y-66150000D03*
%TD*%
D20*
%TO.C,Q1*%
X147000000Y-117950000D03*
X147000000Y-116050000D03*
X145000000Y-117000000D03*
%TD*%
%TO.C,Q2*%
X147000000Y-100950000D03*
X147000000Y-99050000D03*
X145000000Y-100000000D03*
%TD*%
%TO.C,Q3*%
X147000000Y-134950000D03*
X147000000Y-133050000D03*
X145000000Y-134000000D03*
%TD*%
D21*
%TO.C,R1*%
X151000000Y-118462500D03*
X151000000Y-115537500D03*
%TD*%
%TO.C,R2*%
X151000000Y-101462500D03*
X151000000Y-98537500D03*
%TD*%
%TO.C,R3*%
X151000000Y-135462500D03*
X151000000Y-132537500D03*
%TD*%
D22*
%TO.C,R4*%
X157925000Y-119000000D03*
X155000000Y-119000000D03*
%TD*%
%TO.C,R5*%
X158462500Y-102000000D03*
X155537500Y-102000000D03*
%TD*%
%TO.C,R6*%
X157925000Y-136000000D03*
X155000000Y-136000000D03*
%TD*%
D21*
%TO.C,R7*%
X181000000Y-113462500D03*
X181000000Y-110537500D03*
%TD*%
D23*
%TO.C,R8*%
X177000000Y-110537500D03*
X177000000Y-113462500D03*
%TD*%
D21*
%TO.C,R9*%
X173000000Y-113462500D03*
X173000000Y-110537500D03*
%TD*%
%TO.C,R10*%
X169000000Y-113462500D03*
X169000000Y-110537500D03*
%TD*%
%TO.C,R22*%
X221000000Y-107462500D03*
X221000000Y-104537500D03*
%TD*%
D23*
%TO.C,R23*%
X170000000Y-96457500D03*
X170000000Y-99382500D03*
%TD*%
D24*
%TO.C,U1*%
X135325000Y-60725000D03*
X137025000Y-60725000D03*
D25*
X138725000Y-51575000D03*
D24*
X138725000Y-60725000D03*
X140425000Y-60725000D03*
X142125000Y-60725000D03*
%TD*%
D26*
%TO.C,U2*%
X252337500Y-84907000D03*
X252337500Y-87447000D03*
X249797500Y-87447000D03*
X249797500Y-84907000D03*
X247257500Y-84907000D03*
X247257500Y-87447000D03*
X244717500Y-87447000D03*
X244717500Y-84907000D03*
X242177500Y-84907000D03*
X242177500Y-87447000D03*
X239637500Y-87447000D03*
X239637500Y-84907000D03*
X237097500Y-84907000D03*
X237097500Y-87447000D03*
X234557500Y-87447000D03*
X234557500Y-84907000D03*
X232017500Y-87447000D03*
X232017500Y-84907000D03*
X229477500Y-87447000D03*
X229477500Y-84907000D03*
X226937500Y-87447000D03*
X226937500Y-84907000D03*
X224397500Y-84907000D03*
X224397500Y-87447000D03*
X221857500Y-84907000D03*
X221857500Y-87447000D03*
X219317500Y-87447000D03*
X219317500Y-84907000D03*
X216777500Y-84907000D03*
X216777500Y-87447000D03*
X214237500Y-84907000D03*
X214237500Y-87447000D03*
X214237500Y-62047000D03*
X214237500Y-64587000D03*
X216777500Y-62047000D03*
X216777500Y-64587000D03*
X219317500Y-64587000D03*
X219317500Y-62047000D03*
X221857500Y-62047000D03*
X221857500Y-64587000D03*
X224397500Y-64587000D03*
X224397500Y-62047000D03*
X226937500Y-62047000D03*
X226937500Y-64587000D03*
X229477500Y-62047000D03*
X229477500Y-64587000D03*
X232017500Y-62047000D03*
X232017500Y-64587000D03*
X234557500Y-62047000D03*
X234557500Y-64587000D03*
X237097500Y-62047000D03*
X237097500Y-64587000D03*
X239637500Y-64587000D03*
X239637500Y-62047000D03*
X242177500Y-64587000D03*
X242177500Y-62047000D03*
D27*
X181852500Y-53918000D03*
X181852500Y-96082000D03*
X256147500Y-96082000D03*
X256147500Y-53918000D03*
%TD*%
D28*
%TO.C,U3*%
X127853450Y-106270000D03*
X127853450Y-101190000D03*
X127853450Y-93570000D03*
X135473450Y-93570000D03*
X135473450Y-106270000D03*
%TD*%
%TO.C,U4*%
X135473450Y-140270000D03*
X135473450Y-127570000D03*
X127853450Y-127570000D03*
X127853450Y-135190000D03*
X127853450Y-140270000D03*
%TD*%
%TO.C,U5*%
X127853450Y-123270000D03*
X127853450Y-118190000D03*
X127853450Y-110570000D03*
X135473450Y-110570000D03*
X135473450Y-123270000D03*
%TD*%
D29*
%TO.C,U6*%
X230000000Y-105000000D03*
D30*
X230000000Y-107540000D03*
X230000000Y-110080000D03*
X230000000Y-112620000D03*
D31*
X255000000Y-108810000D03*
%TD*%
D32*
%TO.C,D4*%
X140000000Y-97420000D03*
X140000000Y-102420000D03*
%TD*%
D19*
%TO.C,SW1*%
X184250000Y-122750000D03*
X177750000Y-122750000D03*
X177750000Y-127250000D03*
X184250000Y-127250000D03*
%TD*%
D21*
%TO.C,R11*%
X185000000Y-113462500D03*
X185000000Y-110537500D03*
%TD*%
D32*
%TO.C,D5*%
X140000000Y-131420000D03*
X140000000Y-136420000D03*
%TD*%
%TO.C,D6*%
X140000000Y-114420000D03*
X140000000Y-119420000D03*
%TD*%
D19*
%TO.C,SW3*%
X173250000Y-127750000D03*
X166750000Y-127750000D03*
X173250000Y-132250000D03*
X166750000Y-132250000D03*
%TD*%
D33*
%TO.C,A1*%
X253050000Y-118947500D03*
D34*
X250510000Y-118947500D03*
X247970000Y-118947500D03*
X245430000Y-118947500D03*
X242890000Y-118947500D03*
X240350000Y-118947500D03*
X237810000Y-118947500D03*
X235270000Y-118947500D03*
X232730000Y-118947500D03*
X230190000Y-118947500D03*
X227650000Y-118947500D03*
X225110000Y-118947500D03*
X222570000Y-118947500D03*
X220030000Y-118947500D03*
X217490000Y-118947500D03*
X214950000Y-118947500D03*
X214950000Y-139267500D03*
X217490000Y-139267500D03*
X220030000Y-139267500D03*
X222570000Y-139267500D03*
X225110000Y-139267500D03*
X227650000Y-139267500D03*
X230190000Y-139267500D03*
X232730000Y-139267500D03*
X235270000Y-139267500D03*
X237810000Y-139267500D03*
X240350000Y-139267500D03*
X242890000Y-139267500D03*
%TD*%
D19*
%TO.C,SW2*%
X184250000Y-132750000D03*
X177750000Y-132750000D03*
X177750000Y-137250000D03*
X184250000Y-137250000D03*
%TD*%
%TO.C,SW4*%
X195250000Y-127750000D03*
X188750000Y-127750000D03*
X188750000Y-132250000D03*
X195250000Y-132250000D03*
%TD*%
M02*
